solid OpenSCAD_Model
  facet normal -1 0 0
    outer loop
      vertex 7.65 15.75 17.4804
      vertex 7.65 20.25 18
      vertex 7.65 20.25 17.4804
    endloop
  endfacet
  facet normal -1 -0 0
    outer loop
      vertex 7.65 20.25 18
      vertex 7.65 15.75 17.4804
      vertex 7.65 15.75 18
    endloop
  endfacet
  facet normal -1 0 0
    outer loop
      vertex 7.65 15.75 9
      vertex 7.65 20.25 9.51962
      vertex 7.65 20.25 9
    endloop
  endfacet
  facet normal -1 -0 0
    outer loop
      vertex 7.65 20.25 9.51962
      vertex 7.65 15.75 9
      vertex 7.65 15.75 9.51962
    endloop
  endfacet
  facet normal -0 0 1
    outer loop
      vertex 7.65 20.25 18
      vertex 13.5 15.75 18
      vertex 13.5 20.25 18
    endloop
  endfacet
  facet normal 0 0 1
    outer loop
      vertex 13.5 15.75 18
      vertex 7.65 20.25 18
      vertex 7.65 15.75 18
    endloop
  endfacet
  facet normal 1 -0 0
    outer loop
      vertex 13.5 15.75 18
      vertex 13.5 20.25 9
      vertex 13.5 20.25 18
    endloop
  endfacet
  facet normal 1 0 0
    outer loop
      vertex 13.5 20.25 9
      vertex 13.5 15.75 18
      vertex 13.5 15.75 9
    endloop
  endfacet
  facet normal 0 0 -1
    outer loop
      vertex 7.65 15.75 9
      vertex 13.5 20.25 9
      vertex 13.5 15.75 9
    endloop
  endfacet
  facet normal -0 0 -1
    outer loop
      vertex 13.5 20.25 9
      vertex 7.65 15.75 9
      vertex 7.65 20.25 9
    endloop
  endfacet
  facet normal 0 -1 0
    outer loop
      vertex 10.6471 15.75 15.75
      vertex 7.65 15.75 18
      vertex 7.65 15.75 17.4804
    endloop
  endfacet
  facet normal 0 -1 0
    outer loop
      vertex 7.65 15.75 18
      vertex 10.6471 15.75 15.75
      vertex 13.5 15.75 18
    endloop
  endfacet
  facet normal 0 -1 0
    outer loop
      vertex 10.6471 15.75 11.25
      vertex 13.5 15.75 18
      vertex 10.6471 15.75 15.75
    endloop
  endfacet
  facet normal 0 -1 0
    outer loop
      vertex 7.65 15.75 9
      vertex 10.6471 15.75 11.25
      vertex 7.65 15.75 9.51962
    endloop
  endfacet
  facet normal 0 -1 0
    outer loop
      vertex 10.6471 15.75 11.25
      vertex 13.5 15.75 9
      vertex 13.5 15.75 18
    endloop
  endfacet
  facet normal 0 -1 0
    outer loop
      vertex 13.5 15.75 9
      vertex 10.6471 15.75 11.25
      vertex 7.65 15.75 9
    endloop
  endfacet
  facet normal 0 1 -0
    outer loop
      vertex 10.6471 20.25 15.75
      vertex 7.65 20.25 18
      vertex 13.5 20.25 18
    endloop
  endfacet
  facet normal 0 1 0
    outer loop
      vertex 7.65 20.25 18
      vertex 10.6471 20.25 15.75
      vertex 7.65 20.25 17.4804
    endloop
  endfacet
  facet normal 0 1 0
    outer loop
      vertex 13.5 20.25 18
      vertex 10.6471 20.25 11.25
      vertex 10.6471 20.25 15.75
    endloop
  endfacet
  facet normal 0 1 -0
    outer loop
      vertex 13.5 20.25 9
      vertex 10.6471 20.25 11.25
      vertex 13.5 20.25 18
    endloop
  endfacet
  facet normal 0 1 0
    outer loop
      vertex 7.65 20.25 9
      vertex 10.6471 20.25 11.25
      vertex 13.5 20.25 9
    endloop
  endfacet
  facet normal 0 1 0
    outer loop
      vertex 10.6471 20.25 11.25
      vertex 7.65 20.25 9
      vertex 7.65 20.25 9.51962
    endloop
  endfacet
  facet normal -0.5 0 0.866025
    outer loop
      vertex 7.65 20.25 9.51962
      vertex 10.6471 15.75 11.25
      vertex 10.6471 20.25 11.25
    endloop
  endfacet
  facet normal -0.5 0 0.866025
    outer loop
      vertex 10.6471 15.75 11.25
      vertex 7.65 20.25 9.51962
      vertex 7.65 15.75 9.51962
    endloop
  endfacet
  facet normal -0.5 0 -0.866025
    outer loop
      vertex 7.65 15.75 17.4804
      vertex 10.6471 20.25 15.75
      vertex 10.6471 15.75 15.75
    endloop
  endfacet
  facet normal -0.5 0 -0.866025
    outer loop
      vertex 10.6471 20.25 15.75
      vertex 7.65 15.75 17.4804
      vertex 7.65 20.25 17.4804
    endloop
  endfacet
  facet normal -1 0 0
    outer loop
      vertex 10.6471 15.75 11.25
      vertex 10.6471 20.25 15.75
      vertex 10.6471 20.25 11.25
    endloop
  endfacet
  facet normal -1 -0 0
    outer loop
      vertex 10.6471 20.25 15.75
      vertex 10.6471 15.75 11.25
      vertex 10.6471 15.75 15.75
    endloop
  endfacet
endsolid OpenSCAD_Model
