solid OpenSCAD_Model
  facet normal 0.984808 0.173648 0
    outer loop
      vertex 6.25 0 7.5
      vertex 5.87308 2.13763 0
      vertex 5.87308 2.13763 7.5
    endloop
  endfacet
  facet normal 0.984808 0.173648 0
    outer loop
      vertex 5.87308 2.13763 0
      vertex 6.25 0 7.5
      vertex 6.25 0 0
    endloop
  endfacet
  facet normal -0.984808 0.173648 0
    outer loop
      vertex -6.25 0 0
      vertex -5.87308 2.13763 7.5
      vertex -5.87308 2.13763 0
    endloop
  endfacet
  facet normal -0.984808 0.173648 0
    outer loop
      vertex -5.87308 2.13763 7.5
      vertex -6.25 0 0
      vertex -6.25 0 7.5
    endloop
  endfacet
  facet normal 0 1 -0
    outer loop
      vertex 1.0853 6.15505 0
      vertex -1.0853 6.15505 7.5
      vertex 1.0853 6.15505 7.5
    endloop
  endfacet
  facet normal 0 1 0
    outer loop
      vertex -1.0853 6.15505 7.5
      vertex 1.0853 6.15505 0
      vertex -1.0853 6.15505 0
    endloop
  endfacet
  facet normal 0 -1 0
    outer loop
      vertex -1.0853 -6.15505 0
      vertex 1.0853 -6.15505 7.5
      vertex -1.0853 -6.15505 7.5
    endloop
  endfacet
  facet normal 0 -1 -0
    outer loop
      vertex 1.0853 -6.15505 7.5
      vertex -1.0853 -6.15505 0
      vertex 1.0853 -6.15505 0
    endloop
  endfacet
  facet normal 0.34202 -0.939693 0
    outer loop
      vertex 1.0853 -6.15505 0
      vertex 3.125 -5.41266 7.5
      vertex 1.0853 -6.15505 7.5
    endloop
  endfacet
  facet normal 0.34202 -0.939693 0
    outer loop
      vertex 3.125 -5.41266 7.5
      vertex 1.0853 -6.15505 0
      vertex 3.125 -5.41266 0
    endloop
  endfacet
  facet normal 0.642788 0.766044 -0
    outer loop
      vertex 4.78778 4.01742 0
      vertex 3.125 5.41266 7.5
      vertex 4.78778 4.01742 7.5
    endloop
  endfacet
  facet normal 0.642788 0.766044 0
    outer loop
      vertex 3.125 5.41266 7.5
      vertex 4.78778 4.01742 0
      vertex 3.125 5.41266 0
    endloop
  endfacet
  facet normal 0.866025 0.5 0
    outer loop
      vertex 5.87308 2.13763 7.5
      vertex 4.78778 4.01742 0
      vertex 4.78778 4.01742 7.5
    endloop
  endfacet
  facet normal 0.866025 0.5 0
    outer loop
      vertex 4.78778 4.01742 0
      vertex 5.87308 2.13763 7.5
      vertex 5.87308 2.13763 0
    endloop
  endfacet
  facet normal 0.34202 0.939693 -0
    outer loop
      vertex 3.125 5.41266 0
      vertex 1.0853 6.15505 7.5
      vertex 3.125 5.41266 7.5
    endloop
  endfacet
  facet normal 0.34202 0.939693 0
    outer loop
      vertex 1.0853 6.15505 7.5
      vertex 3.125 5.41266 0
      vertex 1.0853 6.15505 0
    endloop
  endfacet
  facet normal -0.642788 0.766044 0
    outer loop
      vertex -3.125 5.41266 0
      vertex -4.78778 4.01742 7.5
      vertex -3.125 5.41266 7.5
    endloop
  endfacet
  facet normal -0.642788 0.766044 0
    outer loop
      vertex -4.78778 4.01742 7.5
      vertex -3.125 5.41266 0
      vertex -4.78778 4.01742 0
    endloop
  endfacet
  facet normal -0.866025 0.5 0
    outer loop
      vertex -5.87308 2.13763 0
      vertex -4.78778 4.01742 7.5
      vertex -4.78778 4.01742 0
    endloop
  endfacet
  facet normal -0.866025 0.5 0
    outer loop
      vertex -4.78778 4.01742 7.5
      vertex -5.87308 2.13763 0
      vertex -5.87308 2.13763 7.5
    endloop
  endfacet
  facet normal 0 0 1
    outer loop
      vertex 5 0 7.5
      vertex 6.25 0 7.5
      vertex 5.87308 2.13763 7.5
    endloop
  endfacet
  facet normal 0 0 1
    outer loop
      vertex 6.25 0 7.5
      vertex 5 0 7.5
      vertex 5.87308 -2.13763 7.5
    endloop
  endfacet
  facet normal 0 0 1
    outer loop
      vertex 4.78778 4.01742 7.5
      vertex 5 0 7.5
      vertex 5.87308 2.13763 7.5
    endloop
  endfacet
  facet normal -0 0 1
    outer loop
      vertex 2.5 4.33013 7.5
      vertex 4.78778 4.01742 7.5
      vertex 3.125 5.41266 7.5
    endloop
  endfacet
  facet normal 0 0 1
    outer loop
      vertex 4.78778 4.01742 7.5
      vertex 2.5 4.33013 7.5
      vertex 5 0 7.5
    endloop
  endfacet
  facet normal 0 0 1
    outer loop
      vertex 1.0853 6.15505 7.5
      vertex 2.5 4.33013 7.5
      vertex 3.125 5.41266 7.5
    endloop
  endfacet
  facet normal -0 0 1
    outer loop
      vertex -1.0853 6.15505 7.5
      vertex 2.5 4.33013 7.5
      vertex 1.0853 6.15505 7.5
    endloop
  endfacet
  facet normal 0 0 1
    outer loop
      vertex -1.0853 6.15505 7.5
      vertex -2.5 4.33013 7.5
      vertex 2.5 4.33013 7.5
    endloop
  endfacet
  facet normal -0 0 1
    outer loop
      vertex -3.125 5.41266 7.5
      vertex -2.5 4.33013 7.5
      vertex -1.0853 6.15505 7.5
    endloop
  endfacet
  facet normal 0 0 1
    outer loop
      vertex -4.78778 4.01742 7.5
      vertex -2.5 4.33013 7.5
      vertex -3.125 5.41266 7.5
    endloop
  endfacet
  facet normal -0 0 1
    outer loop
      vertex -4.78778 4.01742 7.5
      vertex -5 0 7.5
      vertex -2.5 4.33013 7.5
    endloop
  endfacet
  facet normal 0 -0 1
    outer loop
      vertex -5 0 7.5
      vertex -4.78778 4.01742 7.5
      vertex -5.87308 2.13763 7.5
    endloop
  endfacet
  facet normal 0 0 1
    outer loop
      vertex 5 0 7.5
      vertex 4.78778 -4.01742 7.5
      vertex 5.87308 -2.13763 7.5
    endloop
  endfacet
  facet normal 0 0 1
    outer loop
      vertex 2.5 -4.33013 7.5
      vertex 4.78778 -4.01742 7.5
      vertex 5 0 7.5
    endloop
  endfacet
  facet normal 0 0 1
    outer loop
      vertex 4.78778 -4.01742 7.5
      vertex 2.5 -4.33013 7.5
      vertex 3.125 -5.41266 7.5
    endloop
  endfacet
  facet normal 0 0 1
    outer loop
      vertex 2.5 -4.33013 7.5
      vertex 1.0853 -6.15505 7.5
      vertex 3.125 -5.41266 7.5
    endloop
  endfacet
  facet normal 0 0 1
    outer loop
      vertex 2.5 -4.33013 7.5
      vertex -1.0853 -6.15505 7.5
      vertex 1.0853 -6.15505 7.5
    endloop
  endfacet
  facet normal -0 0 1
    outer loop
      vertex -2.5 -4.33013 7.5
      vertex -1.0853 -6.15505 7.5
      vertex 2.5 -4.33013 7.5
    endloop
  endfacet
  facet normal 0 0 1
    outer loop
      vertex -2.5 -4.33013 7.5
      vertex -3.125 -5.41266 7.5
      vertex -1.0853 -6.15505 7.5
    endloop
  endfacet
  facet normal 0 0 1
    outer loop
      vertex -2.5 -4.33013 7.5
      vertex -4.78778 -4.01742 7.5
      vertex -3.125 -5.41266 7.5
    endloop
  endfacet
  facet normal 0 0 1
    outer loop
      vertex -5 0 7.5
      vertex -4.78778 -4.01742 7.5
      vertex -2.5 -4.33013 7.5
    endloop
  endfacet
  facet normal 0 0 1
    outer loop
      vertex -6.25 0 7.5
      vertex -5 0 7.5
      vertex -5.87308 2.13763 7.5
    endloop
  endfacet
  facet normal 0 0 1
    outer loop
      vertex -5 0 7.5
      vertex -5.87308 -2.13763 7.5
      vertex -4.78778 -4.01742 7.5
    endloop
  endfacet
  facet normal 0 0 1
    outer loop
      vertex -5 0 7.5
      vertex -6.25 0 7.5
      vertex -5.87308 -2.13763 7.5
    endloop
  endfacet
  facet normal -0.34202 0.939693 0
    outer loop
      vertex -1.0853 6.15505 0
      vertex -3.125 5.41266 7.5
      vertex -1.0853 6.15505 7.5
    endloop
  endfacet
  facet normal -0.34202 0.939693 0
    outer loop
      vertex -3.125 5.41266 7.5
      vertex -1.0853 6.15505 0
      vertex -3.125 5.41266 0
    endloop
  endfacet
  facet normal 0.984808 -0.173648 0
    outer loop
      vertex 5.87308 -2.13763 7.5
      vertex 6.25 0 0
      vertex 6.25 0 7.5
    endloop
  endfacet
  facet normal 0.984808 -0.173648 0
    outer loop
      vertex 6.25 0 0
      vertex 5.87308 -2.13763 7.5
      vertex 5.87308 -2.13763 0
    endloop
  endfacet
  facet normal -0 0 -1
    outer loop
      vertex 6.25 0 0
      vertex 2.97634 -0.375999 0
      vertex 3 0 0
    endloop
  endfacet
  facet normal 0 0 -1
    outer loop
      vertex 4.78778 -4.01742 0
      vertex 2.90575 -0.746069 0
      vertex 2.97634 -0.375999 0
    endloop
  endfacet
  facet normal 0 0 -1
    outer loop
      vertex 4.78778 -4.01742 0
      vertex 2.78933 -1.10437 0
      vertex 2.90575 -0.746069 0
    endloop
  endfacet
  facet normal 0 0 -1
    outer loop
      vertex 4.78778 -4.01742 0
      vertex 2.62892 -1.44526 0
      vertex 2.78933 -1.10437 0
    endloop
  endfacet
  facet normal 0 0 -1
    outer loop
      vertex 4.78778 -4.01742 0
      vertex 2.42705 -1.76336 0
      vertex 2.62892 -1.44526 0
    endloop
  endfacet
  facet normal 0 0 -1
    outer loop
      vertex 4.78778 -4.01742 0
      vertex 2.18691 -2.05364 0
      vertex 2.42705 -1.76336 0
    endloop
  endfacet
  facet normal 0 0 -1
    outer loop
      vertex 4.78778 -4.01742 0
      vertex 1.91227 -2.31154 0
      vertex 2.18691 -2.05364 0
    endloop
  endfacet
  facet normal 0 0 -1
    outer loop
      vertex 3.125 -5.41266 0
      vertex 1.60748 -2.53298 0
      vertex 1.91227 -2.31154 0
    endloop
  endfacet
  facet normal 0 0 -1
    outer loop
      vertex 3.125 -5.41266 0
      vertex 1.27734 -2.71448 0
      vertex 1.60748 -2.53298 0
    endloop
  endfacet
  facet normal 0 0 -1
    outer loop
      vertex 0.927051 -2.85317 0
      vertex 3.125 -5.41266 0
      vertex 1.0853 -6.15505 0
    endloop
  endfacet
  facet normal 0 0 -1
    outer loop
      vertex 3.125 -5.41266 0
      vertex 0.927051 -2.85317 0
      vertex 1.27734 -2.71448 0
    endloop
  endfacet
  facet normal 0 0 -1
    outer loop
      vertex 1.0853 -6.15505 0
      vertex 0.562143 -2.94686 0
      vertex 0.927051 -2.85317 0
    endloop
  endfacet
  facet normal 0 0 -1
    outer loop
      vertex 1.0853 -6.15505 0
      vertex 0.188371 -2.99408 0
      vertex 0.562143 -2.94686 0
    endloop
  endfacet
  facet normal 0 0 -1
    outer loop
      vertex 1.0853 -6.15505 0
      vertex -0.188371 -2.99408 0
      vertex 0.188371 -2.99408 0
    endloop
  endfacet
  facet normal 0 0 -1
    outer loop
      vertex -1.0853 -6.15505 0
      vertex -0.188371 -2.99408 0
      vertex 1.0853 -6.15505 0
    endloop
  endfacet
  facet normal -0 0 -1
    outer loop
      vertex -0.188371 -2.99408 0
      vertex -1.0853 -6.15505 0
      vertex -0.562143 -2.94686 0
    endloop
  endfacet
  facet normal -0 0 -1
    outer loop
      vertex -0.562143 -2.94686 0
      vertex -1.0853 -6.15505 0
      vertex -0.927051 -2.85317 0
    endloop
  endfacet
  facet normal 0 0 -1
    outer loop
      vertex -3.125 -5.41266 0
      vertex -0.927051 -2.85317 0
      vertex -1.0853 -6.15505 0
    endloop
  endfacet
  facet normal -0 0 -1
    outer loop
      vertex -0.927051 -2.85317 0
      vertex -3.125 -5.41266 0
      vertex -1.27734 -2.71448 0
    endloop
  endfacet
  facet normal -0 0 -1
    outer loop
      vertex -1.27734 -2.71448 0
      vertex -3.125 -5.41266 0
      vertex -1.60748 -2.53298 0
    endloop
  endfacet
  facet normal -0 0 -1
    outer loop
      vertex -1.60748 -2.53298 0
      vertex -3.125 -5.41266 0
      vertex -1.91227 -2.31154 0
    endloop
  endfacet
  facet normal 0 0 -1
    outer loop
      vertex -4.78778 -4.01742 0
      vertex -1.91227 -2.31154 0
      vertex -3.125 -5.41266 0
    endloop
  endfacet
  facet normal -0 0 -1
    outer loop
      vertex -1.91227 -2.31154 0
      vertex -4.78778 -4.01742 0
      vertex -2.18691 -2.05364 0
    endloop
  endfacet
  facet normal -0 0 -1
    outer loop
      vertex -2.18691 -2.05364 0
      vertex -4.78778 -4.01742 0
      vertex -2.42705 -1.76336 0
    endloop
  endfacet
  facet normal -0 0 -1
    outer loop
      vertex -2.42705 -1.76336 0
      vertex -4.78778 -4.01742 0
      vertex -2.62892 -1.44526 0
    endloop
  endfacet
  facet normal 0 0 -1
    outer loop
      vertex -5.87308 -2.13763 0
      vertex -2.62892 -1.44526 0
      vertex -4.78778 -4.01742 0
    endloop
  endfacet
  facet normal -0 0 -1
    outer loop
      vertex -2.62892 -1.44526 0
      vertex -5.87308 -2.13763 0
      vertex -2.78933 -1.10437 0
    endloop
  endfacet
  facet normal -0 0 -1
    outer loop
      vertex -2.78933 -1.10437 0
      vertex -5.87308 -2.13763 0
      vertex -2.90575 -0.746069 0
    endloop
  endfacet
  facet normal -0 0 -1
    outer loop
      vertex -2.90575 -0.746069 0
      vertex -5.87308 -2.13763 0
      vertex -2.97634 -0.375999 0
    endloop
  endfacet
  facet normal 0 0 -1
    outer loop
      vertex -6.25 0 0
      vertex -2.97634 -0.375999 0
      vertex -5.87308 -2.13763 0
    endloop
  endfacet
  facet normal 0 0 -1
    outer loop
      vertex -3 0 0
      vertex -4.78778 4.01742 0
      vertex -3.125 5.41266 0
    endloop
  endfacet
  facet normal 0 0 -1
    outer loop
      vertex -2.97634 -0.375999 0
      vertex -6.25 0 0
      vertex -3 0 0
    endloop
  endfacet
  facet normal 0 0 -1
    outer loop
      vertex -3 0 0
      vertex -5.87308 2.13763 0
      vertex -4.78778 4.01742 0
    endloop
  endfacet
  facet normal 0 0 -1
    outer loop
      vertex -3 0 0
      vertex -6.25 0 0
      vertex -5.87308 2.13763 0
    endloop
  endfacet
  facet normal 0 0 -1
    outer loop
      vertex 2.97634 -0.375999 0
      vertex 6.25 0 0
      vertex 5.87308 -2.13763 0
    endloop
  endfacet
  facet normal 0 0 -1
    outer loop
      vertex 2.97634 -0.375999 0
      vertex 5.87308 -2.13763 0
      vertex 4.78778 -4.01742 0
    endloop
  endfacet
  facet normal 0 0 -1
    outer loop
      vertex 2.97634 0.375999 0
      vertex 6.25 0 0
      vertex 3 0 0
    endloop
  endfacet
  facet normal 0 0 -1
    outer loop
      vertex 6.25 0 0
      vertex 2.97634 0.375999 0
      vertex 5.87308 2.13763 0
    endloop
  endfacet
  facet normal 0 0 -1
    outer loop
      vertex 1.91227 -2.31154 0
      vertex 4.78778 -4.01742 0
      vertex 3.125 -5.41266 0
    endloop
  endfacet
  facet normal 0 0 -1
    outer loop
      vertex 2.90575 0.746069 0
      vertex 5.87308 2.13763 0
      vertex 2.97634 0.375999 0
    endloop
  endfacet
  facet normal 0 0 -1
    outer loop
      vertex 2.78933 1.10437 0
      vertex 5.87308 2.13763 0
      vertex 2.90575 0.746069 0
    endloop
  endfacet
  facet normal 0 0 -1
    outer loop
      vertex 2.62892 1.44526 0
      vertex 5.87308 2.13763 0
      vertex 2.78933 1.10437 0
    endloop
  endfacet
  facet normal -0 0 -1
    outer loop
      vertex 5.87308 2.13763 0
      vertex 2.62892 1.44526 0
      vertex 4.78778 4.01742 0
    endloop
  endfacet
  facet normal 0 0 -1
    outer loop
      vertex 2.42705 1.76336 0
      vertex 4.78778 4.01742 0
      vertex 2.62892 1.44526 0
    endloop
  endfacet
  facet normal 0 0 -1
    outer loop
      vertex 2.18691 2.05364 0
      vertex 4.78778 4.01742 0
      vertex 2.42705 1.76336 0
    endloop
  endfacet
  facet normal 0 0 -1
    outer loop
      vertex 1.91227 2.31154 0
      vertex 4.78778 4.01742 0
      vertex 2.18691 2.05364 0
    endloop
  endfacet
  facet normal -0 0 -1
    outer loop
      vertex 4.78778 4.01742 0
      vertex 1.91227 2.31154 0
      vertex 3.125 5.41266 0
    endloop
  endfacet
  facet normal 0 0 -1
    outer loop
      vertex 1.60748 2.53298 0
      vertex 3.125 5.41266 0
      vertex 1.91227 2.31154 0
    endloop
  endfacet
  facet normal 0 0 -1
    outer loop
      vertex 1.27734 2.71448 0
      vertex 3.125 5.41266 0
      vertex 1.60748 2.53298 0
    endloop
  endfacet
  facet normal 0 0 -1
    outer loop
      vertex 0.927051 2.85317 0
      vertex 3.125 5.41266 0
      vertex 1.27734 2.71448 0
    endloop
  endfacet
  facet normal -0 0 -1
    outer loop
      vertex 3.125 5.41266 0
      vertex 0.927051 2.85317 0
      vertex 1.0853 6.15505 0
    endloop
  endfacet
  facet normal 0 0 -1
    outer loop
      vertex 0.562143 2.94686 0
      vertex 1.0853 6.15505 0
      vertex 0.927051 2.85317 0
    endloop
  endfacet
  facet normal 0 0 -1
    outer loop
      vertex 0.188371 2.99408 0
      vertex 1.0853 6.15505 0
      vertex 0.562143 2.94686 0
    endloop
  endfacet
  facet normal 0 0 -1
    outer loop
      vertex -0.188371 2.99408 0
      vertex 1.0853 6.15505 0
      vertex 0.188371 2.99408 0
    endloop
  endfacet
  facet normal 0 0 -1
    outer loop
      vertex -1.0853 6.15505 0
      vertex -0.188371 2.99408 0
      vertex -0.562143 2.94686 0
    endloop
  endfacet
  facet normal 0 0 -1
    outer loop
      vertex -1.0853 6.15505 0
      vertex -0.562143 2.94686 0
      vertex -0.927051 2.85317 0
    endloop
  endfacet
  facet normal 0 0 -1
    outer loop
      vertex -0.188371 2.99408 0
      vertex -1.0853 6.15505 0
      vertex 1.0853 6.15505 0
    endloop
  endfacet
  facet normal 0 0 -1
    outer loop
      vertex -3.125 5.41266 0
      vertex -0.927051 2.85317 0
      vertex -1.27734 2.71448 0
    endloop
  endfacet
  facet normal 0 0 -1
    outer loop
      vertex -3.125 5.41266 0
      vertex -1.27734 2.71448 0
      vertex -1.60748 2.53298 0
    endloop
  endfacet
  facet normal 0 0 -1
    outer loop
      vertex -3.125 5.41266 0
      vertex -1.60748 2.53298 0
      vertex -1.91227 2.31154 0
    endloop
  endfacet
  facet normal 0 0 -1
    outer loop
      vertex -3.125 5.41266 0
      vertex -1.91227 2.31154 0
      vertex -2.18691 2.05364 0
    endloop
  endfacet
  facet normal 0 0 -1
    outer loop
      vertex -3.125 5.41266 0
      vertex -2.18691 2.05364 0
      vertex -2.42705 1.76336 0
    endloop
  endfacet
  facet normal 0 0 -1
    outer loop
      vertex -3.125 5.41266 0
      vertex -2.42705 1.76336 0
      vertex -2.62892 1.44526 0
    endloop
  endfacet
  facet normal 0 0 -1
    outer loop
      vertex -3.125 5.41266 0
      vertex -2.62892 1.44526 0
      vertex -2.78933 1.10437 0
    endloop
  endfacet
  facet normal 0 0 -1
    outer loop
      vertex -0.927051 2.85317 0
      vertex -3.125 5.41266 0
      vertex -1.0853 6.15505 0
    endloop
  endfacet
  facet normal 0 0 -1
    outer loop
      vertex -2.90575 0.746069 0
      vertex -3.125 5.41266 0
      vertex -2.78933 1.10437 0
    endloop
  endfacet
  facet normal 0 0 -1
    outer loop
      vertex -2.97634 0.375999 0
      vertex -3.125 5.41266 0
      vertex -2.90575 0.746069 0
    endloop
  endfacet
  facet normal 0 0 -1
    outer loop
      vertex -3.125 5.41266 0
      vertex -2.97634 0.375999 0
      vertex -3 0 0
    endloop
  endfacet
  facet normal -0.34202 -0.939693 0
    outer loop
      vertex -3.125 -5.41266 0
      vertex -1.0853 -6.15505 7.5
      vertex -3.125 -5.41266 7.5
    endloop
  endfacet
  facet normal -0.34202 -0.939693 -0
    outer loop
      vertex -1.0853 -6.15505 7.5
      vertex -3.125 -5.41266 0
      vertex -1.0853 -6.15505 0
    endloop
  endfacet
  facet normal -0.866025 -0.5 0
    outer loop
      vertex -4.78778 -4.01742 0
      vertex -5.87308 -2.13763 7.5
      vertex -5.87308 -2.13763 0
    endloop
  endfacet
  facet normal -0.866025 -0.5 0
    outer loop
      vertex -5.87308 -2.13763 7.5
      vertex -4.78778 -4.01742 0
      vertex -4.78778 -4.01742 7.5
    endloop
  endfacet
  facet normal -0.984808 -0.173648 0
    outer loop
      vertex -5.87308 -2.13763 0
      vertex -6.25 0 7.5
      vertex -6.25 0 0
    endloop
  endfacet
  facet normal -0.984808 -0.173648 0
    outer loop
      vertex -6.25 0 7.5
      vertex -5.87308 -2.13763 0
      vertex -5.87308 -2.13763 7.5
    endloop
  endfacet
  facet normal 0.642788 -0.766044 0
    outer loop
      vertex 3.125 -5.41266 0
      vertex 4.78778 -4.01742 7.5
      vertex 3.125 -5.41266 7.5
    endloop
  endfacet
  facet normal 0.642788 -0.766044 0
    outer loop
      vertex 4.78778 -4.01742 7.5
      vertex 3.125 -5.41266 0
      vertex 4.78778 -4.01742 0
    endloop
  endfacet
  facet normal -0.642788 -0.766044 0
    outer loop
      vertex -4.78778 -4.01742 0
      vertex -3.125 -5.41266 7.5
      vertex -4.78778 -4.01742 7.5
    endloop
  endfacet
  facet normal -0.642788 -0.766044 -0
    outer loop
      vertex -3.125 -5.41266 7.5
      vertex -4.78778 -4.01742 0
      vertex -3.125 -5.41266 0
    endloop
  endfacet
  facet normal 0.866025 -0.5 0
    outer loop
      vertex 4.78778 -4.01742 7.5
      vertex 5.87308 -2.13763 0
      vertex 5.87308 -2.13763 7.5
    endloop
  endfacet
  facet normal 0.866025 -0.5 0
    outer loop
      vertex 5.87308 -2.13763 0
      vertex 4.78778 -4.01742 7.5
      vertex 4.78778 -4.01742 0
    endloop
  endfacet
  facet normal -0.998027 -0.0627931 0
    outer loop
      vertex 3 0 0
      vertex 2.97634 0.375999 1
      vertex 2.97634 0.375999 0
    endloop
  endfacet
  facet normal -0.998027 -0.0627931 0
    outer loop
      vertex 2.97634 0.375999 1
      vertex 3 0 0
      vertex 3 0 1
    endloop
  endfacet
  facet normal 0.998027 -0.0627931 0
    outer loop
      vertex -3 0 1
      vertex -2.97634 0.375999 0
      vertex -2.97634 0.375999 1
    endloop
  endfacet
  facet normal 0.998027 -0.0627931 0
    outer loop
      vertex -2.97634 0.375999 0
      vertex -3 0 1
      vertex -3 0 0
    endloop
  endfacet
  facet normal 0 -1 0
    outer loop
      vertex -0.188371 2.99408 0
      vertex 0.188371 2.99408 1
      vertex -0.188371 2.99408 1
    endloop
  endfacet
  facet normal 0 -1 -0
    outer loop
      vertex 0.188371 2.99408 1
      vertex -0.188371 2.99408 0
      vertex 0.188371 2.99408 0
    endloop
  endfacet
  facet normal 0 1 -0
    outer loop
      vertex 0.188371 -2.99408 0
      vertex -0.188371 -2.99408 1
      vertex 0.188371 -2.99408 1
    endloop
  endfacet
  facet normal 0 1 0
    outer loop
      vertex -0.188371 -2.99408 1
      vertex 0.188371 -2.99408 0
      vertex -0.188371 -2.99408 0
    endloop
  endfacet
  facet normal -0.684548 -0.728968 0
    outer loop
      vertex 1.91227 2.31154 0
      vertex 2.18691 2.05364 1
      vertex 1.91227 2.31154 1
    endloop
  endfacet
  facet normal -0.684548 -0.728968 -0
    outer loop
      vertex 2.18691 2.05364 1
      vertex 1.91227 2.31154 0
      vertex 2.18691 2.05364 0
    endloop
  endfacet
  facet normal 0.684548 -0.728968 0
    outer loop
      vertex -2.18691 2.05364 0
      vertex -1.91227 2.31154 1
      vertex -2.18691 2.05364 1
    endloop
  endfacet
  facet normal 0.684548 -0.728968 0
    outer loop
      vertex -1.91227 2.31154 1
      vertex -2.18691 2.05364 0
      vertex -1.91227 2.31154 0
    endloop
  endfacet
  facet normal 0.368126 -0.929776 0
    outer loop
      vertex -1.27734 2.71448 0
      vertex -0.927051 2.85317 1
      vertex -1.27734 2.71448 1
    endloop
  endfacet
  facet normal 0.368126 -0.929776 0
    outer loop
      vertex -0.927051 2.85317 1
      vertex -1.27734 2.71448 0
      vertex -0.927051 2.85317 0
    endloop
  endfacet
  facet normal -0.844328 0.535827 0
    outer loop
      vertex 2.42705 -1.76336 0
      vertex 2.62892 -1.44526 1
      vertex 2.62892 -1.44526 0
    endloop
  endfacet
  facet normal -0.844328 0.535827 0
    outer loop
      vertex 2.62892 -1.44526 1
      vertex 2.42705 -1.76336 0
      vertex 2.42705 -1.76336 1
    endloop
  endfacet
  facet normal -0.904828 -0.425778 0
    outer loop
      vertex 2.78933 1.10437 0
      vertex 2.62892 1.44526 1
      vertex 2.62892 1.44526 0
    endloop
  endfacet
  facet normal -0.904828 -0.425778 0
    outer loop
      vertex 2.62892 1.44526 1
      vertex 2.78933 1.10437 0
      vertex 2.78933 1.10437 1
    endloop
  endfacet
  facet normal -0.982288 -0.18738 0
    outer loop
      vertex 2.97634 0.375999 0
      vertex 2.90575 0.746069 1
      vertex 2.90575 0.746069 0
    endloop
  endfacet
  facet normal -0.982288 -0.18738 0
    outer loop
      vertex 2.90575 0.746069 1
      vertex 2.97634 0.375999 0
      vertex 2.97634 0.375999 1
    endloop
  endfacet
  facet normal -0.368126 -0.929776 0
    outer loop
      vertex 0.927051 2.85317 0
      vertex 1.27734 2.71448 1
      vertex 0.927051 2.85317 1
    endloop
  endfacet
  facet normal -0.368126 -0.929776 -0
    outer loop
      vertex 1.27734 2.71448 1
      vertex 0.927051 2.85317 0
      vertex 1.27734 2.71448 0
    endloop
  endfacet
  facet normal -0.248689 -0.968583 0
    outer loop
      vertex 0.562143 2.94686 0
      vertex 0.927051 2.85317 1
      vertex 0.562143 2.94686 1
    endloop
  endfacet
  facet normal -0.248689 -0.968583 -0
    outer loop
      vertex 0.927051 2.85317 1
      vertex 0.562143 2.94686 0
      vertex 0.927051 2.85317 0
    endloop
  endfacet
  facet normal -0.587784 -0.809018 0
    outer loop
      vertex 1.60748 2.53298 0
      vertex 1.91227 2.31154 1
      vertex 1.60748 2.53298 1
    endloop
  endfacet
  facet normal -0.587784 -0.809018 -0
    outer loop
      vertex 1.91227 2.31154 1
      vertex 1.60748 2.53298 0
      vertex 1.91227 2.31154 0
    endloop
  endfacet
  facet normal 0.904828 -0.425778 0
    outer loop
      vertex -2.78933 1.10437 1
      vertex -2.62892 1.44526 0
      vertex -2.62892 1.44526 1
    endloop
  endfacet
  facet normal 0.904828 -0.425778 0
    outer loop
      vertex -2.62892 1.44526 0
      vertex -2.78933 1.10437 1
      vertex -2.78933 1.10437 0
    endloop
  endfacet
  facet normal 0.951056 -0.309019 0
    outer loop
      vertex -2.90575 0.746069 1
      vertex -2.78933 1.10437 0
      vertex -2.78933 1.10437 1
    endloop
  endfacet
  facet normal 0.951056 -0.309019 0
    outer loop
      vertex -2.78933 1.10437 0
      vertex -2.90575 0.746069 1
      vertex -2.90575 0.746069 0
    endloop
  endfacet
  facet normal 0.248689 -0.968583 0
    outer loop
      vertex -0.927051 2.85317 0
      vertex -0.562143 2.94686 1
      vertex -0.927051 2.85317 1
    endloop
  endfacet
  facet normal 0.248689 -0.968583 0
    outer loop
      vertex -0.562143 2.94686 1
      vertex -0.927051 2.85317 0
      vertex -0.562143 2.94686 0
    endloop
  endfacet
  facet normal 0.770513 0.637424 0
    outer loop
      vertex -2.18691 -2.05364 1
      vertex -2.42705 -1.76336 0
      vertex -2.42705 -1.76336 1
    endloop
  endfacet
  facet normal 0.770513 0.637424 0
    outer loop
      vertex -2.42705 -1.76336 0
      vertex -2.18691 -2.05364 1
      vertex -2.18691 -2.05364 0
    endloop
  endfacet
  facet normal -0.125333 0.992115 0
    outer loop
      vertex 0.562143 -2.94686 0
      vertex 0.188371 -2.99408 1
      vertex 0.562143 -2.94686 1
    endloop
  endfacet
  facet normal -0.125333 0.992115 0
    outer loop
      vertex 0.188371 -2.99408 1
      vertex 0.562143 -2.94686 0
      vertex 0.188371 -2.99408 0
    endloop
  endfacet
  facet normal -0.368126 0.929776 0
    outer loop
      vertex 1.27734 -2.71448 0
      vertex 0.927051 -2.85317 1
      vertex 1.27734 -2.71448 1
    endloop
  endfacet
  facet normal -0.368126 0.929776 0
    outer loop
      vertex 0.927051 -2.85317 1
      vertex 1.27734 -2.71448 0
      vertex 0.927051 -2.85317 0
    endloop
  endfacet
  facet normal -0.951056 -0.309019 0
    outer loop
      vertex 2.90575 0.746069 0
      vertex 2.78933 1.10437 1
      vertex 2.78933 1.10437 0
    endloop
  endfacet
  facet normal -0.951056 -0.309019 0
    outer loop
      vertex 2.78933 1.10437 1
      vertex 2.90575 0.746069 0
      vertex 2.90575 0.746069 1
    endloop
  endfacet
  facet normal -0.770513 -0.637424 0
    outer loop
      vertex 2.42705 1.76336 0
      vertex 2.18691 2.05364 1
      vertex 2.18691 2.05364 0
    endloop
  endfacet
  facet normal -0.770513 -0.637424 0
    outer loop
      vertex 2.18691 2.05364 1
      vertex 2.42705 1.76336 0
      vertex 2.42705 1.76336 1
    endloop
  endfacet
  facet normal -0.844328 -0.535827 0
    outer loop
      vertex 2.62892 1.44526 0
      vertex 2.42705 1.76336 1
      vertex 2.42705 1.76336 0
    endloop
  endfacet
  facet normal -0.844328 -0.535827 0
    outer loop
      vertex 2.42705 1.76336 1
      vertex 2.62892 1.44526 0
      vertex 2.62892 1.44526 1
    endloop
  endfacet
  facet normal -0.125333 -0.992115 0
    outer loop
      vertex 0.188371 2.99408 0
      vertex 0.562143 2.94686 1
      vertex 0.188371 2.99408 1
    endloop
  endfacet
  facet normal -0.125333 -0.992115 -0
    outer loop
      vertex 0.562143 2.94686 1
      vertex 0.188371 2.99408 0
      vertex 0.562143 2.94686 0
    endloop
  endfacet
  facet normal -0.481754 -0.876307 0
    outer loop
      vertex 1.27734 2.71448 0
      vertex 1.60748 2.53298 1
      vertex 1.27734 2.71448 1
    endloop
  endfacet
  facet normal -0.481754 -0.876307 -0
    outer loop
      vertex 1.60748 2.53298 1
      vertex 1.27734 2.71448 0
      vertex 1.60748 2.53298 0
    endloop
  endfacet
  facet normal 0.844328 -0.535827 0
    outer loop
      vertex -2.62892 1.44526 1
      vertex -2.42705 1.76336 0
      vertex -2.42705 1.76336 1
    endloop
  endfacet
  facet normal 0.844328 -0.535827 0
    outer loop
      vertex -2.42705 1.76336 0
      vertex -2.62892 1.44526 1
      vertex -2.62892 1.44526 0
    endloop
  endfacet
  facet normal 0.770513 -0.637424 0
    outer loop
      vertex -2.42705 1.76336 1
      vertex -2.18691 2.05364 0
      vertex -2.18691 2.05364 1
    endloop
  endfacet
  facet normal 0.770513 -0.637424 0
    outer loop
      vertex -2.18691 2.05364 0
      vertex -2.42705 1.76336 1
      vertex -2.42705 1.76336 0
    endloop
  endfacet
  facet normal 0.982288 -0.18738 0
    outer loop
      vertex -2.97634 0.375999 1
      vertex -2.90575 0.746069 0
      vertex -2.90575 0.746069 1
    endloop
  endfacet
  facet normal 0.982288 -0.18738 0
    outer loop
      vertex -2.90575 0.746069 0
      vertex -2.97634 0.375999 1
      vertex -2.97634 0.375999 0
    endloop
  endfacet
  facet normal 0.481754 -0.876307 0
    outer loop
      vertex -1.60748 2.53298 0
      vertex -1.27734 2.71448 1
      vertex -1.60748 2.53298 1
    endloop
  endfacet
  facet normal 0.481754 -0.876307 0
    outer loop
      vertex -1.27734 2.71448 1
      vertex -1.60748 2.53298 0
      vertex -1.27734 2.71448 0
    endloop
  endfacet
  facet normal 0.587784 -0.809018 0
    outer loop
      vertex -1.91227 2.31154 0
      vertex -1.60748 2.53298 1
      vertex -1.91227 2.31154 1
    endloop
  endfacet
  facet normal 0.587784 -0.809018 0
    outer loop
      vertex -1.60748 2.53298 1
      vertex -1.91227 2.31154 0
      vertex -1.60748 2.53298 0
    endloop
  endfacet
  facet normal 0.125333 -0.992115 0
    outer loop
      vertex -0.562143 2.94686 0
      vertex -0.188371 2.99408 1
      vertex -0.562143 2.94686 1
    endloop
  endfacet
  facet normal 0.125333 -0.992115 0
    outer loop
      vertex -0.188371 2.99408 1
      vertex -0.562143 2.94686 0
      vertex -0.188371 2.99408 0
    endloop
  endfacet
  facet normal -0.684548 0.728968 0
    outer loop
      vertex 2.18691 -2.05364 0
      vertex 1.91227 -2.31154 1
      vertex 2.18691 -2.05364 1
    endloop
  endfacet
  facet normal -0.684548 0.728968 0
    outer loop
      vertex 1.91227 -2.31154 1
      vertex 2.18691 -2.05364 0
      vertex 1.91227 -2.31154 0
    endloop
  endfacet
  facet normal -0.982288 0.18738 0
    outer loop
      vertex 2.90575 -0.746069 0
      vertex 2.97634 -0.375999 1
      vertex 2.97634 -0.375999 0
    endloop
  endfacet
  facet normal -0.982288 0.18738 0
    outer loop
      vertex 2.97634 -0.375999 1
      vertex 2.90575 -0.746069 0
      vertex 2.90575 -0.746069 1
    endloop
  endfacet
  facet normal -0.904828 0.425778 0
    outer loop
      vertex 2.62892 -1.44526 0
      vertex 2.78933 -1.10437 1
      vertex 2.78933 -1.10437 0
    endloop
  endfacet
  facet normal -0.904828 0.425778 0
    outer loop
      vertex 2.78933 -1.10437 1
      vertex 2.62892 -1.44526 0
      vertex 2.62892 -1.44526 1
    endloop
  endfacet
  facet normal -0.770513 0.637424 0
    outer loop
      vertex 2.18691 -2.05364 0
      vertex 2.42705 -1.76336 1
      vertex 2.42705 -1.76336 0
    endloop
  endfacet
  facet normal -0.770513 0.637424 0
    outer loop
      vertex 2.42705 -1.76336 1
      vertex 2.18691 -2.05364 0
      vertex 2.18691 -2.05364 1
    endloop
  endfacet
  facet normal -0.998027 0.0627931 0
    outer loop
      vertex 2.97634 -0.375999 0
      vertex 3 0 1
      vertex 3 0 0
    endloop
  endfacet
  facet normal -0.998027 0.0627931 0
    outer loop
      vertex 3 0 1
      vertex 2.97634 -0.375999 0
      vertex 2.97634 -0.375999 1
    endloop
  endfacet
  facet normal 0.587784 0.809018 -0
    outer loop
      vertex -1.60748 -2.53298 0
      vertex -1.91227 -2.31154 1
      vertex -1.60748 -2.53298 1
    endloop
  endfacet
  facet normal 0.587784 0.809018 0
    outer loop
      vertex -1.91227 -2.31154 1
      vertex -1.60748 -2.53298 0
      vertex -1.91227 -2.31154 0
    endloop
  endfacet
  facet normal 0.684548 0.728968 -0
    outer loop
      vertex -1.91227 -2.31154 0
      vertex -2.18691 -2.05364 1
      vertex -1.91227 -2.31154 1
    endloop
  endfacet
  facet normal 0.684548 0.728968 0
    outer loop
      vertex -2.18691 -2.05364 1
      vertex -1.91227 -2.31154 0
      vertex -2.18691 -2.05364 0
    endloop
  endfacet
  facet normal 0.844328 0.535827 0
    outer loop
      vertex -2.42705 -1.76336 1
      vertex -2.62892 -1.44526 0
      vertex -2.62892 -1.44526 1
    endloop
  endfacet
  facet normal 0.844328 0.535827 0
    outer loop
      vertex -2.62892 -1.44526 0
      vertex -2.42705 -1.76336 1
      vertex -2.42705 -1.76336 0
    endloop
  endfacet
  facet normal 0.951056 0.309019 0
    outer loop
      vertex -2.78933 -1.10437 1
      vertex -2.90575 -0.746069 0
      vertex -2.90575 -0.746069 1
    endloop
  endfacet
  facet normal 0.951056 0.309019 0
    outer loop
      vertex -2.90575 -0.746069 0
      vertex -2.78933 -1.10437 1
      vertex -2.78933 -1.10437 0
    endloop
  endfacet
  facet normal 0.998027 0.0627931 0
    outer loop
      vertex -2.97634 -0.375999 1
      vertex -3 0 0
      vertex -3 0 1
    endloop
  endfacet
  facet normal 0.998027 0.0627931 0
    outer loop
      vertex -3 0 0
      vertex -2.97634 -0.375999 1
      vertex -2.97634 -0.375999 0
    endloop
  endfacet
  facet normal -0.248689 0.968583 0
    outer loop
      vertex 0.927051 -2.85317 0
      vertex 0.562143 -2.94686 1
      vertex 0.927051 -2.85317 1
    endloop
  endfacet
  facet normal -0.248689 0.968583 0
    outer loop
      vertex 0.562143 -2.94686 1
      vertex 0.927051 -2.85317 0
      vertex 0.562143 -2.94686 0
    endloop
  endfacet
  facet normal -0.587784 0.809018 0
    outer loop
      vertex 1.91227 -2.31154 0
      vertex 1.60748 -2.53298 1
      vertex 1.91227 -2.31154 1
    endloop
  endfacet
  facet normal -0.587784 0.809018 0
    outer loop
      vertex 1.60748 -2.53298 1
      vertex 1.91227 -2.31154 0
      vertex 1.60748 -2.53298 0
    endloop
  endfacet
  facet normal -0.481754 0.876307 0
    outer loop
      vertex 1.60748 -2.53298 0
      vertex 1.27734 -2.71448 1
      vertex 1.60748 -2.53298 1
    endloop
  endfacet
  facet normal -0.481754 0.876307 0
    outer loop
      vertex 1.27734 -2.71448 1
      vertex 1.60748 -2.53298 0
      vertex 1.27734 -2.71448 0
    endloop
  endfacet
  facet normal -0.951056 0.309019 0
    outer loop
      vertex 2.78933 -1.10437 0
      vertex 2.90575 -0.746069 1
      vertex 2.90575 -0.746069 0
    endloop
  endfacet
  facet normal -0.951056 0.309019 0
    outer loop
      vertex 2.90575 -0.746069 1
      vertex 2.78933 -1.10437 0
      vertex 2.78933 -1.10437 1
    endloop
  endfacet
  facet normal 0.248689 0.968583 -0
    outer loop
      vertex -0.562143 -2.94686 0
      vertex -0.927051 -2.85317 1
      vertex -0.562143 -2.94686 1
    endloop
  endfacet
  facet normal 0.248689 0.968583 0
    outer loop
      vertex -0.927051 -2.85317 1
      vertex -0.562143 -2.94686 0
      vertex -0.927051 -2.85317 0
    endloop
  endfacet
  facet normal 0.125333 0.992115 -0
    outer loop
      vertex -0.188371 -2.99408 0
      vertex -0.562143 -2.94686 1
      vertex -0.188371 -2.99408 1
    endloop
  endfacet
  facet normal 0.125333 0.992115 0
    outer loop
      vertex -0.562143 -2.94686 1
      vertex -0.188371 -2.99408 0
      vertex -0.562143 -2.94686 0
    endloop
  endfacet
  facet normal 0.904828 0.425778 0
    outer loop
      vertex -2.62892 -1.44526 1
      vertex -2.78933 -1.10437 0
      vertex -2.78933 -1.10437 1
    endloop
  endfacet
  facet normal 0.904828 0.425778 0
    outer loop
      vertex -2.78933 -1.10437 0
      vertex -2.62892 -1.44526 1
      vertex -2.62892 -1.44526 0
    endloop
  endfacet
  facet normal 0.982288 0.18738 0
    outer loop
      vertex -2.90575 -0.746069 1
      vertex -2.97634 -0.375999 0
      vertex -2.97634 -0.375999 1
    endloop
  endfacet
  facet normal 0.982288 0.18738 0
    outer loop
      vertex -2.97634 -0.375999 0
      vertex -2.90575 -0.746069 1
      vertex -2.90575 -0.746069 0
    endloop
  endfacet
  facet normal 0.368126 0.929776 -0
    outer loop
      vertex -0.927051 -2.85317 0
      vertex -1.27734 -2.71448 1
      vertex -0.927051 -2.85317 1
    endloop
  endfacet
  facet normal 0.368126 0.929776 0
    outer loop
      vertex -1.27734 -2.71448 1
      vertex -0.927051 -2.85317 0
      vertex -1.27734 -2.71448 0
    endloop
  endfacet
  facet normal 0.481754 0.876307 -0
    outer loop
      vertex -1.27734 -2.71448 0
      vertex -1.60748 -2.53298 1
      vertex -1.27734 -2.71448 1
    endloop
  endfacet
  facet normal 0.481754 0.876307 0
    outer loop
      vertex -1.60748 -2.53298 1
      vertex -1.27734 -2.71448 0
      vertex -1.60748 -2.53298 0
    endloop
  endfacet
  facet normal -0.866025 -0.5 0
    outer loop
      vertex 5 0 1
      vertex 2.5 4.33013 7.5
      vertex 2.5 4.33013 1
    endloop
  endfacet
  facet normal -0.866025 -0.5 0
    outer loop
      vertex 2.5 4.33013 7.5
      vertex 5 0 1
      vertex 5 0 7.5
    endloop
  endfacet
  facet normal 0.866025 -0.5 0
    outer loop
      vertex -5 0 7.5
      vertex -2.5 4.33013 1
      vertex -2.5 4.33013 7.5
    endloop
  endfacet
  facet normal 0.866025 -0.5 0
    outer loop
      vertex -2.5 4.33013 1
      vertex -5 0 7.5
      vertex -5 0 1
    endloop
  endfacet
  facet normal 0 -1 0
    outer loop
      vertex -2.5 4.33013 1
      vertex 2.5 4.33013 7.5
      vertex -2.5 4.33013 7.5
    endloop
  endfacet
  facet normal 0 -1 -0
    outer loop
      vertex 2.5 4.33013 7.5
      vertex -2.5 4.33013 1
      vertex 2.5 4.33013 1
    endloop
  endfacet
  facet normal -0.866025 0.5 0
    outer loop
      vertex 2.5 -4.33013 1
      vertex 5 0 7.5
      vertex 5 0 1
    endloop
  endfacet
  facet normal -0.866025 0.5 0
    outer loop
      vertex 5 0 7.5
      vertex 2.5 -4.33013 1
      vertex 2.5 -4.33013 7.5
    endloop
  endfacet
  facet normal 0 0 1
    outer loop
      vertex 5 0 1
      vertex 2.97634 0.375999 1
      vertex 3 0 1
    endloop
  endfacet
  facet normal 0 0 1
    outer loop
      vertex 5 0 1
      vertex 2.90575 0.746069 1
      vertex 2.97634 0.375999 1
    endloop
  endfacet
  facet normal 0 0 1
    outer loop
      vertex 5 0 1
      vertex 2.78933 1.10437 1
      vertex 2.90575 0.746069 1
    endloop
  endfacet
  facet normal 0 0 1
    outer loop
      vertex 5 0 1
      vertex 2.62892 1.44526 1
      vertex 2.78933 1.10437 1
    endloop
  endfacet
  facet normal 0 0 1
    outer loop
      vertex 2.5 4.33013 1
      vertex 2.62892 1.44526 1
      vertex 5 0 1
    endloop
  endfacet
  facet normal 0 0 1
    outer loop
      vertex 2.5 4.33013 1
      vertex 2.42705 1.76336 1
      vertex 2.62892 1.44526 1
    endloop
  endfacet
  facet normal 0 0 1
    outer loop
      vertex 2.5 4.33013 1
      vertex 2.18691 2.05364 1
      vertex 2.42705 1.76336 1
    endloop
  endfacet
  facet normal 0 0 1
    outer loop
      vertex 2.5 4.33013 1
      vertex 1.91227 2.31154 1
      vertex 2.18691 2.05364 1
    endloop
  endfacet
  facet normal 0 0 1
    outer loop
      vertex 2.5 4.33013 1
      vertex 1.60748 2.53298 1
      vertex 1.91227 2.31154 1
    endloop
  endfacet
  facet normal 0 0 1
    outer loop
      vertex 2.5 4.33013 1
      vertex 1.27734 2.71448 1
      vertex 1.60748 2.53298 1
    endloop
  endfacet
  facet normal 0 0 1
    outer loop
      vertex 2.5 4.33013 1
      vertex 0.927051 2.85317 1
      vertex 1.27734 2.71448 1
    endloop
  endfacet
  facet normal 0 0 1
    outer loop
      vertex 2.5 4.33013 1
      vertex 0.562143 2.94686 1
      vertex 0.927051 2.85317 1
    endloop
  endfacet
  facet normal 0 0 1
    outer loop
      vertex 2.5 4.33013 1
      vertex 0.188371 2.99408 1
      vertex 0.562143 2.94686 1
    endloop
  endfacet
  facet normal 0 0 1
    outer loop
      vertex 2.5 4.33013 1
      vertex -0.188371 2.99408 1
      vertex 0.188371 2.99408 1
    endloop
  endfacet
  facet normal -0 0 1
    outer loop
      vertex -2.5 4.33013 1
      vertex -0.188371 2.99408 1
      vertex 2.5 4.33013 1
    endloop
  endfacet
  facet normal 0 0 1
    outer loop
      vertex -0.188371 2.99408 1
      vertex -2.5 4.33013 1
      vertex -0.562143 2.94686 1
    endloop
  endfacet
  facet normal 0 0 1
    outer loop
      vertex -0.562143 2.94686 1
      vertex -2.5 4.33013 1
      vertex -0.927051 2.85317 1
    endloop
  endfacet
  facet normal 0 0 1
    outer loop
      vertex -0.927051 2.85317 1
      vertex -2.5 4.33013 1
      vertex -1.27734 2.71448 1
    endloop
  endfacet
  facet normal 0 0 1
    outer loop
      vertex -2.5 4.33013 1
      vertex -1.60748 2.53298 1
      vertex -1.27734 2.71448 1
    endloop
  endfacet
  facet normal 0 0 1
    outer loop
      vertex -2.5 4.33013 1
      vertex -1.91227 2.31154 1
      vertex -1.60748 2.53298 1
    endloop
  endfacet
  facet normal 0 0 1
    outer loop
      vertex -2.5 4.33013 1
      vertex -2.18691 2.05364 1
      vertex -1.91227 2.31154 1
    endloop
  endfacet
  facet normal 0 0 1
    outer loop
      vertex -2.5 4.33013 1
      vertex -2.42705 1.76336 1
      vertex -2.18691 2.05364 1
    endloop
  endfacet
  facet normal 0 0 1
    outer loop
      vertex -2.5 4.33013 1
      vertex -2.62892 1.44526 1
      vertex -2.42705 1.76336 1
    endloop
  endfacet
  facet normal 0 0 1
    outer loop
      vertex -5 0 1
      vertex -2.62892 1.44526 1
      vertex -2.5 4.33013 1
    endloop
  endfacet
  facet normal 0 0 1
    outer loop
      vertex -2.62892 1.44526 1
      vertex -5 0 1
      vertex -2.78933 1.10437 1
    endloop
  endfacet
  facet normal 0 0 1
    outer loop
      vertex -2.78933 1.10437 1
      vertex -5 0 1
      vertex -2.90575 0.746069 1
    endloop
  endfacet
  facet normal 0 0 1
    outer loop
      vertex -2.97634 0.375999 1
      vertex -5 0 1
      vertex -3 0 1
    endloop
  endfacet
  facet normal 0 0 1
    outer loop
      vertex -2.90575 0.746069 1
      vertex -5 0 1
      vertex -2.97634 0.375999 1
    endloop
  endfacet
  facet normal 0 0 1
    outer loop
      vertex 2.97634 -0.375999 1
      vertex 5 0 1
      vertex 3 0 1
    endloop
  endfacet
  facet normal 0 0 1
    outer loop
      vertex 2.90575 -0.746069 1
      vertex 5 0 1
      vertex 2.97634 -0.375999 1
    endloop
  endfacet
  facet normal 0 0 1
    outer loop
      vertex 2.78933 -1.10437 1
      vertex 5 0 1
      vertex 2.90575 -0.746069 1
    endloop
  endfacet
  facet normal 0 0 1
    outer loop
      vertex 2.62892 -1.44526 1
      vertex 5 0 1
      vertex 2.78933 -1.10437 1
    endloop
  endfacet
  facet normal -0 0 1
    outer loop
      vertex 2.62892 -1.44526 1
      vertex 2.5 -4.33013 1
      vertex 5 0 1
    endloop
  endfacet
  facet normal -0 0 1
    outer loop
      vertex 2.42705 -1.76336 1
      vertex 2.5 -4.33013 1
      vertex 2.62892 -1.44526 1
    endloop
  endfacet
  facet normal -0 0 1
    outer loop
      vertex 2.18691 -2.05364 1
      vertex 2.5 -4.33013 1
      vertex 2.42705 -1.76336 1
    endloop
  endfacet
  facet normal -0 0 1
    outer loop
      vertex 1.91227 -2.31154 1
      vertex 2.5 -4.33013 1
      vertex 2.18691 -2.05364 1
    endloop
  endfacet
  facet normal -0 0 1
    outer loop
      vertex 1.60748 -2.53298 1
      vertex 2.5 -4.33013 1
      vertex 1.91227 -2.31154 1
    endloop
  endfacet
  facet normal -0 0 1
    outer loop
      vertex 1.27734 -2.71448 1
      vertex 2.5 -4.33013 1
      vertex 1.60748 -2.53298 1
    endloop
  endfacet
  facet normal -0 0 1
    outer loop
      vertex 0.927051 -2.85317 1
      vertex 2.5 -4.33013 1
      vertex 1.27734 -2.71448 1
    endloop
  endfacet
  facet normal -0 0 1
    outer loop
      vertex 0.562143 -2.94686 1
      vertex 2.5 -4.33013 1
      vertex 0.927051 -2.85317 1
    endloop
  endfacet
  facet normal -0 0 1
    outer loop
      vertex 0.188371 -2.99408 1
      vertex 2.5 -4.33013 1
      vertex 0.562143 -2.94686 1
    endloop
  endfacet
  facet normal -0 0 1
    outer loop
      vertex -0.188371 -2.99408 1
      vertex 2.5 -4.33013 1
      vertex 0.188371 -2.99408 1
    endloop
  endfacet
  facet normal 0 0 1
    outer loop
      vertex -2.5 -4.33013 1
      vertex -0.188371 -2.99408 1
      vertex -0.562143 -2.94686 1
    endloop
  endfacet
  facet normal 0 0 1
    outer loop
      vertex -2.5 -4.33013 1
      vertex -0.562143 -2.94686 1
      vertex -0.927051 -2.85317 1
    endloop
  endfacet
  facet normal 0 0 1
    outer loop
      vertex -2.5 -4.33013 1
      vertex -0.927051 -2.85317 1
      vertex -1.27734 -2.71448 1
    endloop
  endfacet
  facet normal 0 0 1
    outer loop
      vertex -0.188371 -2.99408 1
      vertex -2.5 -4.33013 1
      vertex 2.5 -4.33013 1
    endloop
  endfacet
  facet normal 0 0 1
    outer loop
      vertex -1.60748 -2.53298 1
      vertex -2.5 -4.33013 1
      vertex -1.27734 -2.71448 1
    endloop
  endfacet
  facet normal 0 0 1
    outer loop
      vertex -1.91227 -2.31154 1
      vertex -2.5 -4.33013 1
      vertex -1.60748 -2.53298 1
    endloop
  endfacet
  facet normal 0 0 1
    outer loop
      vertex -2.18691 -2.05364 1
      vertex -2.5 -4.33013 1
      vertex -1.91227 -2.31154 1
    endloop
  endfacet
  facet normal 0 0 1
    outer loop
      vertex -2.42705 -1.76336 1
      vertex -2.5 -4.33013 1
      vertex -2.18691 -2.05364 1
    endloop
  endfacet
  facet normal 0 0 1
    outer loop
      vertex -2.62892 -1.44526 1
      vertex -2.5 -4.33013 1
      vertex -2.42705 -1.76336 1
    endloop
  endfacet
  facet normal 0 0 1
    outer loop
      vertex -5 0 1
      vertex -2.62892 -1.44526 1
      vertex -2.78933 -1.10437 1
    endloop
  endfacet
  facet normal 0 0 1
    outer loop
      vertex -5 0 1
      vertex -2.78933 -1.10437 1
      vertex -2.90575 -0.746069 1
    endloop
  endfacet
  facet normal 0 0 1
    outer loop
      vertex -5 0 1
      vertex -2.90575 -0.746069 1
      vertex -2.97634 -0.375999 1
    endloop
  endfacet
  facet normal 0 0 1
    outer loop
      vertex -2.62892 -1.44526 1
      vertex -5 0 1
      vertex -2.5 -4.33013 1
    endloop
  endfacet
  facet normal -0 0 1
    outer loop
      vertex -5 0 1
      vertex -2.97634 -0.375999 1
      vertex -3 0 1
    endloop
  endfacet
  facet normal 0 1 -0
    outer loop
      vertex 2.5 -4.33013 1
      vertex -2.5 -4.33013 7.5
      vertex 2.5 -4.33013 7.5
    endloop
  endfacet
  facet normal 0 1 0
    outer loop
      vertex -2.5 -4.33013 7.5
      vertex 2.5 -4.33013 1
      vertex -2.5 -4.33013 1
    endloop
  endfacet
  facet normal 0.866025 0.5 0
    outer loop
      vertex -2.5 -4.33013 7.5
      vertex -5 0 1
      vertex -5 0 7.5
    endloop
  endfacet
  facet normal 0.866025 0.5 0
    outer loop
      vertex -5 0 1
      vertex -2.5 -4.33013 7.5
      vertex -2.5 -4.33013 1
    endloop
  endfacet
  facet normal 0.866025 0.5 0
    outer loop
      vertex 24.5 0 1.8
      vertex 22.25 3.89711 0
      vertex 22.25 3.89711 1.8
    endloop
  endfacet
  facet normal 0.866025 0.5 0
    outer loop
      vertex 22.25 3.89711 0
      vertex 24.5 0 1.8
      vertex 24.5 0 0
    endloop
  endfacet
  facet normal -0.866025 -0.5 0
    outer loop
      vertex 17.75 -3.89711 0
      vertex 15.5 0 1.8
      vertex 15.5 0 0
    endloop
  endfacet
  facet normal -0.866025 -0.5 0
    outer loop
      vertex 15.5 0 1.8
      vertex 17.75 -3.89711 0
      vertex 17.75 -3.89711 1.8
    endloop
  endfacet
  facet normal 0 1 -0
    outer loop
      vertex 22.25 3.89711 0
      vertex 17.75 3.89711 1.8
      vertex 22.25 3.89711 1.8
    endloop
  endfacet
  facet normal 0 1 0
    outer loop
      vertex 17.75 3.89711 1.8
      vertex 22.25 3.89711 0
      vertex 17.75 3.89711 0
    endloop
  endfacet
  facet normal 0 -1 0
    outer loop
      vertex 17.75 -3.89711 0
      vertex 22.25 -3.89711 1.8
      vertex 17.75 -3.89711 1.8
    endloop
  endfacet
  facet normal 0 -1 -0
    outer loop
      vertex 22.25 -3.89711 1.8
      vertex 17.75 -3.89711 0
      vertex 22.25 -3.89711 0
    endloop
  endfacet
  facet normal 0 0 1
    outer loop
      vertex 22.25 3.89711 1.8
      vertex 22.25 -3.89711 1.8
      vertex 24.5 0 1.8
    endloop
  endfacet
  facet normal -0 0 1
    outer loop
      vertex 17.75 3.89711 1.8
      vertex 22.25 -3.89711 1.8
      vertex 22.25 3.89711 1.8
    endloop
  endfacet
  facet normal 0 0 1
    outer loop
      vertex 17.75 3.89711 1.8
      vertex 17.75 -3.89711 1.8
      vertex 22.25 -3.89711 1.8
    endloop
  endfacet
  facet normal 0 -0 1
    outer loop
      vertex 17.75 -3.89711 1.8
      vertex 17.75 3.89711 1.8
      vertex 15.5 0 1.8
    endloop
  endfacet
  facet normal -0.866025 0.5 0
    outer loop
      vertex 15.5 0 0
      vertex 17.75 3.89711 1.8
      vertex 17.75 3.89711 0
    endloop
  endfacet
  facet normal -0.866025 0.5 0
    outer loop
      vertex 17.75 3.89711 1.8
      vertex 15.5 0 0
      vertex 15.5 0 1.8
    endloop
  endfacet
  facet normal 0 0 -1
    outer loop
      vertex 22.25 -3.89711 0
      vertex 22.25 3.89711 0
      vertex 24.5 0 0
    endloop
  endfacet
  facet normal 0 0 -1
    outer loop
      vertex 17.75 -3.89711 0
      vertex 22.25 3.89711 0
      vertex 22.25 -3.89711 0
    endloop
  endfacet
  facet normal 0 0 -1
    outer loop
      vertex 17.75 -3.89711 0
      vertex 17.75 3.89711 0
      vertex 22.25 3.89711 0
    endloop
  endfacet
  facet normal 0 -0 -1
    outer loop
      vertex 17.75 3.89711 0
      vertex 17.75 -3.89711 0
      vertex 15.5 0 0
    endloop
  endfacet
  facet normal 0.866025 -0.5 0
    outer loop
      vertex 22.25 -3.89711 1.8
      vertex 24.5 0 0
      vertex 24.5 0 1.8
    endloop
  endfacet
  facet normal 0.866025 -0.5 0
    outer loop
      vertex 24.5 0 0
      vertex 22.25 -3.89711 1.8
      vertex 22.25 -3.89711 0
    endloop
  endfacet
endsolid OpenSCAD_Model
