solid OpenSCAD_Model
  facet normal -1 0 0
    outer loop
      vertex 1.2 -4 1.2
      vertex 1.2 -2 6.8
      vertex 1.2 -2 1.2
    endloop
  endfacet
  facet normal -1 -0 0
    outer loop
      vertex 1.2 -2 6.8
      vertex 1.2 -4 1.2
      vertex 1.2 -4 6.8
    endloop
  endfacet
  facet normal -0 0 1
    outer loop
      vertex 1.2 -2 6.8
      vertex 19.8 -4 6.8
      vertex 19.8 -2 6.8
    endloop
  endfacet
  facet normal 0 0 1
    outer loop
      vertex 19.8 -4 6.8
      vertex 1.2 -2 6.8
      vertex 1.2 -4 6.8
    endloop
  endfacet
  facet normal 1 -0 0
    outer loop
      vertex 19.8 -4 6.8
      vertex 19.8 -2 1.2
      vertex 19.8 -2 6.8
    endloop
  endfacet
  facet normal 1 0 0
    outer loop
      vertex 19.8 -2 1.2
      vertex 19.8 -4 6.8
      vertex 19.8 -4 1.2
    endloop
  endfacet
  facet normal 0 0 -1
    outer loop
      vertex 1.2 -4 1.2
      vertex 19.8 -2 1.2
      vertex 19.8 -4 1.2
    endloop
  endfacet
  facet normal -0 0 -1
    outer loop
      vertex 19.8 -2 1.2
      vertex 1.2 -4 1.2
      vertex 1.2 -2 1.2
    endloop
  endfacet
  facet normal 0 1 0
    outer loop
      vertex 21 -4 8
      vertex 19.8 -4 6.8
      vertex 0 -4 8
    endloop
  endfacet
  facet normal 0 1 0
    outer loop
      vertex 21 -4 8
      vertex 19.8 -4 1.2
      vertex 19.8 -4 6.8
    endloop
  endfacet
  facet normal 0 1 0
    outer loop
      vertex 19.8 -4 1.2
      vertex 21 -4 0
      vertex 1.2 -4 1.2
    endloop
  endfacet
  facet normal 0 1 -0
    outer loop
      vertex 21 -4 0
      vertex 19.8 -4 1.2
      vertex 21 -4 8
    endloop
  endfacet
  facet normal 0 1 -0
    outer loop
      vertex 1.2 -4 6.8
      vertex 0 -4 8
      vertex 19.8 -4 6.8
    endloop
  endfacet
  facet normal 0 1 -0
    outer loop
      vertex 1.2 -4 1.2
      vertex 0 -4 8
      vertex 1.2 -4 6.8
    endloop
  endfacet
  facet normal 0 1 0
    outer loop
      vertex 1.2 -4 1.2
      vertex 0 -4 0
      vertex 0 -4 8
    endloop
  endfacet
  facet normal 0 1 0
    outer loop
      vertex 0 -4 0
      vertex 1.2 -4 1.2
      vertex 21 -4 0
    endloop
  endfacet
  facet normal 0 1 -0
    outer loop
      vertex 19.8 -2 1.2
      vertex 1.2 -2 6.8
      vertex 19.8 -2 6.8
    endloop
  endfacet
  facet normal 0 1 0
    outer loop
      vertex 1.2 -2 6.8
      vertex 19.8 -2 1.2
      vertex 1.2 -2 1.2
    endloop
  endfacet
  facet normal -1 0 0
    outer loop
      vertex 0 -6 0
      vertex 0 -4 8
      vertex 0 -4 0
    endloop
  endfacet
  facet normal -1 -0 0
    outer loop
      vertex 0 -4 8
      vertex 0 -6 0
      vertex 0 -6 8
    endloop
  endfacet
  facet normal -0 0 1
    outer loop
      vertex 0 -4 8
      vertex 21 -6 8
      vertex 21 -4 8
    endloop
  endfacet
  facet normal 0 0 1
    outer loop
      vertex 21 -6 8
      vertex 0 -4 8
      vertex 0 -6 8
    endloop
  endfacet
  facet normal 1 -0 0
    outer loop
      vertex 21 -6 8
      vertex 21 -4 0
      vertex 21 -4 8
    endloop
  endfacet
  facet normal 1 0 0
    outer loop
      vertex 21 -4 0
      vertex 21 -6 8
      vertex 21 -6 0
    endloop
  endfacet
  facet normal 0 0 -1
    outer loop
      vertex 0 -6 0
      vertex 21 -4 0
      vertex 21 -6 0
    endloop
  endfacet
  facet normal -0 0 -1
    outer loop
      vertex 21 -4 0
      vertex 0 -6 0
      vertex 0 -4 0
    endloop
  endfacet
  facet normal 0 -1 0
    outer loop
      vertex 0 -6 0
      vertex 21 -6 8
      vertex 0 -6 8
    endloop
  endfacet
  facet normal 0 -1 -0
    outer loop
      vertex 21 -6 8
      vertex 0 -6 0
      vertex 21 -6 0
    endloop
  endfacet
endsolid OpenSCAD_Model
