solid OpenSCAD_Model
  facet normal -1 0 0
    outer loop
      vertex 0 0 0
      vertex 0 30 2
      vertex 0 30 0
    endloop
  endfacet
  facet normal -1 -0 0
    outer loop
      vertex 0 30 2
      vertex 0 0 0
      vertex 0 0 2
    endloop
  endfacet
  facet normal 0 0 1
    outer loop
      vertex 22.5 25 2
      vertex 19 20 2
      vertex 22.5 5 2
    endloop
  endfacet
  facet normal 0 0 1
    outer loop
      vertex 22.5 25 2
      vertex 5 20 2
      vertex 19 20 2
    endloop
  endfacet
  facet normal 0 0 1
    outer loop
      vertex 5 20 2
      vertex 1.5 25 2
      vertex 5 10 2
    endloop
  endfacet
  facet normal -0 0 1
    outer loop
      vertex 1.5 25 2
      vertex 5 20 2
      vertex 22.5 25 2
    endloop
  endfacet
  facet normal 0 0 1
    outer loop
      vertex 22.5 25 2
      vertex 24 30 2
      vertex 22.5 28 2
    endloop
  endfacet
  facet normal 0 0 1
    outer loop
      vertex 24 30 2
      vertex 1.5 28 2
      vertex 22.5 28 2
    endloop
  endfacet
  facet normal 0 0 1
    outer loop
      vertex 0 30 2
      vertex 1.5 25 2
      vertex 1.5 28 2
    endloop
  endfacet
  facet normal 0 0 1
    outer loop
      vertex 1.5 25 2
      vertex 0 30 2
      vertex 1.5 5 2
    endloop
  endfacet
  facet normal 0 0 1
    outer loop
      vertex 0 0 2
      vertex 1.5 5 2
      vertex 0 30 2
    endloop
  endfacet
  facet normal -0 0 1
    outer loop
      vertex 0 30 2
      vertex 1.5 28 2
      vertex 24 30 2
    endloop
  endfacet
  facet normal 0 0 1
    outer loop
      vertex 24 30 2
      vertex 22.5 25 2
      vertex 24 0 2
    endloop
  endfacet
  facet normal -0 0 1
    outer loop
      vertex 22.5 5 2
      vertex 24 0 2
      vertex 22.5 25 2
    endloop
  endfacet
  facet normal -0 0 1
    outer loop
      vertex 22.5 2 2
      vertex 24 0 2
      vertex 22.5 5 2
    endloop
  endfacet
  facet normal -0 0 1
    outer loop
      vertex 1.5 2 2
      vertex 24 0 2
      vertex 22.5 2 2
    endloop
  endfacet
  facet normal 0 0 1
    outer loop
      vertex 1.5 2 2
      vertex 0 0 2
      vertex 24 0 2
    endloop
  endfacet
  facet normal 0 0 1
    outer loop
      vertex 1.5 5 2
      vertex 0 0 2
      vertex 1.5 2 2
    endloop
  endfacet
  facet normal -0 0 1
    outer loop
      vertex 19 10 2
      vertex 22.5 5 2
      vertex 19 20 2
    endloop
  endfacet
  facet normal -0 0 1
    outer loop
      vertex 5 10 2
      vertex 22.5 5 2
      vertex 19 10 2
    endloop
  endfacet
  facet normal 0 0 1
    outer loop
      vertex 5 10 2
      vertex 1.5 5 2
      vertex 22.5 5 2
    endloop
  endfacet
  facet normal 0 0 1
    outer loop
      vertex 1.5 5 2
      vertex 5 10 2
      vertex 1.5 25 2
    endloop
  endfacet
  facet normal 1 -0 0
    outer loop
      vertex 24 0 2
      vertex 24 30 0
      vertex 24 30 2
    endloop
  endfacet
  facet normal 1 0 0
    outer loop
      vertex 24 30 0
      vertex 24 0 2
      vertex 24 0 0
    endloop
  endfacet
  facet normal 0 1 -0
    outer loop
      vertex 24 30 0
      vertex 0 30 2
      vertex 24 30 2
    endloop
  endfacet
  facet normal 0 1 0
    outer loop
      vertex 0 30 2
      vertex 24 30 0
      vertex 0 30 0
    endloop
  endfacet
  facet normal 0 0 -1
    outer loop
      vertex 1.5 5 0
      vertex 22.5 25 0
      vertex 22.5 5 0
    endloop
  endfacet
  facet normal -0 0 -1
    outer loop
      vertex 22.5 25 0
      vertex 1.5 5 0
      vertex 1.5 25 0
    endloop
  endfacet
  facet normal 0 0 -1
    outer loop
      vertex 22.5 5 0
      vertex 24 0 0
      vertex 22.5 2 0
    endloop
  endfacet
  facet normal 0 0 -1
    outer loop
      vertex 24 0 0
      vertex 1.5 2 0
      vertex 22.5 2 0
    endloop
  endfacet
  facet normal 0 0 -1
    outer loop
      vertex 0 0 0
      vertex 1.5 5 0
      vertex 1.5 2 0
    endloop
  endfacet
  facet normal -0 0 -1
    outer loop
      vertex 1.5 5 0
      vertex 0 0 0
      vertex 1.5 25 0
    endloop
  endfacet
  facet normal 0 0 -1
    outer loop
      vertex 0 30 0
      vertex 1.5 25 0
      vertex 0 0 0
    endloop
  endfacet
  facet normal 0 0 -1
    outer loop
      vertex 0 0 0
      vertex 1.5 2 0
      vertex 24 0 0
    endloop
  endfacet
  facet normal 0 0 -1
    outer loop
      vertex 24 0 0
      vertex 22.5 5 0
      vertex 24 30 0
    endloop
  endfacet
  facet normal 0 0 -1
    outer loop
      vertex 22.5 25 0
      vertex 24 30 0
      vertex 22.5 5 0
    endloop
  endfacet
  facet normal 0 0 -1
    outer loop
      vertex 22.5 28 0
      vertex 24 30 0
      vertex 22.5 25 0
    endloop
  endfacet
  facet normal 0 0 -1
    outer loop
      vertex 1.5 28 0
      vertex 24 30 0
      vertex 22.5 28 0
    endloop
  endfacet
  facet normal 0 0 -1
    outer loop
      vertex 1.5 28 0
      vertex 0 30 0
      vertex 24 30 0
    endloop
  endfacet
  facet normal 0 0 -1
    outer loop
      vertex 1.5 25 0
      vertex 0 30 0
      vertex 1.5 28 0
    endloop
  endfacet
  facet normal 0 -1 0
    outer loop
      vertex 0 0 0
      vertex 24 0 2
      vertex 0 0 2
    endloop
  endfacet
  facet normal 0 -1 -0
    outer loop
      vertex 24 0 2
      vertex 0 0 0
      vertex 24 0 0
    endloop
  endfacet
  facet normal 1 -0 0
    outer loop
      vertex 1.5 2 2
      vertex 1.5 5 0
      vertex 1.5 5 2
    endloop
  endfacet
  facet normal 1 0 0
    outer loop
      vertex 1.5 5 0
      vertex 1.5 2 2
      vertex 1.5 2 0
    endloop
  endfacet
  facet normal -1 0 0
    outer loop
      vertex 22.5 2 0
      vertex 22.5 5 2
      vertex 22.5 5 0
    endloop
  endfacet
  facet normal -1 -0 0
    outer loop
      vertex 22.5 5 2
      vertex 22.5 2 0
      vertex 22.5 2 2
    endloop
  endfacet
  facet normal 0 1 -0
    outer loop
      vertex 22.5 2 0
      vertex 1.5 2 2
      vertex 22.5 2 2
    endloop
  endfacet
  facet normal 0 1 0
    outer loop
      vertex 1.5 2 2
      vertex 22.5 2 0
      vertex 1.5 2 0
    endloop
  endfacet
  facet normal 0 -1 0
    outer loop
      vertex 1.5 5 0
      vertex 22.5 5 2
      vertex 1.5 5 2
    endloop
  endfacet
  facet normal 0 -1 -0
    outer loop
      vertex 22.5 5 2
      vertex 1.5 5 0
      vertex 22.5 5 0
    endloop
  endfacet
  facet normal 1 -0 0
    outer loop
      vertex 1.5 25 2
      vertex 1.5 28 0
      vertex 1.5 28 2
    endloop
  endfacet
  facet normal 1 0 0
    outer loop
      vertex 1.5 28 0
      vertex 1.5 25 2
      vertex 1.5 25 0
    endloop
  endfacet
  facet normal -1 0 0
    outer loop
      vertex 22.5 25 0
      vertex 22.5 28 2
      vertex 22.5 28 0
    endloop
  endfacet
  facet normal -1 -0 0
    outer loop
      vertex 22.5 28 2
      vertex 22.5 25 0
      vertex 22.5 25 2
    endloop
  endfacet
  facet normal 0 -1 0
    outer loop
      vertex 1.5 28 0
      vertex 22.5 28 2
      vertex 1.5 28 2
    endloop
  endfacet
  facet normal 0 -1 -0
    outer loop
      vertex 22.5 28 2
      vertex 1.5 28 0
      vertex 22.5 28 0
    endloop
  endfacet
  facet normal 0 1 -0
    outer loop
      vertex 22.5 25 0
      vertex 1.5 25 2
      vertex 22.5 25 2
    endloop
  endfacet
  facet normal 0 1 0
    outer loop
      vertex 1.5 25 2
      vertex 22.5 25 0
      vertex 1.5 25 0
    endloop
  endfacet
  facet normal -1 0 0
    outer loop
      vertex 5 10 2
      vertex 5 20 4
      vertex 5 20 2
    endloop
  endfacet
  facet normal -1 -0 0
    outer loop
      vertex 5 20 4
      vertex 5 10 2
      vertex 5 10 4
    endloop
  endfacet
  facet normal -0 0 1
    outer loop
      vertex 5 20 4
      vertex 19 10 4
      vertex 19 20 4
    endloop
  endfacet
  facet normal 0 0 1
    outer loop
      vertex 19 10 4
      vertex 5 20 4
      vertex 5 10 4
    endloop
  endfacet
  facet normal 1 -0 0
    outer loop
      vertex 19 10 4
      vertex 19 20 2
      vertex 19 20 4
    endloop
  endfacet
  facet normal 1 0 0
    outer loop
      vertex 19 20 2
      vertex 19 10 4
      vertex 19 10 2
    endloop
  endfacet
  facet normal 0 1 -0
    outer loop
      vertex 19 20 2
      vertex 5 20 4
      vertex 19 20 4
    endloop
  endfacet
  facet normal 0 1 0
    outer loop
      vertex 5 20 4
      vertex 19 20 2
      vertex 5 20 2
    endloop
  endfacet
  facet normal 0 -1 0
    outer loop
      vertex 5 10 2
      vertex 19 10 4
      vertex 5 10 4
    endloop
  endfacet
  facet normal 0 -1 -0
    outer loop
      vertex 19 10 4
      vertex 5 10 2
      vertex 19 10 2
    endloop
  endfacet
endsolid OpenSCAD_Model
