solid OpenSCAD_Model
  facet normal -1 0 0
    outer loop
      vertex 1.2 -5 1.2
      vertex 1.2 -3 6.8
      vertex 1.2 -3 1.2
    endloop
  endfacet
  facet normal -1 -0 0
    outer loop
      vertex 1.2 -3 6.8
      vertex 1.2 -5 1.2
      vertex 1.2 -5 6.8
    endloop
  endfacet
  facet normal -0 0 1
    outer loop
      vertex 1.2 -3 6.8
      vertex 19.8 -5 6.8
      vertex 19.8 -3 6.8
    endloop
  endfacet
  facet normal 0 0 1
    outer loop
      vertex 19.8 -5 6.8
      vertex 1.2 -3 6.8
      vertex 1.2 -5 6.8
    endloop
  endfacet
  facet normal 1 -0 0
    outer loop
      vertex 19.8 -5 6.8
      vertex 19.8 -3 1.2
      vertex 19.8 -3 6.8
    endloop
  endfacet
  facet normal 1 0 0
    outer loop
      vertex 19.8 -3 1.2
      vertex 19.8 -5 6.8
      vertex 19.8 -5 1.2
    endloop
  endfacet
  facet normal 0 0 -1
    outer loop
      vertex 1.2 -5 1.2
      vertex 19.8 -3 1.2
      vertex 19.8 -5 1.2
    endloop
  endfacet
  facet normal -0 0 -1
    outer loop
      vertex 19.8 -3 1.2
      vertex 1.2 -5 1.2
      vertex 1.2 -3 1.2
    endloop
  endfacet
  facet normal 0 1 0
    outer loop
      vertex 21 -5 8
      vertex 19.8 -5 6.8
      vertex 0 -5 8
    endloop
  endfacet
  facet normal 0 1 0
    outer loop
      vertex 21 -5 8
      vertex 19.8 -5 1.2
      vertex 19.8 -5 6.8
    endloop
  endfacet
  facet normal 0 1 0
    outer loop
      vertex 19.8 -5 1.2
      vertex 21 -5 0
      vertex 1.2 -5 1.2
    endloop
  endfacet
  facet normal 0 1 -0
    outer loop
      vertex 21 -5 0
      vertex 19.8 -5 1.2
      vertex 21 -5 8
    endloop
  endfacet
  facet normal 0 1 -0
    outer loop
      vertex 1.2 -5 6.8
      vertex 0 -5 8
      vertex 19.8 -5 6.8
    endloop
  endfacet
  facet normal 0 1 -0
    outer loop
      vertex 1.2 -5 1.2
      vertex 0 -5 8
      vertex 1.2 -5 6.8
    endloop
  endfacet
  facet normal 0 1 0
    outer loop
      vertex 1.2 -5 1.2
      vertex 0 -5 0
      vertex 0 -5 8
    endloop
  endfacet
  facet normal 0 1 0
    outer loop
      vertex 0 -5 0
      vertex 1.2 -5 1.2
      vertex 21 -5 0
    endloop
  endfacet
  facet normal 0 1 -0
    outer loop
      vertex 19.8 -3 1.2
      vertex 1.2 -3 6.8
      vertex 19.8 -3 6.8
    endloop
  endfacet
  facet normal 0 1 0
    outer loop
      vertex 1.2 -3 6.8
      vertex 19.8 -3 1.2
      vertex 1.2 -3 1.2
    endloop
  endfacet
  facet normal -1 0 0
    outer loop
      vertex 0 -7 0
      vertex 0 -5 8
      vertex 0 -5 0
    endloop
  endfacet
  facet normal -1 -0 0
    outer loop
      vertex 0 -5 8
      vertex 0 -7 0
      vertex 0 -7 8
    endloop
  endfacet
  facet normal -0 0 1
    outer loop
      vertex 0 -5 8
      vertex 21 -7 8
      vertex 21 -5 8
    endloop
  endfacet
  facet normal 0 0 1
    outer loop
      vertex 21 -7 8
      vertex 0 -5 8
      vertex 0 -7 8
    endloop
  endfacet
  facet normal 1 -0 0
    outer loop
      vertex 21 -7 8
      vertex 21 -5 0
      vertex 21 -5 8
    endloop
  endfacet
  facet normal 1 0 0
    outer loop
      vertex 21 -5 0
      vertex 21 -7 8
      vertex 21 -7 0
    endloop
  endfacet
  facet normal 0 0 -1
    outer loop
      vertex 0 -7 0
      vertex 21 -5 0
      vertex 21 -7 0
    endloop
  endfacet
  facet normal -0 0 -1
    outer loop
      vertex 21 -5 0
      vertex 0 -7 0
      vertex 0 -5 0
    endloop
  endfacet
  facet normal 0 -1 0
    outer loop
      vertex 0 -7 0
      vertex 21 -7 8
      vertex 0 -7 8
    endloop
  endfacet
  facet normal 0 -1 -0
    outer loop
      vertex 21 -7 8
      vertex 0 -7 0
      vertex 21 -7 0
    endloop
  endfacet
endsolid OpenSCAD_Model
