solid OpenSCAD_Model
  facet normal -1 0 0
    outer loop
      vertex 1 -4 1
      vertex 1 -2 7
      vertex 1 -2 1
    endloop
  endfacet
  facet normal -1 -0 0
    outer loop
      vertex 1 -2 7
      vertex 1 -4 1
      vertex 1 -4 7
    endloop
  endfacet
  facet normal -0 0 1
    outer loop
      vertex 1 -2 7
      vertex 20 -4 7
      vertex 20 -2 7
    endloop
  endfacet
  facet normal 0 0 1
    outer loop
      vertex 20 -4 7
      vertex 1 -2 7
      vertex 1 -4 7
    endloop
  endfacet
  facet normal 1 -0 0
    outer loop
      vertex 20 -4 7
      vertex 20 -2 1
      vertex 20 -2 7
    endloop
  endfacet
  facet normal 1 0 0
    outer loop
      vertex 20 -2 1
      vertex 20 -4 7
      vertex 20 -4 1
    endloop
  endfacet
  facet normal 0 0 -1
    outer loop
      vertex 1 -4 1
      vertex 20 -2 1
      vertex 20 -4 1
    endloop
  endfacet
  facet normal -0 0 -1
    outer loop
      vertex 20 -2 1
      vertex 1 -4 1
      vertex 1 -2 1
    endloop
  endfacet
  facet normal 0 1 0
    outer loop
      vertex 21 -4 8
      vertex 20 -4 7
      vertex 0 -4 8
    endloop
  endfacet
  facet normal 0 1 0
    outer loop
      vertex 21 -4 8
      vertex 20 -4 1
      vertex 20 -4 7
    endloop
  endfacet
  facet normal 0 1 0
    outer loop
      vertex 20 -4 1
      vertex 21 -4 0
      vertex 1 -4 1
    endloop
  endfacet
  facet normal 0 1 -0
    outer loop
      vertex 21 -4 0
      vertex 20 -4 1
      vertex 21 -4 8
    endloop
  endfacet
  facet normal 0 1 -0
    outer loop
      vertex 1 -4 7
      vertex 0 -4 8
      vertex 20 -4 7
    endloop
  endfacet
  facet normal 0 1 -0
    outer loop
      vertex 1 -4 1
      vertex 0 -4 8
      vertex 1 -4 7
    endloop
  endfacet
  facet normal 0 1 0
    outer loop
      vertex 1 -4 1
      vertex 0 -4 0
      vertex 0 -4 8
    endloop
  endfacet
  facet normal 0 1 0
    outer loop
      vertex 0 -4 0
      vertex 1 -4 1
      vertex 21 -4 0
    endloop
  endfacet
  facet normal 0 1 -0
    outer loop
      vertex 20 -2 1
      vertex 1 -2 7
      vertex 20 -2 7
    endloop
  endfacet
  facet normal 0 1 0
    outer loop
      vertex 1 -2 7
      vertex 20 -2 1
      vertex 1 -2 1
    endloop
  endfacet
  facet normal -1 0 0
    outer loop
      vertex 0 -6 0
      vertex 0 -4 8
      vertex 0 -4 0
    endloop
  endfacet
  facet normal -1 -0 0
    outer loop
      vertex 0 -4 8
      vertex 0 -6 0
      vertex 0 -6 8
    endloop
  endfacet
  facet normal -0 0 1
    outer loop
      vertex 0 -4 8
      vertex 21 -6 8
      vertex 21 -4 8
    endloop
  endfacet
  facet normal 0 0 1
    outer loop
      vertex 21 -6 8
      vertex 0 -4 8
      vertex 0 -6 8
    endloop
  endfacet
  facet normal 1 -0 0
    outer loop
      vertex 21 -6 8
      vertex 21 -4 0
      vertex 21 -4 8
    endloop
  endfacet
  facet normal 1 0 0
    outer loop
      vertex 21 -4 0
      vertex 21 -6 8
      vertex 21 -6 0
    endloop
  endfacet
  facet normal 0 0 -1
    outer loop
      vertex 0 -6 0
      vertex 21 -4 0
      vertex 21 -6 0
    endloop
  endfacet
  facet normal -0 0 -1
    outer loop
      vertex 21 -4 0
      vertex 0 -6 0
      vertex 0 -4 0
    endloop
  endfacet
  facet normal 0 -1 0
    outer loop
      vertex 0 -6 0
      vertex 21 -6 8
      vertex 0 -6 8
    endloop
  endfacet
  facet normal 0 -1 -0
    outer loop
      vertex 21 -6 8
      vertex 0 -6 0
      vertex 21 -6 0
    endloop
  endfacet
endsolid OpenSCAD_Model
