solid OpenSCAD_Model
  facet normal -1 0 0
    outer loop
      vertex 0 0 0
      vertex 0 21.5 8
      vertex 0 21.5 0
    endloop
  endfacet
  facet normal -1 -0 0
    outer loop
      vertex 0 21.5 8
      vertex 0 0 0
      vertex 0 0 8
    endloop
  endfacet
  facet normal -0 0 1
    outer loop
      vertex 0 21.5 8
      vertex 21 0 8
      vertex 21 21.5 8
    endloop
  endfacet
  facet normal 0 0 1
    outer loop
      vertex 21 0 8
      vertex 0 21.5 8
      vertex 0 0 8
    endloop
  endfacet
  facet normal 1 -0 0
    outer loop
      vertex 21 0 8
      vertex 21 21.5 0
      vertex 21 21.5 8
    endloop
  endfacet
  facet normal 1 0 0
    outer loop
      vertex 21 21.5 0
      vertex 21 0 8
      vertex 21 0 0
    endloop
  endfacet
  facet normal 0 1 0
    outer loop
      vertex 21 21.5 8
      vertex 17.25 21.5 4
      vertex 0 21.5 8
    endloop
  endfacet
  facet normal 0 1 -0
    outer loop
      vertex 21 21.5 0
      vertex 17.25 21.5 4
      vertex 21 21.5 8
    endloop
  endfacet
  facet normal 0 1 0
    outer loop
      vertex 17.25 21.5 1
      vertex 21 21.5 0
      vertex 3.75 21.5 1
    endloop
  endfacet
  facet normal 0 1 0
    outer loop
      vertex 17.25 21.5 4
      vertex 21 21.5 0
      vertex 17.25 21.5 1
    endloop
  endfacet
  facet normal 0 1 -0
    outer loop
      vertex 3.75 21.5 4
      vertex 0 21.5 8
      vertex 17.25 21.5 4
    endloop
  endfacet
  facet normal 0 1 0
    outer loop
      vertex 0 21.5 0
      vertex 3.75 21.5 4
      vertex 3.75 21.5 1
    endloop
  endfacet
  facet normal 0 1 0
    outer loop
      vertex 3.75 21.5 4
      vertex 0 21.5 0
      vertex 0 21.5 8
    endloop
  endfacet
  facet normal 0 1 0
    outer loop
      vertex 0 21.5 0
      vertex 3.75 21.5 1
      vertex 21 21.5 0
    endloop
  endfacet
  facet normal 0 0 -1
    outer loop
      vertex 0 0 0
      vertex 21 21.5 0
      vertex 21 0 0
    endloop
  endfacet
  facet normal -0 0 -1
    outer loop
      vertex 21 21.5 0
      vertex 0 0 0
      vertex 0 21.5 0
    endloop
  endfacet
  facet normal 0 -1 0
    outer loop
      vertex 0 0 8
      vertex 1 0 7
      vertex 21 0 8
    endloop
  endfacet
  facet normal 0 -1 0
    outer loop
      vertex 0 0 8
      vertex 1 0 1
      vertex 1 0 7
    endloop
  endfacet
  facet normal 0 -1 -0
    outer loop
      vertex 1 0 1
      vertex 0 0 0
      vertex 20 0 1
    endloop
  endfacet
  facet normal 0 -1 0
    outer loop
      vertex 0 0 0
      vertex 1 0 1
      vertex 0 0 8
    endloop
  endfacet
  facet normal 0 -1 0
    outer loop
      vertex 20 0 7
      vertex 21 0 8
      vertex 1 0 7
    endloop
  endfacet
  facet normal 0 -1 0
    outer loop
      vertex 20 0 1
      vertex 21 0 8
      vertex 20 0 7
    endloop
  endfacet
  facet normal 0 -1 0
    outer loop
      vertex 20 0 1
      vertex 21 0 0
      vertex 21 0 8
    endloop
  endfacet
  facet normal 0 -1 0
    outer loop
      vertex 21 0 0
      vertex 20 0 1
      vertex 0 0 0
    endloop
  endfacet
  facet normal 1 -0 0
    outer loop
      vertex 1 0 7
      vertex 1 19.5 1
      vertex 1 19.5 7
    endloop
  endfacet
  facet normal 1 0 0
    outer loop
      vertex 1 19.5 1
      vertex 1 0 7
      vertex 1 0 1
    endloop
  endfacet
  facet normal 0 0 -1
    outer loop
      vertex 1 0 7
      vertex 20 19.5 7
      vertex 20 0 7
    endloop
  endfacet
  facet normal -0 0 -1
    outer loop
      vertex 20 19.5 7
      vertex 1 0 7
      vertex 1 19.5 7
    endloop
  endfacet
  facet normal -1 0 0
    outer loop
      vertex 20 0 1
      vertex 20 19.5 7
      vertex 20 19.5 1
    endloop
  endfacet
  facet normal -1 -0 0
    outer loop
      vertex 20 19.5 7
      vertex 20 0 1
      vertex 20 0 7
    endloop
  endfacet
  facet normal 0 -1 0
    outer loop
      vertex 1 19.5 7
      vertex 3.75 19.5 4
      vertex 20 19.5 7
    endloop
  endfacet
  facet normal 0 -1 0
    outer loop
      vertex 1 19.5 1
      vertex 3.75 19.5 4
      vertex 1 19.5 7
    endloop
  endfacet
  facet normal 0 -1 -0
    outer loop
      vertex 3.75 19.5 4
      vertex 1 19.5 1
      vertex 3.75 19.5 1
    endloop
  endfacet
  facet normal 0 -1 0
    outer loop
      vertex 17.25 19.5 4
      vertex 20 19.5 7
      vertex 3.75 19.5 4
    endloop
  endfacet
  facet normal 0 -1 0
    outer loop
      vertex 20 19.5 1
      vertex 17.25 19.5 4
      vertex 17.25 19.5 1
    endloop
  endfacet
  facet normal 0 -1 0
    outer loop
      vertex 17.25 19.5 4
      vertex 20 19.5 1
      vertex 20 19.5 7
    endloop
  endfacet
  facet normal 0 0 1
    outer loop
      vertex 17.25 21.5 1
      vertex 3.75 21.5 1
      vertex 17.25 19.5 1
    endloop
  endfacet
  facet normal -0 0 1
    outer loop
      vertex 17.25 19.5 1
      vertex 20 0 1
      vertex 20 19.5 1
    endloop
  endfacet
  facet normal 0 0 1
    outer loop
      vertex 3.75 19.5 1
      vertex 17.25 19.5 1
      vertex 3.75 21.5 1
    endloop
  endfacet
  facet normal 0 0 1
    outer loop
      vertex 17.25 19.5 1
      vertex 3.75 19.5 1
      vertex 20 0 1
    endloop
  endfacet
  facet normal 0 0 1
    outer loop
      vertex 1 0 1
      vertex 3.75 19.5 1
      vertex 1 19.5 1
    endloop
  endfacet
  facet normal 0 0 1
    outer loop
      vertex 3.75 19.5 1
      vertex 1 0 1
      vertex 20 0 1
    endloop
  endfacet
  facet normal 1 -0 0
    outer loop
      vertex 3.75 19.5 4
      vertex 3.75 21.5 1
      vertex 3.75 21.5 4
    endloop
  endfacet
  facet normal 1 0 0
    outer loop
      vertex 3.75 21.5 1
      vertex 3.75 19.5 4
      vertex 3.75 19.5 1
    endloop
  endfacet
  facet normal 0 0 -1
    outer loop
      vertex 3.75 19.5 4
      vertex 17.25 21.5 4
      vertex 17.25 19.5 4
    endloop
  endfacet
  facet normal -0 0 -1
    outer loop
      vertex 17.25 21.5 4
      vertex 3.75 19.5 4
      vertex 3.75 21.5 4
    endloop
  endfacet
  facet normal -1 0 0
    outer loop
      vertex 17.25 19.5 1
      vertex 17.25 21.5 4
      vertex 17.25 21.5 1
    endloop
  endfacet
  facet normal -1 -0 0
    outer loop
      vertex 17.25 21.5 4
      vertex 17.25 19.5 1
      vertex 17.25 19.5 4
    endloop
  endfacet
endsolid OpenSCAD_Model
