solid OpenSCAD_Model
  facet normal -1 0 0
    outer loop
      vertex 0 0 0
      vertex 0 15 10
      vertex 0 15 0
    endloop
  endfacet
  facet normal -1 -0 0
    outer loop
      vertex 0 15 10
      vertex 0 0 0
      vertex 0 0 10
    endloop
  endfacet
  facet normal -0 0 1
    outer loop
      vertex 0 15 10
      vertex 20 0 10
      vertex 20 15 10
    endloop
  endfacet
  facet normal 0 0 1
    outer loop
      vertex 20 0 10
      vertex 0 15 10
      vertex 0 0 10
    endloop
  endfacet
  facet normal 1 -0 0
    outer loop
      vertex 20 0 10
      vertex 20 15 0
      vertex 20 15 10
    endloop
  endfacet
  facet normal 1 0 0
    outer loop
      vertex 20 15 0
      vertex 20 0 10
      vertex 20 0 0
    endloop
  endfacet
  facet normal 0 1 0
    outer loop
      vertex 20 15 10
      vertex 13.5 15 7
      vertex 0 15 10
    endloop
  endfacet
  facet normal 0 1 -0
    outer loop
      vertex 20 15 0
      vertex 13.5 15 7
      vertex 20 15 10
    endloop
  endfacet
  facet normal 0 1 0
    outer loop
      vertex 13.5 15 7
      vertex 20 15 0
      vertex 13.5 15 0
    endloop
  endfacet
  facet normal 0 1 -0
    outer loop
      vertex 6.5 15 7
      vertex 0 15 10
      vertex 13.5 15 7
    endloop
  endfacet
  facet normal 0 1 0
    outer loop
      vertex 0 15 0
      vertex 6.5 15 7
      vertex 6.5 15 0
    endloop
  endfacet
  facet normal 0 1 0
    outer loop
      vertex 6.5 15 7
      vertex 0 15 0
      vertex 0 15 10
    endloop
  endfacet
  facet normal 0 0 -1
    outer loop
      vertex 20 0 0
      vertex 13.5 15 0
      vertex 20 15 0
    endloop
  endfacet
  facet normal 0 0 -1
    outer loop
      vertex 13.5 15 0
      vertex 6.5 15 0
      vertex 13.5 30 0
    endloop
  endfacet
  facet normal 0 0 -1
    outer loop
      vertex 20 0 0
      vertex 6.5 15 0
      vertex 13.5 15 0
    endloop
  endfacet
  facet normal 0 0 -1
    outer loop
      vertex 0 0 0
      vertex 6.5 15 0
      vertex 20 0 0
    endloop
  endfacet
  facet normal -0 0 -1
    outer loop
      vertex 6.5 15 0
      vertex 0 0 0
      vertex 0 15 0
    endloop
  endfacet
  facet normal -0 0 -1
    outer loop
      vertex 13.5 30 0
      vertex 6.5 15 0
      vertex 6.5 30 0
    endloop
  endfacet
  facet normal 0 -1 0
    outer loop
      vertex 0 0 0
      vertex 20 0 10
      vertex 0 0 10
    endloop
  endfacet
  facet normal 0 -1 -0
    outer loop
      vertex 20 0 10
      vertex 0 0 0
      vertex 20 0 0
    endloop
  endfacet
  facet normal -1 0 0
    outer loop
      vertex 6.5 15 0
      vertex 6.5 30 7
      vertex 6.5 30 0
    endloop
  endfacet
  facet normal -1 -0 0
    outer loop
      vertex 6.5 30 7
      vertex 6.5 15 0
      vertex 6.5 15 7
    endloop
  endfacet
  facet normal -0 0 1
    outer loop
      vertex 6.5 30 7
      vertex 13.5 15 7
      vertex 13.5 30 7
    endloop
  endfacet
  facet normal 0 0 1
    outer loop
      vertex 13.5 15 7
      vertex 6.5 30 7
      vertex 6.5 15 7
    endloop
  endfacet
  facet normal 1 -0 0
    outer loop
      vertex 13.5 15 7
      vertex 13.5 30 0
      vertex 13.5 30 7
    endloop
  endfacet
  facet normal 1 0 0
    outer loop
      vertex 13.5 30 0
      vertex 13.5 15 7
      vertex 13.5 15 0
    endloop
  endfacet
  facet normal 0 1 -0
    outer loop
      vertex 13.5 30 0
      vertex 6.5 30 7
      vertex 13.5 30 7
    endloop
  endfacet
  facet normal 0 1 0
    outer loop
      vertex 6.5 30 7
      vertex 13.5 30 0
      vertex 6.5 30 0
    endloop
  endfacet
endsolid OpenSCAD_Model
