solid OpenSCAD_Model
  facet normal 0.951056 0.309017 -0
    outer loop
      vertex 4.83754 0.5 24.5
      vertex 4.04508 2.93893 25
      vertex 4.83754 0.5 25
    endloop
  endfacet
  facet normal 0.951056 0.309017 0
    outer loop
      vertex 4.04508 2.93893 25
      vertex 4.83754 0.5 24.5
      vertex 4.04508 2.93893 14
    endloop
  endfacet
  facet normal 0.951057 0.309017 -0
    outer loop
      vertex 5 0 14
      vertex 4.83754 0.5 24.5
      vertex 5 0 24.5
    endloop
  endfacet
  facet normal 0.951056 0.309017 -2.68272e-009
    outer loop
      vertex 4.83754 0.5 24.5
      vertex 5 0 14
      vertex 4.04508 2.93893 14
    endloop
  endfacet
  facet normal -0.951056 0.309017 0
    outer loop
      vertex -5 0 14
      vertex -4.04508 2.93893 25
      vertex -4.04508 2.93893 14
    endloop
  endfacet
  facet normal -0.951056 0.309017 0
    outer loop
      vertex -4.04508 2.93893 25
      vertex -5 0 14
      vertex -5 0 25
    endloop
  endfacet
  facet normal 0 1 -0
    outer loop
      vertex 1.54508 4.75528 14
      vertex -1.54508 4.75528 25
      vertex 1.54508 4.75528 25
    endloop
  endfacet
  facet normal 0 1 0
    outer loop
      vertex -1.54508 4.75528 25
      vertex 1.54508 4.75528 14
      vertex -1.54508 4.75528 14
    endloop
  endfacet
  facet normal 0.587785 0.809017 -0
    outer loop
      vertex 4.04508 2.93893 14
      vertex 1.54508 4.75528 25
      vertex 4.04508 2.93893 25
    endloop
  endfacet
  facet normal 0.587785 0.809017 0
    outer loop
      vertex 1.54508 4.75528 25
      vertex 4.04508 2.93893 14
      vertex 1.54508 4.75528 14
    endloop
  endfacet
  facet normal 0 0 1
    outer loop
      vertex 0 0.5 25
      vertex 4.04508 2.93893 25
      vertex 1.54508 4.75528 25
    endloop
  endfacet
  facet normal 0 0 1
    outer loop
      vertex 4.04508 2.93893 25
      vertex 0 0.5 25
      vertex 4.83754 0.5 25
    endloop
  endfacet
  facet normal -0 0 1
    outer loop
      vertex -4.04508 2.93893 25
      vertex 0 0.5 25
      vertex -1.54508 4.75528 25
    endloop
  endfacet
  facet normal -0 0 1
    outer loop
      vertex -1.54508 4.75528 25
      vertex 0 0.5 25
      vertex 1.54508 4.75528 25
    endloop
  endfacet
  facet normal -0 0 1
    outer loop
      vertex 0 -0.5 25
      vertex 4.04508 -2.93893 25
      vertex 4.83754 -0.5 25
    endloop
  endfacet
  facet normal 0 0 1
    outer loop
      vertex 4.04508 -2.93893 25
      vertex 0 -0.5 25
      vertex 1.54508 -4.75528 25
    endloop
  endfacet
  facet normal 0 0 1
    outer loop
      vertex 0 -0.5 25
      vertex -1.54508 -4.75528 25
      vertex 1.54508 -4.75528 25
    endloop
  endfacet
  facet normal 0 0 1
    outer loop
      vertex -5 0 25
      vertex 0 0.5 25
      vertex -4.04508 2.93893 25
    endloop
  endfacet
  facet normal 0 0 1
    outer loop
      vertex 0 0.5 25
      vertex -5 0 25
      vertex 0 -0.5 25
    endloop
  endfacet
  facet normal 0 0 1
    outer loop
      vertex 0 -0.5 25
      vertex -4.04508 -2.93893 25
      vertex -1.54508 -4.75528 25
    endloop
  endfacet
  facet normal 0 0 1
    outer loop
      vertex 0 -0.5 25
      vertex -5 0 25
      vertex -4.04508 -2.93893 25
    endloop
  endfacet
  facet normal -0.587785 0.809017 0
    outer loop
      vertex -1.54508 4.75528 14
      vertex -4.04508 2.93893 25
      vertex -1.54508 4.75528 25
    endloop
  endfacet
  facet normal -0.587785 0.809017 0
    outer loop
      vertex -4.04508 2.93893 25
      vertex -1.54508 4.75528 14
      vertex -4.04508 2.93893 14
    endloop
  endfacet
  facet normal 0.951056 -0.309017 0
    outer loop
      vertex 4.83754 -0.5 25
      vertex 4.04508 -2.93893 25
      vertex 4.83754 -0.5 24.5
    endloop
  endfacet
  facet normal 0.951057 -0.309017 0
    outer loop
      vertex 4.83754 -0.5 24.5
      vertex 5 0 14
      vertex 5 0 24.5
    endloop
  endfacet
  facet normal 0.951056 -0.309017 0
    outer loop
      vertex 4.04508 -2.93893 14
      vertex 4.83754 -0.5 24.5
      vertex 4.04508 -2.93893 25
    endloop
  endfacet
  facet normal 0.951056 -0.309017 -2.68272e-009
    outer loop
      vertex 4.83754 -0.5 24.5
      vertex 4.04508 -2.93893 14
      vertex 5 0 14
    endloop
  endfacet
  facet normal -0.951056 -0.309017 0
    outer loop
      vertex -4.04508 -2.93893 14
      vertex -5 0 25
      vertex -5 0 14
    endloop
  endfacet
  facet normal -0.951056 -0.309017 0
    outer loop
      vertex -5 0 25
      vertex -4.04508 -2.93893 14
      vertex -4.04508 -2.93893 25
    endloop
  endfacet
  facet normal 0 -1 0
    outer loop
      vertex -1.54508 -4.75528 14
      vertex 1.54508 -4.75528 25
      vertex -1.54508 -4.75528 25
    endloop
  endfacet
  facet normal 0 -1 -0
    outer loop
      vertex 1.54508 -4.75528 25
      vertex -1.54508 -4.75528 14
      vertex 1.54508 -4.75528 14
    endloop
  endfacet
  facet normal 0.587785 -0.809017 0
    outer loop
      vertex 1.54508 -4.75528 14
      vertex 4.04508 -2.93893 25
      vertex 1.54508 -4.75528 25
    endloop
  endfacet
  facet normal 0.587785 -0.809017 0
    outer loop
      vertex 4.04508 -2.93893 25
      vertex 1.54508 -4.75528 14
      vertex 4.04508 -2.93893 14
    endloop
  endfacet
  facet normal 0 0 -1
    outer loop
      vertex 1.90211 -0.618033 14
      vertex 5 0 14
      vertex 4.04508 -2.93893 14
    endloop
  endfacet
  facet normal 0 0 -1
    outer loop
      vertex 1.99605 0.125581 14
      vertex 5 0 14
      vertex 2 0 14
    endloop
  endfacet
  facet normal -0 0 -1
    outer loop
      vertex 5 0 14
      vertex 1.99605 -0.125581 14
      vertex 2 0 14
    endloop
  endfacet
  facet normal 0 0 -1
    outer loop
      vertex 5 0 14
      vertex 1.98423 -0.250666 14
      vertex 1.99605 -0.125581 14
    endloop
  endfacet
  facet normal 0 0 -1
    outer loop
      vertex 5 0 14
      vertex 1.96457 -0.374763 14
      vertex 1.98423 -0.250666 14
    endloop
  endfacet
  facet normal 0 0 -1
    outer loop
      vertex 5 0 14
      vertex 1.93717 -0.497379 14
      vertex 1.96457 -0.374763 14
    endloop
  endfacet
  facet normal 0 0 -1
    outer loop
      vertex 5 0 14
      vertex 1.90211 -0.618033 14
      vertex 1.93717 -0.497379 14
    endloop
  endfacet
  facet normal 0 0 -1
    outer loop
      vertex 4.04508 -2.93893 14
      vertex 1.85955 -0.736249 14
      vertex 1.90211 -0.618033 14
    endloop
  endfacet
  facet normal 0 0 -1
    outer loop
      vertex 4.04508 -2.93893 14
      vertex 1.80965 -0.851558 14
      vertex 1.85955 -0.736249 14
    endloop
  endfacet
  facet normal 0 0 -1
    outer loop
      vertex 4.04508 -2.93893 14
      vertex 1.75261 -0.963507 14
      vertex 1.80965 -0.851558 14
    endloop
  endfacet
  facet normal 0 0 -1
    outer loop
      vertex 4.04508 -2.93893 14
      vertex 1.68865 -1.07165 14
      vertex 1.75261 -0.963507 14
    endloop
  endfacet
  facet normal 0 0 -1
    outer loop
      vertex 4.04508 -2.93893 14
      vertex 1.61803 -1.17557 14
      vertex 1.68865 -1.07165 14
    endloop
  endfacet
  facet normal 0 0 -1
    outer loop
      vertex 1.17557 -1.61803 14
      vertex 4.04508 -2.93893 14
      vertex 1.54508 -4.75528 14
    endloop
  endfacet
  facet normal 0 0 -1
    outer loop
      vertex 4.04508 -2.93893 14
      vertex 1.54103 -1.27485 14
      vertex 1.61803 -1.17557 14
    endloop
  endfacet
  facet normal 0 0 -1
    outer loop
      vertex 4.04508 -2.93893 14
      vertex 1.45794 -1.36909 14
      vertex 1.54103 -1.27485 14
    endloop
  endfacet
  facet normal 0 0 -1
    outer loop
      vertex 4.04508 -2.93893 14
      vertex 1.36909 -1.45794 14
      vertex 1.45794 -1.36909 14
    endloop
  endfacet
  facet normal 0 0 -1
    outer loop
      vertex 4.04508 -2.93893 14
      vertex 1.27485 -1.54103 14
      vertex 1.36909 -1.45794 14
    endloop
  endfacet
  facet normal 0 0 -1
    outer loop
      vertex 4.04508 -2.93893 14
      vertex 1.17557 -1.61803 14
      vertex 1.27485 -1.54103 14
    endloop
  endfacet
  facet normal 0 0 -1
    outer loop
      vertex 1.54508 -4.75528 14
      vertex 1.07165 -1.68865 14
      vertex 1.17557 -1.61803 14
    endloop
  endfacet
  facet normal 0 0 -1
    outer loop
      vertex 1.54508 -4.75528 14
      vertex 0.963507 -1.75261 14
      vertex 1.07165 -1.68865 14
    endloop
  endfacet
  facet normal 0 0 -1
    outer loop
      vertex 1.54508 -4.75528 14
      vertex 0.851558 -1.80965 14
      vertex 0.963507 -1.75261 14
    endloop
  endfacet
  facet normal 0 0 -1
    outer loop
      vertex 1.54508 -4.75528 14
      vertex 0.736249 -1.85955 14
      vertex 0.851558 -1.80965 14
    endloop
  endfacet
  facet normal 0 0 -1
    outer loop
      vertex 1.54508 -4.75528 14
      vertex 0.618033 -1.90211 14
      vertex 0.736249 -1.85955 14
    endloop
  endfacet
  facet normal 0 0 -1
    outer loop
      vertex 1.54508 -4.75528 14
      vertex 0.497379 -1.93717 14
      vertex 0.618033 -1.90211 14
    endloop
  endfacet
  facet normal 0 0 -1
    outer loop
      vertex 1.54508 -4.75528 14
      vertex 0.374763 -1.96457 14
      vertex 0.497379 -1.93717 14
    endloop
  endfacet
  facet normal 0 0 -1
    outer loop
      vertex 1.54508 -4.75528 14
      vertex 0.250666 -1.98423 14
      vertex 0.374763 -1.96457 14
    endloop
  endfacet
  facet normal 0 0 -1
    outer loop
      vertex 1.54508 -4.75528 14
      vertex 0.125581 -1.99605 14
      vertex 0.250666 -1.98423 14
    endloop
  endfacet
  facet normal 0 0 -1
    outer loop
      vertex 1.54508 -4.75528 14
      vertex 0 -2 14
      vertex 0.125581 -1.99605 14
    endloop
  endfacet
  facet normal 0 0 -1
    outer loop
      vertex -1.54508 -4.75528 14
      vertex 0 -2 14
      vertex 1.54508 -4.75528 14
    endloop
  endfacet
  facet normal -0 0 -1
    outer loop
      vertex 0 -2 14
      vertex -1.54508 -4.75528 14
      vertex -0.125581 -1.99605 14
    endloop
  endfacet
  facet normal -0 0 -1
    outer loop
      vertex -0.125581 -1.99605 14
      vertex -1.54508 -4.75528 14
      vertex -0.250666 -1.98423 14
    endloop
  endfacet
  facet normal -0 0 -1
    outer loop
      vertex -0.250666 -1.98423 14
      vertex -1.54508 -4.75528 14
      vertex -0.374763 -1.96457 14
    endloop
  endfacet
  facet normal -0 0 -1
    outer loop
      vertex -0.374763 -1.96457 14
      vertex -1.54508 -4.75528 14
      vertex -0.497379 -1.93717 14
    endloop
  endfacet
  facet normal -0 0 -1
    outer loop
      vertex -0.497379 -1.93717 14
      vertex -1.54508 -4.75528 14
      vertex -0.618033 -1.90211 14
    endloop
  endfacet
  facet normal -0 0 -1
    outer loop
      vertex -0.618033 -1.90211 14
      vertex -1.54508 -4.75528 14
      vertex -0.736249 -1.85955 14
    endloop
  endfacet
  facet normal -0 0 -1
    outer loop
      vertex -0.736249 -1.85955 14
      vertex -1.54508 -4.75528 14
      vertex -0.851558 -1.80965 14
    endloop
  endfacet
  facet normal -0 0 -1
    outer loop
      vertex -0.851558 -1.80965 14
      vertex -1.54508 -4.75528 14
      vertex -0.963507 -1.75261 14
    endloop
  endfacet
  facet normal -0 0 -1
    outer loop
      vertex -0.963507 -1.75261 14
      vertex -1.54508 -4.75528 14
      vertex -1.07165 -1.68865 14
    endloop
  endfacet
  facet normal -0 0 -1
    outer loop
      vertex -1.07165 -1.68865 14
      vertex -1.54508 -4.75528 14
      vertex -1.17557 -1.61803 14
    endloop
  endfacet
  facet normal 0 0 -1
    outer loop
      vertex -4.04508 -2.93893 14
      vertex -1.17557 -1.61803 14
      vertex -1.54508 -4.75528 14
    endloop
  endfacet
  facet normal -0 0 -1
    outer loop
      vertex -1.17557 -1.61803 14
      vertex -4.04508 -2.93893 14
      vertex -1.27485 -1.54103 14
    endloop
  endfacet
  facet normal -0 0 -1
    outer loop
      vertex -1.27485 -1.54103 14
      vertex -4.04508 -2.93893 14
      vertex -1.36909 -1.45794 14
    endloop
  endfacet
  facet normal -0 0 -1
    outer loop
      vertex -1.36909 -1.45794 14
      vertex -4.04508 -2.93893 14
      vertex -1.45794 -1.36909 14
    endloop
  endfacet
  facet normal -0 0 -1
    outer loop
      vertex -1.45794 -1.36909 14
      vertex -4.04508 -2.93893 14
      vertex -1.54103 -1.27485 14
    endloop
  endfacet
  facet normal -0 0 -1
    outer loop
      vertex -1.54103 -1.27485 14
      vertex -4.04508 -2.93893 14
      vertex -1.61803 -1.17557 14
    endloop
  endfacet
  facet normal -0 0 -1
    outer loop
      vertex -1.61803 -1.17557 14
      vertex -4.04508 -2.93893 14
      vertex -1.68865 -1.07165 14
    endloop
  endfacet
  facet normal -0 0 -1
    outer loop
      vertex -1.68865 -1.07165 14
      vertex -4.04508 -2.93893 14
      vertex -1.75261 -0.963507 14
    endloop
  endfacet
  facet normal -0 0 -1
    outer loop
      vertex -1.75261 -0.963507 14
      vertex -4.04508 -2.93893 14
      vertex -1.80965 -0.851558 14
    endloop
  endfacet
  facet normal -0 0 -1
    outer loop
      vertex -1.80965 -0.851558 14
      vertex -4.04508 -2.93893 14
      vertex -1.85955 -0.736249 14
    endloop
  endfacet
  facet normal -0 0 -1
    outer loop
      vertex -1.85955 -0.736249 14
      vertex -4.04508 -2.93893 14
      vertex -1.90211 -0.618033 14
    endloop
  endfacet
  facet normal 0 0 -1
    outer loop
      vertex -5 0 14
      vertex -1.90211 -0.618033 14
      vertex -4.04508 -2.93893 14
    endloop
  endfacet
  facet normal 0 0 -1
    outer loop
      vertex -1.90211 -0.618033 14
      vertex -5 0 14
      vertex -1.93717 -0.497379 14
    endloop
  endfacet
  facet normal 0 0 -1
    outer loop
      vertex -1.98423 -0.250666 14
      vertex -5 0 14
      vertex -1.99605 -0.125581 14
    endloop
  endfacet
  facet normal 0 0 -1
    outer loop
      vertex -1.96457 -0.374763 14
      vertex -5 0 14
      vertex -1.98423 -0.250666 14
    endloop
  endfacet
  facet normal 0 0 -1
    outer loop
      vertex -1.93717 -0.497379 14
      vertex -5 0 14
      vertex -1.96457 -0.374763 14
    endloop
  endfacet
  facet normal 0 0 -1
    outer loop
      vertex 1.98423 0.250666 14
      vertex 5 0 14
      vertex 1.99605 0.125581 14
    endloop
  endfacet
  facet normal 0 0 -1
    outer loop
      vertex 1.96457 0.374763 14
      vertex 5 0 14
      vertex 1.98423 0.250666 14
    endloop
  endfacet
  facet normal 0 0 -1
    outer loop
      vertex 1.93717 0.497379 14
      vertex 5 0 14
      vertex 1.96457 0.374763 14
    endloop
  endfacet
  facet normal 0 0 -1
    outer loop
      vertex 1.90211 0.618033 14
      vertex 5 0 14
      vertex 1.93717 0.497379 14
    endloop
  endfacet
  facet normal 0 0 -1
    outer loop
      vertex 5 0 14
      vertex 1.90211 0.618033 14
      vertex 4.04508 2.93893 14
    endloop
  endfacet
  facet normal 0 0 -1
    outer loop
      vertex 1.85955 0.736249 14
      vertex 4.04508 2.93893 14
      vertex 1.90211 0.618033 14
    endloop
  endfacet
  facet normal 0 0 -1
    outer loop
      vertex 1.80965 0.851558 14
      vertex 4.04508 2.93893 14
      vertex 1.85955 0.736249 14
    endloop
  endfacet
  facet normal 0 0 -1
    outer loop
      vertex 1.75261 0.963507 14
      vertex 4.04508 2.93893 14
      vertex 1.80965 0.851558 14
    endloop
  endfacet
  facet normal 0 0 -1
    outer loop
      vertex 1.68865 1.07165 14
      vertex 4.04508 2.93893 14
      vertex 1.75261 0.963507 14
    endloop
  endfacet
  facet normal 0 0 -1
    outer loop
      vertex 1.61803 1.17557 14
      vertex 4.04508 2.93893 14
      vertex 1.68865 1.07165 14
    endloop
  endfacet
  facet normal 0 0 -1
    outer loop
      vertex 1.54103 1.27485 14
      vertex 4.04508 2.93893 14
      vertex 1.61803 1.17557 14
    endloop
  endfacet
  facet normal 0 0 -1
    outer loop
      vertex 1.45794 1.36909 14
      vertex 4.04508 2.93893 14
      vertex 1.54103 1.27485 14
    endloop
  endfacet
  facet normal 0 0 -1
    outer loop
      vertex 1.36909 1.45794 14
      vertex 4.04508 2.93893 14
      vertex 1.45794 1.36909 14
    endloop
  endfacet
  facet normal 0 0 -1
    outer loop
      vertex 1.27485 1.54103 14
      vertex 4.04508 2.93893 14
      vertex 1.36909 1.45794 14
    endloop
  endfacet
  facet normal 0 0 -1
    outer loop
      vertex 1.17557 1.61803 14
      vertex 4.04508 2.93893 14
      vertex 1.27485 1.54103 14
    endloop
  endfacet
  facet normal -0 0 -1
    outer loop
      vertex 4.04508 2.93893 14
      vertex 1.17557 1.61803 14
      vertex 1.54508 4.75528 14
    endloop
  endfacet
  facet normal 0 0 -1
    outer loop
      vertex 1.07165 1.68865 14
      vertex 1.54508 4.75528 14
      vertex 1.17557 1.61803 14
    endloop
  endfacet
  facet normal 0 0 -1
    outer loop
      vertex 0.963507 1.75261 14
      vertex 1.54508 4.75528 14
      vertex 1.07165 1.68865 14
    endloop
  endfacet
  facet normal 0 0 -1
    outer loop
      vertex 0.851558 1.80965 14
      vertex 1.54508 4.75528 14
      vertex 0.963507 1.75261 14
    endloop
  endfacet
  facet normal 0 0 -1
    outer loop
      vertex 0.736249 1.85955 14
      vertex 1.54508 4.75528 14
      vertex 0.851558 1.80965 14
    endloop
  endfacet
  facet normal 0 0 -1
    outer loop
      vertex 0.618033 1.90211 14
      vertex 1.54508 4.75528 14
      vertex 0.736249 1.85955 14
    endloop
  endfacet
  facet normal 0 0 -1
    outer loop
      vertex 0.497379 1.93717 14
      vertex 1.54508 4.75528 14
      vertex 0.618033 1.90211 14
    endloop
  endfacet
  facet normal 0 0 -1
    outer loop
      vertex 0.374763 1.96457 14
      vertex 1.54508 4.75528 14
      vertex 0.497379 1.93717 14
    endloop
  endfacet
  facet normal 0 0 -1
    outer loop
      vertex 0.250666 1.98423 14
      vertex 1.54508 4.75528 14
      vertex 0.374763 1.96457 14
    endloop
  endfacet
  facet normal 0 0 -1
    outer loop
      vertex 0.125581 1.99605 14
      vertex 1.54508 4.75528 14
      vertex 0.250666 1.98423 14
    endloop
  endfacet
  facet normal 0 0 -1
    outer loop
      vertex 0 2 14
      vertex 1.54508 4.75528 14
      vertex 0.125581 1.99605 14
    endloop
  endfacet
  facet normal 0 0 -1
    outer loop
      vertex -1.54508 4.75528 14
      vertex 0 2 14
      vertex -0.125581 1.99605 14
    endloop
  endfacet
  facet normal 0 0 -1
    outer loop
      vertex -1.54508 4.75528 14
      vertex -0.125581 1.99605 14
      vertex -0.250666 1.98423 14
    endloop
  endfacet
  facet normal 0 0 -1
    outer loop
      vertex -1.54508 4.75528 14
      vertex -0.250666 1.98423 14
      vertex -0.374763 1.96457 14
    endloop
  endfacet
  facet normal 0 0 -1
    outer loop
      vertex -1.54508 4.75528 14
      vertex -0.374763 1.96457 14
      vertex -0.497379 1.93717 14
    endloop
  endfacet
  facet normal 0 0 -1
    outer loop
      vertex -1.54508 4.75528 14
      vertex -0.497379 1.93717 14
      vertex -0.618033 1.90211 14
    endloop
  endfacet
  facet normal 0 0 -1
    outer loop
      vertex -1.54508 4.75528 14
      vertex -0.618033 1.90211 14
      vertex -0.736249 1.85955 14
    endloop
  endfacet
  facet normal 0 0 -1
    outer loop
      vertex -1.54508 4.75528 14
      vertex -0.736249 1.85955 14
      vertex -0.851558 1.80965 14
    endloop
  endfacet
  facet normal 0 0 -1
    outer loop
      vertex -1.54508 4.75528 14
      vertex -0.851558 1.80965 14
      vertex -0.963507 1.75261 14
    endloop
  endfacet
  facet normal 0 0 -1
    outer loop
      vertex -1.54508 4.75528 14
      vertex -0.963507 1.75261 14
      vertex -1.07165 1.68865 14
    endloop
  endfacet
  facet normal 0 0 -1
    outer loop
      vertex -1.54508 4.75528 14
      vertex -1.07165 1.68865 14
      vertex -1.17557 1.61803 14
    endloop
  endfacet
  facet normal 0 0 -1
    outer loop
      vertex -4.04508 2.93893 14
      vertex -1.17557 1.61803 14
      vertex -1.27485 1.54103 14
    endloop
  endfacet
  facet normal 0 0 -1
    outer loop
      vertex -4.04508 2.93893 14
      vertex -1.27485 1.54103 14
      vertex -1.36909 1.45794 14
    endloop
  endfacet
  facet normal 0 0 -1
    outer loop
      vertex -4.04508 2.93893 14
      vertex -1.36909 1.45794 14
      vertex -1.45794 1.36909 14
    endloop
  endfacet
  facet normal 0 0 -1
    outer loop
      vertex 0 2 14
      vertex -1.54508 4.75528 14
      vertex 1.54508 4.75528 14
    endloop
  endfacet
  facet normal 0 0 -1
    outer loop
      vertex -4.04508 2.93893 14
      vertex -1.45794 1.36909 14
      vertex -1.54103 1.27485 14
    endloop
  endfacet
  facet normal 0 0 -1
    outer loop
      vertex -4.04508 2.93893 14
      vertex -1.54103 1.27485 14
      vertex -1.61803 1.17557 14
    endloop
  endfacet
  facet normal 0 0 -1
    outer loop
      vertex -4.04508 2.93893 14
      vertex -1.61803 1.17557 14
      vertex -1.68865 1.07165 14
    endloop
  endfacet
  facet normal 0 0 -1
    outer loop
      vertex -4.04508 2.93893 14
      vertex -1.68865 1.07165 14
      vertex -1.75261 0.963507 14
    endloop
  endfacet
  facet normal 0 0 -1
    outer loop
      vertex -4.04508 2.93893 14
      vertex -1.75261 0.963507 14
      vertex -1.80965 0.851558 14
    endloop
  endfacet
  facet normal 0 0 -1
    outer loop
      vertex -4.04508 2.93893 14
      vertex -1.80965 0.851558 14
      vertex -1.85955 0.736249 14
    endloop
  endfacet
  facet normal 0 0 -1
    outer loop
      vertex -4.04508 2.93893 14
      vertex -1.85955 0.736249 14
      vertex -1.90211 0.618033 14
    endloop
  endfacet
  facet normal 0 0 -1
    outer loop
      vertex -5 0 14
      vertex -1.90211 0.618033 14
      vertex -1.93717 0.497379 14
    endloop
  endfacet
  facet normal 0 0 -1
    outer loop
      vertex -5 0 14
      vertex -1.93717 0.497379 14
      vertex -1.96457 0.374763 14
    endloop
  endfacet
  facet normal 0 0 -1
    outer loop
      vertex -5 0 14
      vertex -1.96457 0.374763 14
      vertex -1.98423 0.250666 14
    endloop
  endfacet
  facet normal 0 0 -1
    outer loop
      vertex -1.99605 -0.125581 14
      vertex -5 0 14
      vertex -2 0 14
    endloop
  endfacet
  facet normal 0 0 -1
    outer loop
      vertex -2 0 14
      vertex -5 0 14
      vertex -1.99605 0.125581 14
    endloop
  endfacet
  facet normal -0 0 -1
    outer loop
      vertex -1.99605 0.125581 14
      vertex -5 0 14
      vertex -1.98423 0.250666 14
    endloop
  endfacet
  facet normal 0 0 -1
    outer loop
      vertex -1.17557 1.61803 14
      vertex -4.04508 2.93893 14
      vertex -1.54508 4.75528 14
    endloop
  endfacet
  facet normal -0 0 -1
    outer loop
      vertex -1.90211 0.618033 14
      vertex -5 0 14
      vertex -4.04508 2.93893 14
    endloop
  endfacet
  facet normal -0.587785 -0.809017 0
    outer loop
      vertex -4.04508 -2.93893 14
      vertex -1.54508 -4.75528 25
      vertex -4.04508 -2.93893 25
    endloop
  endfacet
  facet normal -0.587785 -0.809017 -0
    outer loop
      vertex -1.54508 -4.75528 25
      vertex -4.04508 -2.93893 14
      vertex -1.54508 -4.75528 14
    endloop
  endfacet
  facet normal 1 -0 0
    outer loop
      vertex 0 -0.5 25
      vertex 0 0.5 24.5
      vertex 0 0.5 25
    endloop
  endfacet
  facet normal 1 0 0
    outer loop
      vertex 0 0.5 24.5
      vertex 0 -0.5 25
      vertex 0 -0.5 24.5
    endloop
  endfacet
  facet normal 0 -1 0
    outer loop
      vertex 0 0.5 24.5
      vertex 4.83754 0.5 25
      vertex 0 0.5 25
    endloop
  endfacet
  facet normal 0 -1 -0
    outer loop
      vertex 4.83754 0.5 25
      vertex 0 0.5 24.5
      vertex 4.83754 0.5 24.5
    endloop
  endfacet
  facet normal 0 0 1
    outer loop
      vertex 4.83754 0.5 24.5
      vertex 4.83754 -0.5 24.5
      vertex 5 0 24.5
    endloop
  endfacet
  facet normal -0 0 1
    outer loop
      vertex 0 0.5 24.5
      vertex 4.83754 -0.5 24.5
      vertex 4.83754 0.5 24.5
    endloop
  endfacet
  facet normal 0 0 1
    outer loop
      vertex 4.83754 -0.5 24.5
      vertex 0 0.5 24.5
      vertex 0 -0.5 24.5
    endloop
  endfacet
  facet normal 0 1 -0
    outer loop
      vertex 4.83754 -0.5 24.5
      vertex 0 -0.5 25
      vertex 4.83754 -0.5 25
    endloop
  endfacet
  facet normal 0 1 0
    outer loop
      vertex 0 -0.5 25
      vertex 4.83754 -0.5 24.5
      vertex 0 -0.5 24.5
    endloop
  endfacet
  facet normal 0.661308 0.750115 -0
    outer loop
      vertex 1.36909 1.45794 4
      vertex 1.27485 1.54103 14
      vertex 1.36909 1.45794 14
    endloop
  endfacet
  facet normal 0.661308 0.750114 5.19607e-009
    outer loop
      vertex 1.3 1.51885 4
      vertex 1.27485 1.54103 14
      vertex 1.36909 1.45794 4
    endloop
  endfacet
  facet normal 0.661307 0.750115 0
    outer loop
      vertex 1.27485 1.54103 0
      vertex 1.3 1.51885 4
      vertex 1.3 1.51885 0
    endloop
  endfacet
  facet normal 0.661307 0.750115 0
    outer loop
      vertex 1.3 1.51885 4
      vertex 1.27485 1.54103 0
      vertex 1.27485 1.54103 14
    endloop
  endfacet
  facet normal -0.33874 0.94088 0
    outer loop
      vertex -0.618033 1.90211 0
      vertex -0.736249 1.85955 14
      vertex -0.618033 1.90211 14
    endloop
  endfacet
  facet normal -0.33874 0.94088 0
    outer loop
      vertex -0.736249 1.85955 14
      vertex -0.618033 1.90211 0
      vertex -0.736249 1.85955 0
    endloop
  endfacet
  facet normal 0.562081 -0.827082 0
    outer loop
      vertex 1.07165 -1.68865 0
      vertex 1.17557 -1.61803 14
      vertex 1.07165 -1.68865 14
    endloop
  endfacet
  facet normal 0.562081 -0.827082 0
    outer loop
      vertex 1.17557 -1.61803 14
      vertex 1.07165 -1.68865 0
      vertex 1.17557 -1.61803 0
    endloop
  endfacet
  facet normal -0.397152 -0.917753 0
    outer loop
      vertex -0.851558 -1.80965 0
      vertex -0.736249 -1.85955 14
      vertex -0.851558 -1.80965 14
    endloop
  endfacet
  facet normal -0.397152 -0.917753 -0
    outer loop
      vertex -0.736249 -1.85955 14
      vertex -0.851558 -1.80965 0
      vertex -0.736249 -1.85955 0
    endloop
  endfacet
  facet normal 0.397152 0.917753 -0
    outer loop
      vertex 0.851558 1.80965 0
      vertex 0.736249 1.85955 14
      vertex 0.851558 1.80965 14
    endloop
  endfacet
  facet normal 0.397152 0.917753 0
    outer loop
      vertex 0.736249 1.85955 14
      vertex 0.851558 1.80965 0
      vertex 0.736249 1.85955 0
    endloop
  endfacet
  facet normal 0.156436 0.987688 -0
    outer loop
      vertex 0.374763 1.96457 0
      vertex 0.250666 1.98423 14
      vertex 0.374763 1.96457 14
    endloop
  endfacet
  facet normal 0.156436 0.987688 0
    outer loop
      vertex 0.250666 1.98423 14
      vertex 0.374763 1.96457 0
      vertex 0.250666 1.98423 0
    endloop
  endfacet
  facet normal -0.156436 0.987688 0
    outer loop
      vertex -0.250666 1.98423 0
      vertex -0.374763 1.96457 14
      vertex -0.250666 1.98423 14
    endloop
  endfacet
  facet normal -0.156436 0.987688 0
    outer loop
      vertex -0.374763 1.96457 14
      vertex -0.250666 1.98423 0
      vertex -0.374763 1.96457 0
    endloop
  endfacet
  facet normal -0.156436 -0.987688 0
    outer loop
      vertex -0.374763 -1.96457 0
      vertex -0.250666 -1.98423 14
      vertex -0.374763 -1.96457 14
    endloop
  endfacet
  facet normal -0.156436 -0.987688 -0
    outer loop
      vertex -0.250666 -1.98423 14
      vertex -0.374763 -1.96457 0
      vertex -0.250666 -1.98423 0
    endloop
  endfacet
  facet normal 0.562081 0.827082 -0
    outer loop
      vertex 1.17557 1.61803 0
      vertex 1.07165 1.68865 14
      vertex 1.17557 1.61803 14
    endloop
  endfacet
  facet normal 0.562081 0.827082 0
    outer loop
      vertex 1.07165 1.68865 14
      vertex 1.17557 1.61803 0
      vertex 1.07165 1.68865 0
    endloop
  endfacet
  facet normal 0.0314165 0.999506 -0
    outer loop
      vertex 0.125581 1.99605 0
      vertex 0 2 14
      vertex 0.125581 1.99605 14
    endloop
  endfacet
  facet normal 0.0314165 0.999506 0
    outer loop
      vertex 0 2 14
      vertex 0.125581 1.99605 0
      vertex 0 2 0
    endloop
  endfacet
  facet normal 0.509044 0.860741 -0
    outer loop
      vertex 1.07165 1.68865 0
      vertex 0.963507 1.75261 14
      vertex 1.07165 1.68865 14
    endloop
  endfacet
  facet normal 0.509044 0.860741 0
    outer loop
      vertex 0.963507 1.75261 14
      vertex 1.07165 1.68865 0
      vertex 0.963507 1.75261 0
    endloop
  endfacet
  facet normal 0.21814 0.975918 -0
    outer loop
      vertex 0.497379 1.93717 0
      vertex 0.374763 1.96457 14
      vertex 0.497379 1.93717 14
    endloop
  endfacet
  facet normal 0.21814 0.975918 0
    outer loop
      vertex 0.374763 1.96457 14
      vertex 0.497379 1.93717 0
      vertex 0.374763 1.96457 0
    endloop
  endfacet
  facet normal -0.0941056 0.995562 0
    outer loop
      vertex -0.125581 1.99605 0
      vertex -0.250666 1.98423 14
      vertex -0.125581 1.99605 14
    endloop
  endfacet
  facet normal -0.0941056 0.995562 0
    outer loop
      vertex -0.250666 1.98423 14
      vertex -0.125581 1.99605 0
      vertex -0.250666 1.98423 0
    endloop
  endfacet
  facet normal -0.21814 0.975918 0
    outer loop
      vertex -0.374763 1.96457 0
      vertex -0.497379 1.93717 14
      vertex -0.374763 1.96457 14
    endloop
  endfacet
  facet normal -0.21814 0.975918 0
    outer loop
      vertex -0.497379 1.93717 14
      vertex -0.374763 1.96457 0
      vertex -0.497379 1.93717 0
    endloop
  endfacet
  facet normal -0.509044 0.860741 0
    outer loop
      vertex -0.963507 1.75261 0
      vertex -1.07165 1.68865 14
      vertex -0.963507 1.75261 14
    endloop
  endfacet
  facet normal -0.509044 0.860741 0
    outer loop
      vertex -1.07165 1.68865 14
      vertex -0.963507 1.75261 0
      vertex -1.07165 1.68865 0
    endloop
  endfacet
  facet normal -0.562081 0.827082 0
    outer loop
      vertex -1.07165 1.68865 0
      vertex -1.17557 1.61803 14
      vertex -1.07165 1.68865 14
    endloop
  endfacet
  facet normal -0.562081 0.827082 0
    outer loop
      vertex -1.17557 1.61803 14
      vertex -1.07165 1.68865 0
      vertex -1.17557 1.61803 0
    endloop
  endfacet
  facet normal -0.453986 0.891009 0
    outer loop
      vertex -0.851558 1.80965 0
      vertex -0.963507 1.75261 14
      vertex -0.851558 1.80965 14
    endloop
  endfacet
  facet normal -0.453986 0.891009 0
    outer loop
      vertex -0.963507 1.75261 14
      vertex -0.851558 1.80965 0
      vertex -0.963507 1.75261 0
    endloop
  endfacet
  facet normal 0.21814 -0.975918 0
    outer loop
      vertex 0.374763 -1.96457 0
      vertex 0.497379 -1.93717 14
      vertex 0.374763 -1.96457 14
    endloop
  endfacet
  facet normal 0.21814 -0.975918 0
    outer loop
      vertex 0.497379 -1.93717 14
      vertex 0.374763 -1.96457 0
      vertex 0.497379 -1.93717 0
    endloop
  endfacet
  facet normal -0.0314165 -0.999506 0
    outer loop
      vertex -0.125581 -1.99605 0
      vertex 0 -2 14
      vertex -0.125581 -1.99605 14
    endloop
  endfacet
  facet normal -0.0314165 -0.999506 -0
    outer loop
      vertex 0 -2 14
      vertex -0.125581 -1.99605 0
      vertex 0 -2 0
    endloop
  endfacet
  facet normal -0.61291 -0.790153 0
    outer loop
      vertex -1.27485 -1.54103 0
      vertex -1.17557 -1.61803 14
      vertex -1.27485 -1.54103 14
    endloop
  endfacet
  facet normal -0.61291 -0.790153 -0
    outer loop
      vertex -1.17557 -1.61803 14
      vertex -1.27485 -1.54103 0
      vertex -1.17557 -1.61803 0
    endloop
  endfacet
  facet normal 0 0 -1
    outer loop
      vertex 1.17557 -1.61803 0
      vertex 1.3 -1.51885 0
      vertex 1.27485 -1.54103 0
    endloop
  endfacet
  facet normal -0 0 -1
    outer loop
      vertex 1.3 -1.51885 0
      vertex 1.17557 -1.61803 0
      vertex 1.3 1.51885 0
    endloop
  endfacet
  facet normal 0 0 -1
    outer loop
      vertex 1.17557 1.61803 0
      vertex 1.3 1.51885 0
      vertex 1.17557 -1.61803 0
    endloop
  endfacet
  facet normal 0 0 -1
    outer loop
      vertex 1.3 1.51885 0
      vertex 1.17557 1.61803 0
      vertex 1.27485 1.54103 0
    endloop
  endfacet
  facet normal 0 0 -1
    outer loop
      vertex 1.07165 -1.68865 0
      vertex 1.17557 1.61803 0
      vertex 1.17557 -1.61803 0
    endloop
  endfacet
  facet normal 0 0 -1
    outer loop
      vertex 1.07165 -1.68865 0
      vertex 1.07165 1.68865 0
      vertex 1.17557 1.61803 0
    endloop
  endfacet
  facet normal 0 0 -1
    outer loop
      vertex 0.963507 -1.75261 0
      vertex 1.07165 1.68865 0
      vertex 1.07165 -1.68865 0
    endloop
  endfacet
  facet normal 0 0 -1
    outer loop
      vertex 0.963507 -1.75261 0
      vertex 0.963507 1.75261 0
      vertex 1.07165 1.68865 0
    endloop
  endfacet
  facet normal 0 0 -1
    outer loop
      vertex 0.851558 -1.80965 0
      vertex 0.963507 1.75261 0
      vertex 0.963507 -1.75261 0
    endloop
  endfacet
  facet normal 0 0 -1
    outer loop
      vertex 0.851558 -1.80965 0
      vertex 0.851558 1.80965 0
      vertex 0.963507 1.75261 0
    endloop
  endfacet
  facet normal 0 0 -1
    outer loop
      vertex 0.736249 -1.85955 0
      vertex 0.851558 1.80965 0
      vertex 0.851558 -1.80965 0
    endloop
  endfacet
  facet normal 0 0 -1
    outer loop
      vertex 0.736249 -1.85955 0
      vertex 0.736249 1.85955 0
      vertex 0.851558 1.80965 0
    endloop
  endfacet
  facet normal 0 0 -1
    outer loop
      vertex 0.618033 -1.90211 0
      vertex 0.736249 1.85955 0
      vertex 0.736249 -1.85955 0
    endloop
  endfacet
  facet normal 0 0 -1
    outer loop
      vertex 0.618033 -1.90211 0
      vertex 0.618033 1.90211 0
      vertex 0.736249 1.85955 0
    endloop
  endfacet
  facet normal 0 0 -1
    outer loop
      vertex 0.497379 -1.93717 0
      vertex 0.618033 1.90211 0
      vertex 0.618033 -1.90211 0
    endloop
  endfacet
  facet normal 0 0 -1
    outer loop
      vertex 0.497379 -1.93717 0
      vertex 0.497379 1.93717 0
      vertex 0.618033 1.90211 0
    endloop
  endfacet
  facet normal 0 0 -1
    outer loop
      vertex 0.374763 -1.96457 0
      vertex 0.497379 1.93717 0
      vertex 0.497379 -1.93717 0
    endloop
  endfacet
  facet normal 0 0 -1
    outer loop
      vertex 0.374763 -1.96457 0
      vertex 0.374763 1.96457 0
      vertex 0.497379 1.93717 0
    endloop
  endfacet
  facet normal 0 0 -1
    outer loop
      vertex 0.250666 -1.98423 0
      vertex 0.374763 1.96457 0
      vertex 0.374763 -1.96457 0
    endloop
  endfacet
  facet normal 0 0 -1
    outer loop
      vertex 0.250666 -1.98423 0
      vertex 0.250666 1.98423 0
      vertex 0.374763 1.96457 0
    endloop
  endfacet
  facet normal 0 0 -1
    outer loop
      vertex 0.125581 -1.99605 0
      vertex 0.250666 1.98423 0
      vertex 0.250666 -1.98423 0
    endloop
  endfacet
  facet normal 0 0 -1
    outer loop
      vertex 0.125581 -1.99605 0
      vertex 0.125581 1.99605 0
      vertex 0.250666 1.98423 0
    endloop
  endfacet
  facet normal 0 0 -1
    outer loop
      vertex 0 -2 0
      vertex 0.125581 1.99605 0
      vertex 0.125581 -1.99605 0
    endloop
  endfacet
  facet normal 0 0 -1
    outer loop
      vertex 0 -2 0
      vertex 0 2 0
      vertex 0.125581 1.99605 0
    endloop
  endfacet
  facet normal 0 0 -1
    outer loop
      vertex -0.125581 -1.99605 0
      vertex 0 2 0
      vertex 0 -2 0
    endloop
  endfacet
  facet normal 0 0 -1
    outer loop
      vertex -0.125581 -1.99605 0
      vertex -0.125581 1.99605 0
      vertex 0 2 0
    endloop
  endfacet
  facet normal 0 0 -1
    outer loop
      vertex -0.250666 -1.98423 0
      vertex -0.125581 1.99605 0
      vertex -0.125581 -1.99605 0
    endloop
  endfacet
  facet normal 0 0 -1
    outer loop
      vertex -0.250666 -1.98423 0
      vertex -0.250666 1.98423 0
      vertex -0.125581 1.99605 0
    endloop
  endfacet
  facet normal 0 0 -1
    outer loop
      vertex -0.374763 -1.96457 0
      vertex -0.250666 1.98423 0
      vertex -0.250666 -1.98423 0
    endloop
  endfacet
  facet normal 0 0 -1
    outer loop
      vertex -0.374763 -1.96457 0
      vertex -0.374763 1.96457 0
      vertex -0.250666 1.98423 0
    endloop
  endfacet
  facet normal 0 0 -1
    outer loop
      vertex -0.497379 -1.93717 0
      vertex -0.374763 1.96457 0
      vertex -0.374763 -1.96457 0
    endloop
  endfacet
  facet normal 0 0 -1
    outer loop
      vertex -0.497379 -1.93717 0
      vertex -0.497379 1.93717 0
      vertex -0.374763 1.96457 0
    endloop
  endfacet
  facet normal 0 0 -1
    outer loop
      vertex -0.618033 -1.90211 0
      vertex -0.497379 1.93717 0
      vertex -0.497379 -1.93717 0
    endloop
  endfacet
  facet normal 0 0 -1
    outer loop
      vertex -0.618033 -1.90211 0
      vertex -0.618033 1.90211 0
      vertex -0.497379 1.93717 0
    endloop
  endfacet
  facet normal 0 0 -1
    outer loop
      vertex -0.736249 -1.85955 0
      vertex -0.618033 1.90211 0
      vertex -0.618033 -1.90211 0
    endloop
  endfacet
  facet normal 0 0 -1
    outer loop
      vertex -0.736249 -1.85955 0
      vertex -0.736249 1.85955 0
      vertex -0.618033 1.90211 0
    endloop
  endfacet
  facet normal 0 0 -1
    outer loop
      vertex -0.851558 -1.80965 0
      vertex -0.736249 1.85955 0
      vertex -0.736249 -1.85955 0
    endloop
  endfacet
  facet normal 0 0 -1
    outer loop
      vertex -0.851558 -1.80965 0
      vertex -0.851558 1.80965 0
      vertex -0.736249 1.85955 0
    endloop
  endfacet
  facet normal 0 0 -1
    outer loop
      vertex -0.963507 -1.75261 0
      vertex -0.851558 1.80965 0
      vertex -0.851558 -1.80965 0
    endloop
  endfacet
  facet normal 0 0 -1
    outer loop
      vertex -0.963507 -1.75261 0
      vertex -0.963507 1.75261 0
      vertex -0.851558 1.80965 0
    endloop
  endfacet
  facet normal 0 0 -1
    outer loop
      vertex -1.07165 -1.68865 0
      vertex -0.963507 1.75261 0
      vertex -0.963507 -1.75261 0
    endloop
  endfacet
  facet normal 0 0 -1
    outer loop
      vertex -1.07165 -1.68865 0
      vertex -1.07165 1.68865 0
      vertex -0.963507 1.75261 0
    endloop
  endfacet
  facet normal 0 0 -1
    outer loop
      vertex -1.17557 -1.61803 0
      vertex -1.07165 1.68865 0
      vertex -1.07165 -1.68865 0
    endloop
  endfacet
  facet normal 0 0 -1
    outer loop
      vertex -1.17557 -1.61803 0
      vertex -1.17557 1.61803 0
      vertex -1.07165 1.68865 0
    endloop
  endfacet
  facet normal 0 0 -1
    outer loop
      vertex -1.3 -1.51885 0
      vertex -1.17557 -1.61803 0
      vertex -1.27485 -1.54103 0
    endloop
  endfacet
  facet normal 0 0 -1
    outer loop
      vertex -1.17557 -1.61803 0
      vertex -1.3 -1.51885 0
      vertex -1.17557 1.61803 0
    endloop
  endfacet
  facet normal 0 0 -1
    outer loop
      vertex -1.3 1.51885 0
      vertex -1.17557 1.61803 0
      vertex -1.3 -1.51885 0
    endloop
  endfacet
  facet normal 0 0 -1
    outer loop
      vertex -1.17557 1.61803 0
      vertex -1.3 1.51885 0
      vertex -1.27485 1.54103 0
    endloop
  endfacet
  facet normal 0.61291 0.790153 -0
    outer loop
      vertex 1.27485 1.54103 0
      vertex 1.17557 1.61803 14
      vertex 1.27485 1.54103 14
    endloop
  endfacet
  facet normal 0.61291 0.790153 0
    outer loop
      vertex 1.17557 1.61803 14
      vertex 1.27485 1.54103 0
      vertex 1.17557 1.61803 0
    endloop
  endfacet
  facet normal 0.453986 0.891009 -0
    outer loop
      vertex 0.963507 1.75261 0
      vertex 0.851558 1.80965 14
      vertex 0.963507 1.75261 14
    endloop
  endfacet
  facet normal 0.453986 0.891009 0
    outer loop
      vertex 0.851558 1.80965 14
      vertex 0.963507 1.75261 0
      vertex 0.851558 1.80965 0
    endloop
  endfacet
  facet normal 0.278991 0.960294 -0
    outer loop
      vertex 0.618033 1.90211 0
      vertex 0.497379 1.93717 14
      vertex 0.618033 1.90211 14
    endloop
  endfacet
  facet normal 0.278991 0.960294 0
    outer loop
      vertex 0.497379 1.93717 14
      vertex 0.618033 1.90211 0
      vertex 0.497379 1.93717 0
    endloop
  endfacet
  facet normal 0.33874 0.94088 -0
    outer loop
      vertex 0.736249 1.85955 0
      vertex 0.618033 1.90211 14
      vertex 0.736249 1.85955 14
    endloop
  endfacet
  facet normal 0.33874 0.94088 0
    outer loop
      vertex 0.618033 1.90211 14
      vertex 0.736249 1.85955 0
      vertex 0.618033 1.90211 0
    endloop
  endfacet
  facet normal 0.0941056 0.995562 -0
    outer loop
      vertex 0.250666 1.98423 0
      vertex 0.125581 1.99605 14
      vertex 0.250666 1.98423 14
    endloop
  endfacet
  facet normal 0.0941056 0.995562 0
    outer loop
      vertex 0.125581 1.99605 14
      vertex 0.250666 1.98423 0
      vertex 0.125581 1.99605 0
    endloop
  endfacet
  facet normal 0 0 -1
    outer loop
      vertex 1.99605 -0.125581 4
      vertex 1.99605 0.125581 4
      vertex 2 0 4
    endloop
  endfacet
  facet normal 0 0 -1
    outer loop
      vertex 1.98423 -0.250666 4
      vertex 1.99605 0.125581 4
      vertex 1.99605 -0.125581 4
    endloop
  endfacet
  facet normal 0 0 -1
    outer loop
      vertex 1.98423 -0.250666 4
      vertex 1.98423 0.250666 4
      vertex 1.99605 0.125581 4
    endloop
  endfacet
  facet normal 0 0 -1
    outer loop
      vertex 1.96457 -0.374763 4
      vertex 1.98423 0.250666 4
      vertex 1.98423 -0.250666 4
    endloop
  endfacet
  facet normal 0 0 -1
    outer loop
      vertex 1.96457 -0.374763 4
      vertex 1.96457 0.374763 4
      vertex 1.98423 0.250666 4
    endloop
  endfacet
  facet normal 0 0 -1
    outer loop
      vertex 1.93717 -0.497379 4
      vertex 1.96457 0.374763 4
      vertex 1.96457 -0.374763 4
    endloop
  endfacet
  facet normal 0 0 -1
    outer loop
      vertex 1.93717 -0.497379 4
      vertex 1.93717 0.497379 4
      vertex 1.96457 0.374763 4
    endloop
  endfacet
  facet normal 0 0 -1
    outer loop
      vertex 1.90211 -0.618033 4
      vertex 1.93717 0.497379 4
      vertex 1.93717 -0.497379 4
    endloop
  endfacet
  facet normal 0 0 -1
    outer loop
      vertex 1.90211 -0.618033 4
      vertex 1.90211 0.618033 4
      vertex 1.93717 0.497379 4
    endloop
  endfacet
  facet normal 0 0 -1
    outer loop
      vertex 1.85955 -0.736249 4
      vertex 1.90211 0.618033 4
      vertex 1.90211 -0.618033 4
    endloop
  endfacet
  facet normal 0 0 -1
    outer loop
      vertex 1.85955 -0.736249 4
      vertex 1.85955 0.736249 4
      vertex 1.90211 0.618033 4
    endloop
  endfacet
  facet normal 0 0 -1
    outer loop
      vertex 1.80965 -0.851558 4
      vertex 1.85955 0.736249 4
      vertex 1.85955 -0.736249 4
    endloop
  endfacet
  facet normal 0 0 -1
    outer loop
      vertex 1.80965 -0.851558 4
      vertex 1.80965 0.851558 4
      vertex 1.85955 0.736249 4
    endloop
  endfacet
  facet normal 0 0 -1
    outer loop
      vertex 1.75261 -0.963507 4
      vertex 1.80965 0.851558 4
      vertex 1.80965 -0.851558 4
    endloop
  endfacet
  facet normal 0 0 -1
    outer loop
      vertex 1.75261 -0.963507 4
      vertex 1.75261 0.963507 4
      vertex 1.80965 0.851558 4
    endloop
  endfacet
  facet normal 0 0 -1
    outer loop
      vertex 1.68865 -1.07165 4
      vertex 1.75261 0.963507 4
      vertex 1.75261 -0.963507 4
    endloop
  endfacet
  facet normal 0 0 -1
    outer loop
      vertex 1.68865 -1.07165 4
      vertex 1.68865 1.07165 4
      vertex 1.75261 0.963507 4
    endloop
  endfacet
  facet normal 0 0 -1
    outer loop
      vertex 1.61803 -1.17557 4
      vertex 1.68865 1.07165 4
      vertex 1.68865 -1.07165 4
    endloop
  endfacet
  facet normal 0 0 -1
    outer loop
      vertex 1.61803 -1.17557 4
      vertex 1.61803 1.17557 4
      vertex 1.68865 1.07165 4
    endloop
  endfacet
  facet normal 0 0 -1
    outer loop
      vertex 1.54103 -1.27485 4
      vertex 1.61803 1.17557 4
      vertex 1.61803 -1.17557 4
    endloop
  endfacet
  facet normal 0 0 -1
    outer loop
      vertex 1.54103 -1.27485 4
      vertex 1.54103 1.27485 4
      vertex 1.61803 1.17557 4
    endloop
  endfacet
  facet normal 0 0 -1
    outer loop
      vertex 1.45794 -1.36909 4
      vertex 1.54103 1.27485 4
      vertex 1.54103 -1.27485 4
    endloop
  endfacet
  facet normal 0 0 -1
    outer loop
      vertex 1.45794 -1.36909 4
      vertex 1.45794 1.36909 4
      vertex 1.54103 1.27485 4
    endloop
  endfacet
  facet normal 0 0 -1
    outer loop
      vertex 1.36909 -1.45794 4
      vertex 1.45794 1.36909 4
      vertex 1.45794 -1.36909 4
    endloop
  endfacet
  facet normal 0 0 -1
    outer loop
      vertex 1.36909 -1.45794 4
      vertex 1.36909 1.45794 4
      vertex 1.45794 1.36909 4
    endloop
  endfacet
  facet normal 0 0 -1
    outer loop
      vertex 1.3 -1.51885 4
      vertex 1.36909 1.45794 4
      vertex 1.36909 -1.45794 4
    endloop
  endfacet
  facet normal -0 0 -1
    outer loop
      vertex 1.36909 1.45794 4
      vertex 1.3 -1.51885 4
      vertex 1.3 1.51885 4
    endloop
  endfacet
  facet normal 0 0 -1
    outer loop
      vertex -1.36909 -1.45794 4
      vertex -1.3 1.51885 4
      vertex -1.3 -1.51885 4
    endloop
  endfacet
  facet normal 0 0 -1
    outer loop
      vertex -1.36909 -1.45794 4
      vertex -1.36909 1.45794 4
      vertex -1.3 1.51885 4
    endloop
  endfacet
  facet normal 0 0 -1
    outer loop
      vertex -1.45794 -1.36909 4
      vertex -1.36909 1.45794 4
      vertex -1.36909 -1.45794 4
    endloop
  endfacet
  facet normal 0 0 -1
    outer loop
      vertex -1.45794 -1.36909 4
      vertex -1.45794 1.36909 4
      vertex -1.36909 1.45794 4
    endloop
  endfacet
  facet normal 0 0 -1
    outer loop
      vertex -1.54103 -1.27485 4
      vertex -1.45794 1.36909 4
      vertex -1.45794 -1.36909 4
    endloop
  endfacet
  facet normal 0 0 -1
    outer loop
      vertex -1.54103 -1.27485 4
      vertex -1.54103 1.27485 4
      vertex -1.45794 1.36909 4
    endloop
  endfacet
  facet normal 0 0 -1
    outer loop
      vertex -1.61803 -1.17557 4
      vertex -1.54103 1.27485 4
      vertex -1.54103 -1.27485 4
    endloop
  endfacet
  facet normal 0 0 -1
    outer loop
      vertex -1.61803 -1.17557 4
      vertex -1.61803 1.17557 4
      vertex -1.54103 1.27485 4
    endloop
  endfacet
  facet normal 0 0 -1
    outer loop
      vertex -1.68865 -1.07165 4
      vertex -1.61803 1.17557 4
      vertex -1.61803 -1.17557 4
    endloop
  endfacet
  facet normal 0 0 -1
    outer loop
      vertex -1.68865 -1.07165 4
      vertex -1.68865 1.07165 4
      vertex -1.61803 1.17557 4
    endloop
  endfacet
  facet normal 0 0 -1
    outer loop
      vertex -1.75261 -0.963507 4
      vertex -1.68865 1.07165 4
      vertex -1.68865 -1.07165 4
    endloop
  endfacet
  facet normal 0 0 -1
    outer loop
      vertex -1.75261 -0.963507 4
      vertex -1.75261 0.963507 4
      vertex -1.68865 1.07165 4
    endloop
  endfacet
  facet normal 0 0 -1
    outer loop
      vertex -1.80965 -0.851558 4
      vertex -1.75261 0.963507 4
      vertex -1.75261 -0.963507 4
    endloop
  endfacet
  facet normal 0 0 -1
    outer loop
      vertex -1.80965 -0.851558 4
      vertex -1.80965 0.851558 4
      vertex -1.75261 0.963507 4
    endloop
  endfacet
  facet normal 0 0 -1
    outer loop
      vertex -1.85955 -0.736249 4
      vertex -1.80965 0.851558 4
      vertex -1.80965 -0.851558 4
    endloop
  endfacet
  facet normal 0 0 -1
    outer loop
      vertex -1.85955 -0.736249 4
      vertex -1.85955 0.736249 4
      vertex -1.80965 0.851558 4
    endloop
  endfacet
  facet normal 0 0 -1
    outer loop
      vertex -1.90211 -0.618033 4
      vertex -1.85955 0.736249 4
      vertex -1.85955 -0.736249 4
    endloop
  endfacet
  facet normal 0 0 -1
    outer loop
      vertex -1.90211 -0.618033 4
      vertex -1.90211 0.618033 4
      vertex -1.85955 0.736249 4
    endloop
  endfacet
  facet normal 0 0 -1
    outer loop
      vertex -1.93717 -0.497379 4
      vertex -1.90211 0.618033 4
      vertex -1.90211 -0.618033 4
    endloop
  endfacet
  facet normal 0 0 -1
    outer loop
      vertex -1.93717 -0.497379 4
      vertex -1.93717 0.497379 4
      vertex -1.90211 0.618033 4
    endloop
  endfacet
  facet normal 0 0 -1
    outer loop
      vertex -1.96457 -0.374763 4
      vertex -1.93717 0.497379 4
      vertex -1.93717 -0.497379 4
    endloop
  endfacet
  facet normal 0 0 -1
    outer loop
      vertex -1.96457 -0.374763 4
      vertex -1.96457 0.374763 4
      vertex -1.93717 0.497379 4
    endloop
  endfacet
  facet normal 0 0 -1
    outer loop
      vertex -1.98423 -0.250666 4
      vertex -1.96457 0.374763 4
      vertex -1.96457 -0.374763 4
    endloop
  endfacet
  facet normal 0 0 -1
    outer loop
      vertex -1.98423 -0.250666 4
      vertex -1.98423 0.250666 4
      vertex -1.96457 0.374763 4
    endloop
  endfacet
  facet normal 0 0 -1
    outer loop
      vertex -1.99605 -0.125581 4
      vertex -1.98423 0.250666 4
      vertex -1.98423 -0.250666 4
    endloop
  endfacet
  facet normal 0 0 -1
    outer loop
      vertex -1.99605 -0.125581 4
      vertex -1.99605 0.125581 4
      vertex -1.98423 0.250666 4
    endloop
  endfacet
  facet normal 0 -0 -1
    outer loop
      vertex -1.99605 0.125581 4
      vertex -1.99605 -0.125581 4
      vertex -2 0 4
    endloop
  endfacet
  facet normal -0.278991 0.960294 0
    outer loop
      vertex -0.497379 1.93717 0
      vertex -0.618033 1.90211 14
      vertex -0.497379 1.93717 14
    endloop
  endfacet
  facet normal -0.278991 0.960294 0
    outer loop
      vertex -0.618033 1.90211 14
      vertex -0.497379 1.93717 0
      vertex -0.618033 1.90211 0
    endloop
  endfacet
  facet normal -0.0314165 0.999506 0
    outer loop
      vertex 0 2 0
      vertex -0.125581 1.99605 14
      vertex 0 2 14
    endloop
  endfacet
  facet normal -0.0314165 0.999506 0
    outer loop
      vertex -0.125581 1.99605 14
      vertex 0 2 0
      vertex -0.125581 1.99605 0
    endloop
  endfacet
  facet normal -0.397152 0.917753 0
    outer loop
      vertex -0.736249 1.85955 0
      vertex -0.851558 1.80965 14
      vertex -0.736249 1.85955 14
    endloop
  endfacet
  facet normal -0.397152 0.917753 0
    outer loop
      vertex -0.851558 1.80965 14
      vertex -0.736249 1.85955 0
      vertex -0.851558 1.80965 0
    endloop
  endfacet
  facet normal -0.61291 0.790153 0
    outer loop
      vertex -1.17557 1.61803 0
      vertex -1.27485 1.54103 14
      vertex -1.17557 1.61803 14
    endloop
  endfacet
  facet normal -0.61291 0.790153 0
    outer loop
      vertex -1.27485 1.54103 14
      vertex -1.17557 1.61803 0
      vertex -1.27485 1.54103 0
    endloop
  endfacet
  facet normal -0.661308 0.750115 3.80937e-009
    outer loop
      vertex -1.27485 1.54103 14
      vertex -1.3 1.51885 4
      vertex -1.36909 1.45794 14
    endloop
  endfacet
  facet normal -0.661307 0.750115 0
    outer loop
      vertex -1.27485 1.54103 0
      vertex -1.3 1.51885 4
      vertex -1.27485 1.54103 14
    endloop
  endfacet
  facet normal -0.661307 0.750115 0
    outer loop
      vertex -1.3 1.51885 4
      vertex -1.27485 1.54103 0
      vertex -1.3 1.51885 0
    endloop
  endfacet
  facet normal -0.661308 0.750114 0
    outer loop
      vertex -1.36909 1.45794 14
      vertex -1.3 1.51885 4
      vertex -1.36909 1.45794 4
    endloop
  endfacet
  facet normal 0.0314165 -0.999506 0
    outer loop
      vertex 0 -2 0
      vertex 0.125581 -1.99605 14
      vertex 0 -2 14
    endloop
  endfacet
  facet normal 0.0314165 -0.999506 0
    outer loop
      vertex 0.125581 -1.99605 14
      vertex 0 -2 0
      vertex 0.125581 -1.99605 0
    endloop
  endfacet
  facet normal 0.156436 -0.987688 0
    outer loop
      vertex 0.250666 -1.98423 0
      vertex 0.374763 -1.96457 14
      vertex 0.250666 -1.98423 14
    endloop
  endfacet
  facet normal 0.156436 -0.987688 0
    outer loop
      vertex 0.374763 -1.96457 14
      vertex 0.250666 -1.98423 0
      vertex 0.374763 -1.96457 0
    endloop
  endfacet
  facet normal 0.278991 -0.960294 0
    outer loop
      vertex 0.497379 -1.93717 0
      vertex 0.618033 -1.90211 14
      vertex 0.497379 -1.93717 14
    endloop
  endfacet
  facet normal 0.278991 -0.960294 0
    outer loop
      vertex 0.618033 -1.90211 14
      vertex 0.497379 -1.93717 0
      vertex 0.618033 -1.90211 0
    endloop
  endfacet
  facet normal 0.61291 -0.790153 0
    outer loop
      vertex 1.17557 -1.61803 0
      vertex 1.27485 -1.54103 14
      vertex 1.17557 -1.61803 14
    endloop
  endfacet
  facet normal 0.61291 -0.790153 0
    outer loop
      vertex 1.27485 -1.54103 14
      vertex 1.17557 -1.61803 0
      vertex 1.27485 -1.54103 0
    endloop
  endfacet
  facet normal 0.509044 -0.860741 0
    outer loop
      vertex 0.963507 -1.75261 0
      vertex 1.07165 -1.68865 14
      vertex 0.963507 -1.75261 14
    endloop
  endfacet
  facet normal 0.509044 -0.860741 0
    outer loop
      vertex 1.07165 -1.68865 14
      vertex 0.963507 -1.75261 0
      vertex 1.07165 -1.68865 0
    endloop
  endfacet
  facet normal 0.397152 -0.917753 0
    outer loop
      vertex 0.736249 -1.85955 0
      vertex 0.851558 -1.80965 14
      vertex 0.736249 -1.85955 14
    endloop
  endfacet
  facet normal 0.397152 -0.917753 0
    outer loop
      vertex 0.851558 -1.80965 14
      vertex 0.736249 -1.85955 0
      vertex 0.851558 -1.80965 0
    endloop
  endfacet
  facet normal -0.33874 -0.94088 0
    outer loop
      vertex -0.736249 -1.85955 0
      vertex -0.618033 -1.90211 14
      vertex -0.736249 -1.85955 14
    endloop
  endfacet
  facet normal -0.33874 -0.94088 -0
    outer loop
      vertex -0.618033 -1.90211 14
      vertex -0.736249 -1.85955 0
      vertex -0.618033 -1.90211 0
    endloop
  endfacet
  facet normal -0.0941056 -0.995562 0
    outer loop
      vertex -0.250666 -1.98423 0
      vertex -0.125581 -1.99605 14
      vertex -0.250666 -1.98423 14
    endloop
  endfacet
  facet normal -0.0941056 -0.995562 -0
    outer loop
      vertex -0.125581 -1.99605 14
      vertex -0.250666 -1.98423 0
      vertex -0.125581 -1.99605 0
    endloop
  endfacet
  facet normal -0.21814 -0.975918 0
    outer loop
      vertex -0.497379 -1.93717 0
      vertex -0.374763 -1.96457 14
      vertex -0.497379 -1.93717 14
    endloop
  endfacet
  facet normal -0.21814 -0.975918 -0
    outer loop
      vertex -0.374763 -1.96457 14
      vertex -0.497379 -1.93717 0
      vertex -0.374763 -1.96457 0
    endloop
  endfacet
  facet normal -0.562081 -0.827082 0
    outer loop
      vertex -1.17557 -1.61803 0
      vertex -1.07165 -1.68865 14
      vertex -1.17557 -1.61803 14
    endloop
  endfacet
  facet normal -0.562081 -0.827082 -0
    outer loop
      vertex -1.07165 -1.68865 14
      vertex -1.17557 -1.61803 0
      vertex -1.07165 -1.68865 0
    endloop
  endfacet
  facet normal -0.453986 -0.891009 0
    outer loop
      vertex -0.963507 -1.75261 0
      vertex -0.851558 -1.80965 14
      vertex -0.963507 -1.75261 14
    endloop
  endfacet
  facet normal -0.453986 -0.891009 -0
    outer loop
      vertex -0.851558 -1.80965 14
      vertex -0.963507 -1.75261 0
      vertex -0.851558 -1.80965 0
    endloop
  endfacet
  facet normal -0.661308 -0.750115 0
    outer loop
      vertex -1.36909 -1.45794 4
      vertex -1.27485 -1.54103 14
      vertex -1.36909 -1.45794 14
    endloop
  endfacet
  facet normal -0.661308 -0.750114 5.19607e-009
    outer loop
      vertex -1.3 -1.51885 4
      vertex -1.27485 -1.54103 14
      vertex -1.36909 -1.45794 4
    endloop
  endfacet
  facet normal -0.661307 -0.750115 0
    outer loop
      vertex -1.27485 -1.54103 0
      vertex -1.3 -1.51885 4
      vertex -1.3 -1.51885 0
    endloop
  endfacet
  facet normal -0.661307 -0.750115 0
    outer loop
      vertex -1.3 -1.51885 4
      vertex -1.27485 -1.54103 0
      vertex -1.27485 -1.54103 14
    endloop
  endfacet
  facet normal 0.0941056 -0.995562 0
    outer loop
      vertex 0.125581 -1.99605 0
      vertex 0.250666 -1.98423 14
      vertex 0.125581 -1.99605 14
    endloop
  endfacet
  facet normal 0.0941056 -0.995562 0
    outer loop
      vertex 0.250666 -1.98423 14
      vertex 0.125581 -1.99605 0
      vertex 0.250666 -1.98423 0
    endloop
  endfacet
  facet normal 0.33874 -0.94088 0
    outer loop
      vertex 0.618033 -1.90211 0
      vertex 0.736249 -1.85955 14
      vertex 0.618033 -1.90211 14
    endloop
  endfacet
  facet normal 0.33874 -0.94088 0
    outer loop
      vertex 0.736249 -1.85955 14
      vertex 0.618033 -1.90211 0
      vertex 0.736249 -1.85955 0
    endloop
  endfacet
  facet normal 0.661308 -0.750115 3.80937e-009
    outer loop
      vertex 1.27485 -1.54103 14
      vertex 1.3 -1.51885 4
      vertex 1.36909 -1.45794 14
    endloop
  endfacet
  facet normal 0.661307 -0.750115 0
    outer loop
      vertex 1.27485 -1.54103 0
      vertex 1.3 -1.51885 4
      vertex 1.27485 -1.54103 14
    endloop
  endfacet
  facet normal 0.661307 -0.750115 0
    outer loop
      vertex 1.3 -1.51885 4
      vertex 1.27485 -1.54103 0
      vertex 1.3 -1.51885 0
    endloop
  endfacet
  facet normal 0.661308 -0.750114 0
    outer loop
      vertex 1.36909 -1.45794 14
      vertex 1.3 -1.51885 4
      vertex 1.36909 -1.45794 4
    endloop
  endfacet
  facet normal 0.453986 -0.891009 0
    outer loop
      vertex 0.851558 -1.80965 0
      vertex 0.963507 -1.75261 14
      vertex 0.851558 -1.80965 14
    endloop
  endfacet
  facet normal 0.453986 -0.891009 0
    outer loop
      vertex 0.963507 -1.75261 14
      vertex 0.851558 -1.80965 0
      vertex 0.963507 -1.75261 0
    endloop
  endfacet
  facet normal -0.278991 -0.960294 0
    outer loop
      vertex -0.618033 -1.90211 0
      vertex -0.497379 -1.93717 14
      vertex -0.618033 -1.90211 14
    endloop
  endfacet
  facet normal -0.278991 -0.960294 -0
    outer loop
      vertex -0.497379 -1.93717 14
      vertex -0.618033 -1.90211 0
      vertex -0.497379 -1.93717 0
    endloop
  endfacet
  facet normal -0.509044 -0.860741 0
    outer loop
      vertex -1.07165 -1.68865 0
      vertex -0.963507 -1.75261 14
      vertex -1.07165 -1.68865 14
    endloop
  endfacet
  facet normal -0.509044 -0.860741 -0
    outer loop
      vertex -0.963507 -1.75261 14
      vertex -1.07165 -1.68865 0
      vertex -0.963507 -1.75261 0
    endloop
  endfacet
  facet normal 1 -0 0
    outer loop
      vertex 1.3 -1.51885 4
      vertex 1.3 1.51885 0
      vertex 1.3 1.51885 4
    endloop
  endfacet
  facet normal 1 0 0
    outer loop
      vertex 1.3 1.51885 0
      vertex 1.3 -1.51885 4
      vertex 1.3 -1.51885 0
    endloop
  endfacet
  facet normal -1 0 0
    outer loop
      vertex -1.3 -1.51885 0
      vertex -1.3 1.51885 4
      vertex -1.3 1.51885 0
    endloop
  endfacet
  facet normal -1 -0 0
    outer loop
      vertex -1.3 1.51885 4
      vertex -1.3 -1.51885 0
      vertex -1.3 -1.51885 4
    endloop
  endfacet
  facet normal 0.999506 0.0314165 0
    outer loop
      vertex 2 0 14
      vertex 1.99605 0.125581 4
      vertex 1.99605 0.125581 14
    endloop
  endfacet
  facet normal 0.999506 0.0314165 0
    outer loop
      vertex 1.99605 0.125581 4
      vertex 2 0 14
      vertex 2 0 4
    endloop
  endfacet
  facet normal -0.999506 0.0314165 0
    outer loop
      vertex -2 0 4
      vertex -1.99605 0.125581 14
      vertex -1.99605 0.125581 4
    endloop
  endfacet
  facet normal -0.999506 0.0314165 0
    outer loop
      vertex -1.99605 0.125581 14
      vertex -2 0 4
      vertex -2 0 14
    endloop
  endfacet
  facet normal 0.707107 0.707107 0
    outer loop
      vertex 1.45794 1.36909 14
      vertex 1.36909 1.45794 4
      vertex 1.36909 1.45794 14
    endloop
  endfacet
  facet normal 0.707107 0.707107 0
    outer loop
      vertex 1.36909 1.45794 4
      vertex 1.45794 1.36909 14
      vertex 1.45794 1.36909 4
    endloop
  endfacet
  facet normal -0.975918 -0.21814 0
    outer loop
      vertex -1.93717 -0.497379 4
      vertex -1.96457 -0.374763 14
      vertex -1.96457 -0.374763 4
    endloop
  endfacet
  facet normal -0.975918 -0.21814 0
    outer loop
      vertex -1.96457 -0.374763 14
      vertex -1.93717 -0.497379 4
      vertex -1.93717 -0.497379 14
    endloop
  endfacet
  facet normal 0.917753 0.397152 0
    outer loop
      vertex 1.85955 0.736249 14
      vertex 1.80965 0.851558 4
      vertex 1.80965 0.851558 14
    endloop
  endfacet
  facet normal 0.917753 0.397152 0
    outer loop
      vertex 1.80965 0.851558 4
      vertex 1.85955 0.736249 14
      vertex 1.85955 0.736249 4
    endloop
  endfacet
  facet normal -0.827082 0.562081 0
    outer loop
      vertex -1.68865 1.07165 4
      vertex -1.61803 1.17557 14
      vertex -1.61803 1.17557 4
    endloop
  endfacet
  facet normal -0.827082 0.562081 0
    outer loop
      vertex -1.61803 1.17557 14
      vertex -1.68865 1.07165 4
      vertex -1.68865 1.07165 14
    endloop
  endfacet
  facet normal -0.750115 0.661308 0
    outer loop
      vertex -1.54103 1.27485 4
      vertex -1.45794 1.36909 14
      vertex -1.45794 1.36909 4
    endloop
  endfacet
  facet normal -0.750115 0.661308 0
    outer loop
      vertex -1.45794 1.36909 14
      vertex -1.54103 1.27485 4
      vertex -1.54103 1.27485 14
    endloop
  endfacet
  facet normal 0.891009 -0.453986 0
    outer loop
      vertex 1.75261 -0.963507 14
      vertex 1.80965 -0.851558 4
      vertex 1.80965 -0.851558 14
    endloop
  endfacet
  facet normal 0.891009 -0.453986 0
    outer loop
      vertex 1.80965 -0.851558 4
      vertex 1.75261 -0.963507 14
      vertex 1.75261 -0.963507 4
    endloop
  endfacet
  facet normal 0.707107 -0.707107 0
    outer loop
      vertex 1.36909 -1.45794 14
      vertex 1.45794 -1.36909 4
      vertex 1.45794 -1.36909 14
    endloop
  endfacet
  facet normal 0.707107 -0.707107 0
    outer loop
      vertex 1.45794 -1.36909 4
      vertex 1.36909 -1.45794 14
      vertex 1.36909 -1.45794 4
    endloop
  endfacet
  facet normal 0.960294 -0.278991 0
    outer loop
      vertex 1.90211 -0.618033 14
      vertex 1.93717 -0.497379 4
      vertex 1.93717 -0.497379 14
    endloop
  endfacet
  facet normal 0.960294 -0.278991 0
    outer loop
      vertex 1.93717 -0.497379 4
      vertex 1.90211 -0.618033 14
      vertex 1.90211 -0.618033 4
    endloop
  endfacet
  facet normal -0.790153 -0.61291 0
    outer loop
      vertex -1.54103 -1.27485 4
      vertex -1.61803 -1.17557 14
      vertex -1.61803 -1.17557 4
    endloop
  endfacet
  facet normal -0.790153 -0.61291 0
    outer loop
      vertex -1.61803 -1.17557 14
      vertex -1.54103 -1.27485 4
      vertex -1.54103 -1.27485 14
    endloop
  endfacet
  facet normal 0.987688 0.156436 0
    outer loop
      vertex 1.98423 0.250666 14
      vertex 1.96457 0.374763 4
      vertex 1.96457 0.374763 14
    endloop
  endfacet
  facet normal 0.987688 0.156436 0
    outer loop
      vertex 1.96457 0.374763 4
      vertex 1.98423 0.250666 14
      vertex 1.98423 0.250666 4
    endloop
  endfacet
  facet normal 0.995562 0.0941056 0
    outer loop
      vertex 1.99605 0.125581 14
      vertex 1.98423 0.250666 4
      vertex 1.98423 0.250666 14
    endloop
  endfacet
  facet normal 0.995562 0.0941056 0
    outer loop
      vertex 1.98423 0.250666 4
      vertex 1.99605 0.125581 14
      vertex 1.99605 0.125581 4
    endloop
  endfacet
  facet normal 0.960294 0.278991 0
    outer loop
      vertex 1.93717 0.497379 14
      vertex 1.90211 0.618033 4
      vertex 1.90211 0.618033 14
    endloop
  endfacet
  facet normal 0.960294 0.278991 0
    outer loop
      vertex 1.90211 0.618033 4
      vertex 1.93717 0.497379 14
      vertex 1.93717 0.497379 4
    endloop
  endfacet
  facet normal 0.891009 0.453986 0
    outer loop
      vertex 1.80965 0.851558 14
      vertex 1.75261 0.963507 4
      vertex 1.75261 0.963507 14
    endloop
  endfacet
  facet normal 0.891009 0.453986 0
    outer loop
      vertex 1.75261 0.963507 4
      vertex 1.80965 0.851558 14
      vertex 1.80965 0.851558 4
    endloop
  endfacet
  facet normal -0.975918 0.21814 0
    outer loop
      vertex -1.96457 0.374763 4
      vertex -1.93717 0.497379 14
      vertex -1.93717 0.497379 4
    endloop
  endfacet
  facet normal -0.975918 0.21814 0
    outer loop
      vertex -1.93717 0.497379 14
      vertex -1.96457 0.374763 4
      vertex -1.96457 0.374763 14
    endloop
  endfacet
  facet normal -0.707107 0.707107 0
    outer loop
      vertex -1.45794 1.36909 4
      vertex -1.36909 1.45794 14
      vertex -1.36909 1.45794 4
    endloop
  endfacet
  facet normal -0.707107 0.707107 0
    outer loop
      vertex -1.36909 1.45794 14
      vertex -1.45794 1.36909 4
      vertex -1.45794 1.36909 14
    endloop
  endfacet
  facet normal -0.860741 0.509044 0
    outer loop
      vertex -1.75261 0.963507 4
      vertex -1.68865 1.07165 14
      vertex -1.68865 1.07165 4
    endloop
  endfacet
  facet normal -0.860741 0.509044 0
    outer loop
      vertex -1.68865 1.07165 14
      vertex -1.75261 0.963507 4
      vertex -1.75261 0.963507 14
    endloop
  endfacet
  facet normal -0.960294 0.278991 0
    outer loop
      vertex -1.93717 0.497379 4
      vertex -1.90211 0.618033 14
      vertex -1.90211 0.618033 4
    endloop
  endfacet
  facet normal -0.960294 0.278991 0
    outer loop
      vertex -1.90211 0.618033 14
      vertex -1.93717 0.497379 4
      vertex -1.93717 0.497379 14
    endloop
  endfacet
  facet normal -0.987688 0.156436 0
    outer loop
      vertex -1.98423 0.250666 4
      vertex -1.96457 0.374763 14
      vertex -1.96457 0.374763 4
    endloop
  endfacet
  facet normal -0.987688 0.156436 0
    outer loop
      vertex -1.96457 0.374763 14
      vertex -1.98423 0.250666 4
      vertex -1.98423 0.250666 14
    endloop
  endfacet
  facet normal -0.707107 -0.707107 0
    outer loop
      vertex -1.36909 -1.45794 4
      vertex -1.45794 -1.36909 14
      vertex -1.45794 -1.36909 4
    endloop
  endfacet
  facet normal -0.707107 -0.707107 0
    outer loop
      vertex -1.45794 -1.36909 14
      vertex -1.36909 -1.45794 4
      vertex -1.36909 -1.45794 14
    endloop
  endfacet
  facet normal -0.860741 -0.509044 0
    outer loop
      vertex -1.68865 -1.07165 4
      vertex -1.75261 -0.963507 14
      vertex -1.75261 -0.963507 4
    endloop
  endfacet
  facet normal -0.860741 -0.509044 0
    outer loop
      vertex -1.75261 -0.963507 14
      vertex -1.68865 -1.07165 4
      vertex -1.68865 -1.07165 14
    endloop
  endfacet
  facet normal -0.827082 -0.562081 0
    outer loop
      vertex -1.61803 -1.17557 4
      vertex -1.68865 -1.07165 14
      vertex -1.68865 -1.07165 4
    endloop
  endfacet
  facet normal -0.827082 -0.562081 0
    outer loop
      vertex -1.68865 -1.07165 14
      vertex -1.61803 -1.17557 4
      vertex -1.61803 -1.17557 14
    endloop
  endfacet
  facet normal -0.960294 -0.278991 0
    outer loop
      vertex -1.90211 -0.618033 4
      vertex -1.93717 -0.497379 14
      vertex -1.93717 -0.497379 4
    endloop
  endfacet
  facet normal -0.960294 -0.278991 0
    outer loop
      vertex -1.93717 -0.497379 14
      vertex -1.90211 -0.618033 4
      vertex -1.90211 -0.618033 14
    endloop
  endfacet
  facet normal 0.975918 0.21814 0
    outer loop
      vertex 1.96457 0.374763 14
      vertex 1.93717 0.497379 4
      vertex 1.93717 0.497379 14
    endloop
  endfacet
  facet normal 0.975918 0.21814 0
    outer loop
      vertex 1.93717 0.497379 4
      vertex 1.96457 0.374763 14
      vertex 1.96457 0.374763 4
    endloop
  endfacet
  facet normal 0.94088 0.33874 0
    outer loop
      vertex 1.90211 0.618033 14
      vertex 1.85955 0.736249 4
      vertex 1.85955 0.736249 14
    endloop
  endfacet
  facet normal 0.94088 0.33874 0
    outer loop
      vertex 1.85955 0.736249 4
      vertex 1.90211 0.618033 14
      vertex 1.90211 0.618033 4
    endloop
  endfacet
  facet normal 0.790153 0.61291 0
    outer loop
      vertex 1.61803 1.17557 14
      vertex 1.54103 1.27485 4
      vertex 1.54103 1.27485 14
    endloop
  endfacet
  facet normal 0.790153 0.61291 0
    outer loop
      vertex 1.54103 1.27485 4
      vertex 1.61803 1.17557 14
      vertex 1.61803 1.17557 4
    endloop
  endfacet
  facet normal 0.750115 0.661308 0
    outer loop
      vertex 1.54103 1.27485 14
      vertex 1.45794 1.36909 4
      vertex 1.45794 1.36909 14
    endloop
  endfacet
  facet normal 0.750115 0.661308 0
    outer loop
      vertex 1.45794 1.36909 4
      vertex 1.54103 1.27485 14
      vertex 1.54103 1.27485 4
    endloop
  endfacet
  facet normal 0.827082 0.562081 0
    outer loop
      vertex 1.68865 1.07165 14
      vertex 1.61803 1.17557 4
      vertex 1.61803 1.17557 14
    endloop
  endfacet
  facet normal 0.827082 0.562081 0
    outer loop
      vertex 1.61803 1.17557 4
      vertex 1.68865 1.07165 14
      vertex 1.68865 1.07165 4
    endloop
  endfacet
  facet normal 0.860741 0.509044 0
    outer loop
      vertex 1.75261 0.963507 14
      vertex 1.68865 1.07165 4
      vertex 1.68865 1.07165 14
    endloop
  endfacet
  facet normal 0.860741 0.509044 0
    outer loop
      vertex 1.68865 1.07165 4
      vertex 1.75261 0.963507 14
      vertex 1.75261 0.963507 4
    endloop
  endfacet
  facet normal -0.891009 0.453986 0
    outer loop
      vertex -1.80965 0.851558 4
      vertex -1.75261 0.963507 14
      vertex -1.75261 0.963507 4
    endloop
  endfacet
  facet normal -0.891009 0.453986 0
    outer loop
      vertex -1.75261 0.963507 14
      vertex -1.80965 0.851558 4
      vertex -1.80965 0.851558 14
    endloop
  endfacet
  facet normal -0.917753 0.397152 0
    outer loop
      vertex -1.85955 0.736249 4
      vertex -1.80965 0.851558 14
      vertex -1.80965 0.851558 4
    endloop
  endfacet
  facet normal -0.917753 0.397152 0
    outer loop
      vertex -1.80965 0.851558 14
      vertex -1.85955 0.736249 4
      vertex -1.85955 0.736249 14
    endloop
  endfacet
  facet normal -0.995562 0.0941056 0
    outer loop
      vertex -1.99605 0.125581 4
      vertex -1.98423 0.250666 14
      vertex -1.98423 0.250666 4
    endloop
  endfacet
  facet normal -0.995562 0.0941056 0
    outer loop
      vertex -1.98423 0.250666 14
      vertex -1.99605 0.125581 4
      vertex -1.99605 0.125581 14
    endloop
  endfacet
  facet normal 0.827082 -0.562081 0
    outer loop
      vertex 1.61803 -1.17557 14
      vertex 1.68865 -1.07165 4
      vertex 1.68865 -1.07165 14
    endloop
  endfacet
  facet normal 0.827082 -0.562081 0
    outer loop
      vertex 1.68865 -1.07165 4
      vertex 1.61803 -1.17557 14
      vertex 1.61803 -1.17557 4
    endloop
  endfacet
  facet normal 0.750115 -0.661308 0
    outer loop
      vertex 1.45794 -1.36909 14
      vertex 1.54103 -1.27485 4
      vertex 1.54103 -1.27485 14
    endloop
  endfacet
  facet normal 0.750115 -0.661308 0
    outer loop
      vertex 1.54103 -1.27485 4
      vertex 1.45794 -1.36909 14
      vertex 1.45794 -1.36909 4
    endloop
  endfacet
  facet normal 0.94088 -0.33874 0
    outer loop
      vertex 1.85955 -0.736249 14
      vertex 1.90211 -0.618033 4
      vertex 1.90211 -0.618033 14
    endloop
  endfacet
  facet normal 0.94088 -0.33874 0
    outer loop
      vertex 1.90211 -0.618033 4
      vertex 1.85955 -0.736249 14
      vertex 1.85955 -0.736249 4
    endloop
  endfacet
  facet normal 0.917753 -0.397152 0
    outer loop
      vertex 1.80965 -0.851558 14
      vertex 1.85955 -0.736249 4
      vertex 1.85955 -0.736249 14
    endloop
  endfacet
  facet normal 0.917753 -0.397152 0
    outer loop
      vertex 1.85955 -0.736249 4
      vertex 1.80965 -0.851558 14
      vertex 1.80965 -0.851558 4
    endloop
  endfacet
  facet normal 0.995562 -0.0941056 0
    outer loop
      vertex 1.98423 -0.250666 14
      vertex 1.99605 -0.125581 4
      vertex 1.99605 -0.125581 14
    endloop
  endfacet
  facet normal 0.995562 -0.0941056 0
    outer loop
      vertex 1.99605 -0.125581 4
      vertex 1.98423 -0.250666 14
      vertex 1.98423 -0.250666 4
    endloop
  endfacet
  facet normal -0.750115 -0.661308 0
    outer loop
      vertex -1.45794 -1.36909 4
      vertex -1.54103 -1.27485 14
      vertex -1.54103 -1.27485 4
    endloop
  endfacet
  facet normal -0.750115 -0.661308 0
    outer loop
      vertex -1.54103 -1.27485 14
      vertex -1.45794 -1.36909 4
      vertex -1.45794 -1.36909 14
    endloop
  endfacet
  facet normal -0.917753 -0.397152 0
    outer loop
      vertex -1.80965 -0.851558 4
      vertex -1.85955 -0.736249 14
      vertex -1.85955 -0.736249 4
    endloop
  endfacet
  facet normal -0.917753 -0.397152 0
    outer loop
      vertex -1.85955 -0.736249 14
      vertex -1.80965 -0.851558 4
      vertex -1.80965 -0.851558 14
    endloop
  endfacet
  facet normal -0.94088 -0.33874 0
    outer loop
      vertex -1.85955 -0.736249 4
      vertex -1.90211 -0.618033 14
      vertex -1.90211 -0.618033 4
    endloop
  endfacet
  facet normal -0.94088 -0.33874 0
    outer loop
      vertex -1.90211 -0.618033 14
      vertex -1.85955 -0.736249 4
      vertex -1.85955 -0.736249 14
    endloop
  endfacet
  facet normal -0.987688 -0.156436 0
    outer loop
      vertex -1.96457 -0.374763 4
      vertex -1.98423 -0.250666 14
      vertex -1.98423 -0.250666 4
    endloop
  endfacet
  facet normal -0.987688 -0.156436 0
    outer loop
      vertex -1.98423 -0.250666 14
      vertex -1.96457 -0.374763 4
      vertex -1.96457 -0.374763 14
    endloop
  endfacet
  facet normal -0.999506 -0.0314165 0
    outer loop
      vertex -1.99605 -0.125581 4
      vertex -2 0 14
      vertex -2 0 4
    endloop
  endfacet
  facet normal -0.999506 -0.0314165 0
    outer loop
      vertex -2 0 14
      vertex -1.99605 -0.125581 4
      vertex -1.99605 -0.125581 14
    endloop
  endfacet
  facet normal -0.790153 0.61291 0
    outer loop
      vertex -1.61803 1.17557 4
      vertex -1.54103 1.27485 14
      vertex -1.54103 1.27485 4
    endloop
  endfacet
  facet normal -0.790153 0.61291 0
    outer loop
      vertex -1.54103 1.27485 14
      vertex -1.61803 1.17557 4
      vertex -1.61803 1.17557 14
    endloop
  endfacet
  facet normal -0.94088 0.33874 0
    outer loop
      vertex -1.90211 0.618033 4
      vertex -1.85955 0.736249 14
      vertex -1.85955 0.736249 4
    endloop
  endfacet
  facet normal -0.94088 0.33874 0
    outer loop
      vertex -1.85955 0.736249 14
      vertex -1.90211 0.618033 4
      vertex -1.90211 0.618033 14
    endloop
  endfacet
  facet normal 0.860741 -0.509044 0
    outer loop
      vertex 1.68865 -1.07165 14
      vertex 1.75261 -0.963507 4
      vertex 1.75261 -0.963507 14
    endloop
  endfacet
  facet normal 0.860741 -0.509044 0
    outer loop
      vertex 1.75261 -0.963507 4
      vertex 1.68865 -1.07165 14
      vertex 1.68865 -1.07165 4
    endloop
  endfacet
  facet normal 0.790153 -0.61291 0
    outer loop
      vertex 1.54103 -1.27485 14
      vertex 1.61803 -1.17557 4
      vertex 1.61803 -1.17557 14
    endloop
  endfacet
  facet normal 0.790153 -0.61291 0
    outer loop
      vertex 1.61803 -1.17557 4
      vertex 1.54103 -1.27485 14
      vertex 1.54103 -1.27485 4
    endloop
  endfacet
  facet normal 0.975918 -0.21814 0
    outer loop
      vertex 1.93717 -0.497379 14
      vertex 1.96457 -0.374763 4
      vertex 1.96457 -0.374763 14
    endloop
  endfacet
  facet normal 0.975918 -0.21814 0
    outer loop
      vertex 1.96457 -0.374763 4
      vertex 1.93717 -0.497379 14
      vertex 1.93717 -0.497379 4
    endloop
  endfacet
  facet normal 0.999506 -0.0314165 0
    outer loop
      vertex 1.99605 -0.125581 14
      vertex 2 0 4
      vertex 2 0 14
    endloop
  endfacet
  facet normal 0.999506 -0.0314165 0
    outer loop
      vertex 2 0 4
      vertex 1.99605 -0.125581 14
      vertex 1.99605 -0.125581 4
    endloop
  endfacet
  facet normal -0.891009 -0.453986 0
    outer loop
      vertex -1.75261 -0.963507 4
      vertex -1.80965 -0.851558 14
      vertex -1.80965 -0.851558 4
    endloop
  endfacet
  facet normal -0.891009 -0.453986 0
    outer loop
      vertex -1.80965 -0.851558 14
      vertex -1.75261 -0.963507 4
      vertex -1.75261 -0.963507 14
    endloop
  endfacet
  facet normal -0.995562 -0.0941056 0
    outer loop
      vertex -1.98423 -0.250666 4
      vertex -1.99605 -0.125581 14
      vertex -1.99605 -0.125581 4
    endloop
  endfacet
  facet normal -0.995562 -0.0941056 0
    outer loop
      vertex -1.99605 -0.125581 14
      vertex -1.98423 -0.250666 4
      vertex -1.98423 -0.250666 14
    endloop
  endfacet
  facet normal 0.987688 -0.156436 0
    outer loop
      vertex 1.96457 -0.374763 14
      vertex 1.98423 -0.250666 4
      vertex 1.98423 -0.250666 14
    endloop
  endfacet
  facet normal 0.987688 -0.156436 0
    outer loop
      vertex 1.98423 -0.250666 4
      vertex 1.96457 -0.374763 14
      vertex 1.96457 -0.374763 4
    endloop
  endfacet
endsolid OpenSCAD_Model
