solid OpenSCAD_Model
  facet normal 0.0314165 0.999506 -0
    outer loop
      vertex 0.125581 1.99605 0
      vertex 0 2 4
      vertex 0.125581 1.99605 4
    endloop
  endfacet
  facet normal 0.0314165 0.999506 0
    outer loop
      vertex 0 2 4
      vertex 0.125581 1.99605 0
      vertex 0 2 0
    endloop
  endfacet
  facet normal -0.0314165 -0.999506 0
    outer loop
      vertex -0.125581 -1.99605 0
      vertex 0 -2 4
      vertex -0.125581 -1.99605 4
    endloop
  endfacet
  facet normal -0.0314165 -0.999506 -0
    outer loop
      vertex 0 -2 4
      vertex -0.125581 -1.99605 0
      vertex 0 -2 0
    endloop
  endfacet
  facet normal -0.33874 0.94088 0
    outer loop
      vertex -0.618033 1.90211 0
      vertex -0.736249 1.85955 4
      vertex -0.618033 1.90211 4
    endloop
  endfacet
  facet normal -0.33874 0.94088 0
    outer loop
      vertex -0.736249 1.85955 4
      vertex -0.618033 1.90211 0
      vertex -0.736249 1.85955 0
    endloop
  endfacet
  facet normal 0.397152 0.917753 -0
    outer loop
      vertex 0.851558 1.80965 0
      vertex 0.736249 1.85955 4
      vertex 0.851558 1.80965 4
    endloop
  endfacet
  facet normal 0.397152 0.917753 0
    outer loop
      vertex 0.736249 1.85955 4
      vertex 0.851558 1.80965 0
      vertex 0.736249 1.85955 0
    endloop
  endfacet
  facet normal 0.562081 0.827082 -0
    outer loop
      vertex 1.17557 1.61803 0
      vertex 1.07165 1.68865 4
      vertex 1.17557 1.61803 4
    endloop
  endfacet
  facet normal 0.562081 0.827082 0
    outer loop
      vertex 1.07165 1.68865 4
      vertex 1.17557 1.61803 0
      vertex 1.07165 1.68865 0
    endloop
  endfacet
  facet normal -0.156436 0.987688 0
    outer loop
      vertex -0.250666 1.98423 0
      vertex -0.374763 1.96457 4
      vertex -0.250666 1.98423 4
    endloop
  endfacet
  facet normal -0.156436 0.987688 0
    outer loop
      vertex -0.374763 1.96457 4
      vertex -0.250666 1.98423 0
      vertex -0.374763 1.96457 0
    endloop
  endfacet
  facet normal 0.21814 0.975918 -0
    outer loop
      vertex 0.497379 1.93717 0
      vertex 0.374763 1.96457 4
      vertex 0.497379 1.93717 4
    endloop
  endfacet
  facet normal 0.21814 0.975918 0
    outer loop
      vertex 0.374763 1.96457 4
      vertex 0.497379 1.93717 0
      vertex 0.374763 1.96457 0
    endloop
  endfacet
  facet normal 0.156436 0.987688 -0
    outer loop
      vertex 0.374763 1.96457 0
      vertex 0.250666 1.98423 4
      vertex 0.374763 1.96457 4
    endloop
  endfacet
  facet normal 0.156436 0.987688 0
    outer loop
      vertex 0.250666 1.98423 4
      vertex 0.374763 1.96457 0
      vertex 0.250666 1.98423 0
    endloop
  endfacet
  facet normal 0.509044 0.860741 -0
    outer loop
      vertex 1.07165 1.68865 0
      vertex 0.963507 1.75261 4
      vertex 1.07165 1.68865 4
    endloop
  endfacet
  facet normal 0.509044 0.860741 0
    outer loop
      vertex 0.963507 1.75261 4
      vertex 1.07165 1.68865 0
      vertex 0.963507 1.75261 0
    endloop
  endfacet
  facet normal 0.612911 0.790152 -0
    outer loop
      vertex 1.2 1.59908 0
      vertex 1.17557 1.61803 4
      vertex 1.2 1.59908 4
    endloop
  endfacet
  facet normal 0.612911 0.790152 0
    outer loop
      vertex 1.17557 1.61803 4
      vertex 1.2 1.59908 0
      vertex 1.17557 1.61803 0
    endloop
  endfacet
  facet normal 0 0 -1
    outer loop
      vertex -0.963507 1.75261 4
      vertex -1.0033 1.72908 4
      vertex -0.996177 1.73329 4
    endloop
  endfacet
  facet normal -0.509044 0.86074 0
    outer loop
      vertex -0.963507 1.75261 0
      vertex -1.0033 1.72908 4
      vertex -0.963507 1.75261 4
    endloop
  endfacet
  facet normal -0.509044 0.860741 5.04069e-009
    outer loop
      vertex -1.0033 1.72908 4
      vertex -0.963507 1.75261 0
      vertex -1.07165 1.68865 4
    endloop
  endfacet
  facet normal -0.509044 0.860741 0
    outer loop
      vertex -1.07165 1.68865 4
      vertex -0.963507 1.75261 0
      vertex -1.07165 1.68865 0
    endloop
  endfacet
  facet normal -0.562081 0.827082 0
    outer loop
      vertex -1.07165 1.68865 0
      vertex -1.17557 1.61803 4
      vertex -1.07165 1.68865 4
    endloop
  endfacet
  facet normal -0.562081 0.827082 0
    outer loop
      vertex -1.17557 1.61803 4
      vertex -1.07165 1.68865 0
      vertex -1.17557 1.61803 0
    endloop
  endfacet
  facet normal -0.21814 0.975918 0
    outer loop
      vertex -0.374763 1.96457 0
      vertex -0.497379 1.93717 4
      vertex -0.374763 1.96457 4
    endloop
  endfacet
  facet normal -0.21814 0.975918 0
    outer loop
      vertex -0.497379 1.93717 4
      vertex -0.374763 1.96457 0
      vertex -0.497379 1.93717 0
    endloop
  endfacet
  facet normal -0.0941051 0.995562 0
    outer loop
      vertex -0.125581 1.99605 0
      vertex -0.204643 1.98858 4
      vertex -0.125581 1.99605 4
    endloop
  endfacet
  facet normal -0.0941056 0.995562 -9.39913e-009
    outer loop
      vertex -0.250666 1.98423 0
      vertex -0.204643 1.98858 4
      vertex -0.125581 1.99605 0
    endloop
  endfacet
  facet normal -0.0941059 0.995562 -5.47095e-009
    outer loop
      vertex -0.204643 1.98858 4
      vertex -0.250666 1.98423 0
      vertex -0.212881 1.9878 4
    endloop
  endfacet
  facet normal -0.0941065 0.995562 0
    outer loop
      vertex -0.212881 1.9878 4
      vertex -0.250666 1.98423 0
      vertex -0.250666 1.98423 4
    endloop
  endfacet
  facet normal 0.21814 -0.975918 0
    outer loop
      vertex 0.374763 -1.96457 0
      vertex 0.497379 -1.93717 4
      vertex 0.374763 -1.96457 4
    endloop
  endfacet
  facet normal 0.21814 -0.975918 0
    outer loop
      vertex 0.497379 -1.93717 4
      vertex 0.374763 -1.96457 0
      vertex 0.497379 -1.93717 0
    endloop
  endfacet
  facet normal 0.562081 -0.827082 0
    outer loop
      vertex 1.07165 -1.68865 0
      vertex 1.17557 -1.61803 4
      vertex 1.07165 -1.68865 4
    endloop
  endfacet
  facet normal 0.562081 -0.827082 0
    outer loop
      vertex 1.17557 -1.61803 4
      vertex 1.07165 -1.68865 0
      vertex 1.17557 -1.61803 0
    endloop
  endfacet
  facet normal -0.156436 -0.987688 0
    outer loop
      vertex -0.374763 -1.96457 0
      vertex -0.250666 -1.98423 4
      vertex -0.374763 -1.96457 4
    endloop
  endfacet
  facet normal -0.156436 -0.987688 -0
    outer loop
      vertex -0.250666 -1.98423 4
      vertex -0.374763 -1.96457 0
      vertex -0.250666 -1.98423 0
    endloop
  endfacet
  facet normal 0 0 -1
    outer loop
      vertex 1.07165 -1.68865 0
      vertex 1.2 -1.59908 0
      vertex 1.17557 -1.61803 0
    endloop
  endfacet
  facet normal -0 0 -1
    outer loop
      vertex 1.2 -1.59908 0
      vertex 1.07165 -1.68865 0
      vertex 1.2 1.59908 0
    endloop
  endfacet
  facet normal 0 0 -1
    outer loop
      vertex 1.07165 1.68865 0
      vertex 1.2 1.59908 0
      vertex 1.07165 -1.68865 0
    endloop
  endfacet
  facet normal 0 0 -1
    outer loop
      vertex 1.2 1.59908 0
      vertex 1.07165 1.68865 0
      vertex 1.17557 1.61803 0
    endloop
  endfacet
  facet normal 0 0 -1
    outer loop
      vertex 0.963507 -1.75261 0
      vertex 1.07165 1.68865 0
      vertex 1.07165 -1.68865 0
    endloop
  endfacet
  facet normal 0 0 -1
    outer loop
      vertex 0.963507 -1.75261 0
      vertex 0.963507 1.75261 0
      vertex 1.07165 1.68865 0
    endloop
  endfacet
  facet normal 0 0 -1
    outer loop
      vertex 0.851558 -1.80965 0
      vertex 0.963507 1.75261 0
      vertex 0.963507 -1.75261 0
    endloop
  endfacet
  facet normal 0 0 -1
    outer loop
      vertex 0.851558 -1.80965 0
      vertex 0.851558 1.80965 0
      vertex 0.963507 1.75261 0
    endloop
  endfacet
  facet normal 0 0 -1
    outer loop
      vertex 0.736249 -1.85955 0
      vertex 0.851558 1.80965 0
      vertex 0.851558 -1.80965 0
    endloop
  endfacet
  facet normal 0 0 -1
    outer loop
      vertex 0.736249 -1.85955 0
      vertex 0.736249 1.85955 0
      vertex 0.851558 1.80965 0
    endloop
  endfacet
  facet normal 0 0 -1
    outer loop
      vertex 0.618033 -1.90211 0
      vertex 0.736249 1.85955 0
      vertex 0.736249 -1.85955 0
    endloop
  endfacet
  facet normal 0 0 -1
    outer loop
      vertex 0.618033 -1.90211 0
      vertex 0.618033 1.90211 0
      vertex 0.736249 1.85955 0
    endloop
  endfacet
  facet normal 0 0 -1
    outer loop
      vertex 0.497379 -1.93717 0
      vertex 0.618033 1.90211 0
      vertex 0.618033 -1.90211 0
    endloop
  endfacet
  facet normal 0 0 -1
    outer loop
      vertex 0.497379 -1.93717 0
      vertex 0.497379 1.93717 0
      vertex 0.618033 1.90211 0
    endloop
  endfacet
  facet normal 0 0 -1
    outer loop
      vertex 0.374763 -1.96457 0
      vertex 0.497379 1.93717 0
      vertex 0.497379 -1.93717 0
    endloop
  endfacet
  facet normal 0 0 -1
    outer loop
      vertex 0.374763 -1.96457 0
      vertex 0.374763 1.96457 0
      vertex 0.497379 1.93717 0
    endloop
  endfacet
  facet normal 0 0 -1
    outer loop
      vertex 0.250666 -1.98423 0
      vertex 0.374763 1.96457 0
      vertex 0.374763 -1.96457 0
    endloop
  endfacet
  facet normal 0 0 -1
    outer loop
      vertex 0.250666 -1.98423 0
      vertex 0.250666 1.98423 0
      vertex 0.374763 1.96457 0
    endloop
  endfacet
  facet normal 0 0 -1
    outer loop
      vertex 0.125581 -1.99605 0
      vertex 0.250666 1.98423 0
      vertex 0.250666 -1.98423 0
    endloop
  endfacet
  facet normal 0 0 -1
    outer loop
      vertex 0.125581 -1.99605 0
      vertex 0.125581 1.99605 0
      vertex 0.250666 1.98423 0
    endloop
  endfacet
  facet normal 0 0 -1
    outer loop
      vertex 0 -2 0
      vertex 0.125581 1.99605 0
      vertex 0.125581 -1.99605 0
    endloop
  endfacet
  facet normal 0 0 -1
    outer loop
      vertex 0 -2 0
      vertex 0 2 0
      vertex 0.125581 1.99605 0
    endloop
  endfacet
  facet normal 0 0 -1
    outer loop
      vertex -0.125581 -1.99605 0
      vertex 0 2 0
      vertex 0 -2 0
    endloop
  endfacet
  facet normal 0 0 -1
    outer loop
      vertex -0.125581 -1.99605 0
      vertex -0.125581 1.99605 0
      vertex 0 2 0
    endloop
  endfacet
  facet normal 0 0 -1
    outer loop
      vertex -0.250666 -1.98423 0
      vertex -0.125581 1.99605 0
      vertex -0.125581 -1.99605 0
    endloop
  endfacet
  facet normal 0 0 -1
    outer loop
      vertex -0.250666 -1.98423 0
      vertex -0.250666 1.98423 0
      vertex -0.125581 1.99605 0
    endloop
  endfacet
  facet normal 0 0 -1
    outer loop
      vertex -0.374763 -1.96457 0
      vertex -0.250666 1.98423 0
      vertex -0.250666 -1.98423 0
    endloop
  endfacet
  facet normal 0 0 -1
    outer loop
      vertex -0.374763 -1.96457 0
      vertex -0.374763 1.96457 0
      vertex -0.250666 1.98423 0
    endloop
  endfacet
  facet normal 0 0 -1
    outer loop
      vertex -0.497379 -1.93717 0
      vertex -0.374763 1.96457 0
      vertex -0.374763 -1.96457 0
    endloop
  endfacet
  facet normal 0 0 -1
    outer loop
      vertex -0.497379 -1.93717 0
      vertex -0.497379 1.93717 0
      vertex -0.374763 1.96457 0
    endloop
  endfacet
  facet normal 0 0 -1
    outer loop
      vertex -0.618033 -1.90211 0
      vertex -0.497379 1.93717 0
      vertex -0.497379 -1.93717 0
    endloop
  endfacet
  facet normal 0 0 -1
    outer loop
      vertex -0.618033 -1.90211 0
      vertex -0.618033 1.90211 0
      vertex -0.497379 1.93717 0
    endloop
  endfacet
  facet normal 0 0 -1
    outer loop
      vertex -0.736249 -1.85955 0
      vertex -0.618033 1.90211 0
      vertex -0.618033 -1.90211 0
    endloop
  endfacet
  facet normal 0 0 -1
    outer loop
      vertex -0.736249 -1.85955 0
      vertex -0.736249 1.85955 0
      vertex -0.618033 1.90211 0
    endloop
  endfacet
  facet normal 0 0 -1
    outer loop
      vertex -0.851558 -1.80965 0
      vertex -0.736249 1.85955 0
      vertex -0.736249 -1.85955 0
    endloop
  endfacet
  facet normal 0 0 -1
    outer loop
      vertex -0.851558 -1.80965 0
      vertex -0.851558 1.80965 0
      vertex -0.736249 1.85955 0
    endloop
  endfacet
  facet normal 0 0 -1
    outer loop
      vertex -0.963507 -1.75261 0
      vertex -0.851558 1.80965 0
      vertex -0.851558 -1.80965 0
    endloop
  endfacet
  facet normal 0 0 -1
    outer loop
      vertex -0.963507 -1.75261 0
      vertex -0.963507 1.75261 0
      vertex -0.851558 1.80965 0
    endloop
  endfacet
  facet normal 0 0 -1
    outer loop
      vertex -1.07165 -1.68865 0
      vertex -0.963507 1.75261 0
      vertex -0.963507 -1.75261 0
    endloop
  endfacet
  facet normal 0 0 -1
    outer loop
      vertex -1.07165 -1.68865 0
      vertex -1.07165 1.68865 0
      vertex -0.963507 1.75261 0
    endloop
  endfacet
  facet normal 0 0 -1
    outer loop
      vertex -1.2 -1.59908 0
      vertex -1.07165 -1.68865 0
      vertex -1.17557 -1.61803 0
    endloop
  endfacet
  facet normal 0 0 -1
    outer loop
      vertex -1.07165 -1.68865 0
      vertex -1.2 -1.59908 0
      vertex -1.07165 1.68865 0
    endloop
  endfacet
  facet normal 0 0 -1
    outer loop
      vertex -1.2 1.59908 0
      vertex -1.07165 1.68865 0
      vertex -1.2 -1.59908 0
    endloop
  endfacet
  facet normal 0 0 -1
    outer loop
      vertex -1.07165 1.68865 0
      vertex -1.2 1.59908 0
      vertex -1.17557 1.61803 0
    endloop
  endfacet
  facet normal 0.278991 0.960294 -0
    outer loop
      vertex 0.618033 1.90211 0
      vertex 0.497379 1.93717 4
      vertex 0.618033 1.90211 4
    endloop
  endfacet
  facet normal 0.278991 0.960294 0
    outer loop
      vertex 0.497379 1.93717 4
      vertex 0.618033 1.90211 0
      vertex 0.497379 1.93717 0
    endloop
  endfacet
  facet normal 0.33874 0.94088 -0
    outer loop
      vertex 0.736249 1.85955 0
      vertex 0.618033 1.90211 4
      vertex 0.736249 1.85955 4
    endloop
  endfacet
  facet normal 0.33874 0.94088 0
    outer loop
      vertex 0.618033 1.90211 4
      vertex 0.736249 1.85955 0
      vertex 0.618033 1.90211 0
    endloop
  endfacet
  facet normal 0.0941056 0.995562 -0
    outer loop
      vertex 0.250666 1.98423 0
      vertex 0.125581 1.99605 4
      vertex 0.250666 1.98423 4
    endloop
  endfacet
  facet normal 0.0941056 0.995562 0
    outer loop
      vertex 0.125581 1.99605 4
      vertex 0.250666 1.98423 0
      vertex 0.125581 1.99605 0
    endloop
  endfacet
  facet normal 0.453986 0.891009 -0
    outer loop
      vertex 0.963507 1.75261 0
      vertex 0.851558 1.80965 4
      vertex 0.963507 1.75261 4
    endloop
  endfacet
  facet normal 0.453986 0.891009 0
    outer loop
      vertex 0.851558 1.80965 4
      vertex 0.963507 1.75261 0
      vertex 0.851558 1.80965 0
    endloop
  endfacet
  facet normal 0 0 1
    outer loop
      vertex 0.618033 -1.90211 4
      vertex 0.374763 -1.96457 4
      vertex 0.497379 -1.93717 4
    endloop
  endfacet
  facet normal 0 0 1
    outer loop
      vertex 0.618033 -1.90211 4
      vertex 0.250666 -1.98423 4
      vertex 0.374763 -1.96457 4
    endloop
  endfacet
  facet normal 0 0 1
    outer loop
      vertex 0.618033 -1.90211 4
      vertex 0.125581 -1.99605 4
      vertex 0.250666 -1.98423 4
    endloop
  endfacet
  facet normal 0 0 1
    outer loop
      vertex 0.618033 -1.90211 4
      vertex 0 -2 4
      vertex 0.125581 -1.99605 4
    endloop
  endfacet
  facet normal -0 0 1
    outer loop
      vertex -0.204643 -1.98858 4
      vertex 0 -2 4
      vertex 0.618033 -1.90211 4
    endloop
  endfacet
  facet normal 0 0 1
    outer loop
      vertex 0 -2 4
      vertex -0.204643 -1.98858 4
      vertex -0.125581 -1.99605 4
    endloop
  endfacet
  facet normal 0 0 1
    outer loop
      vertex 0.374763 1.96457 4
      vertex 0.618033 1.90211 4
      vertex 0.497379 1.93717 4
    endloop
  endfacet
  facet normal 0 0 1
    outer loop
      vertex 0.250666 1.98423 4
      vertex 0.618033 1.90211 4
      vertex 0.374763 1.96457 4
    endloop
  endfacet
  facet normal 0 0 1
    outer loop
      vertex 0.125581 1.99605 4
      vertex 0.618033 1.90211 4
      vertex 0.250666 1.98423 4
    endloop
  endfacet
  facet normal 0 0 1
    outer loop
      vertex 0 2 4
      vertex 0.618033 1.90211 4
      vertex 0.125581 1.99605 4
    endloop
  endfacet
  facet normal 0 0 1
    outer loop
      vertex -0.204643 1.98858 4
      vertex 0 2 4
      vertex -0.125581 1.99605 4
    endloop
  endfacet
  facet normal 0 0 1
    outer loop
      vertex 0 2 4
      vertex -0.204643 1.98858 4
      vertex 0.618033 1.90211 4
    endloop
  endfacet
  facet normal 0 0 1
    outer loop
      vertex 1.17557 1.61803 4
      vertex 1.2 1.56611 4
      vertex 1.2 1.59908 4
    endloop
  endfacet
  facet normal 0 0 1
    outer loop
      vertex 1.07165 1.68865 4
      vertex 1.2 1.56611 4
      vertex 1.17557 1.61803 4
    endloop
  endfacet
  facet normal 0 0 1
    outer loop
      vertex 0.963507 1.75261 4
      vertex 1.2 1.56611 4
      vertex 1.07165 1.68865 4
    endloop
  endfacet
  facet normal 0 0 1
    outer loop
      vertex 0.851558 1.80965 4
      vertex 1.2 1.56611 4
      vertex 0.963507 1.75261 4
    endloop
  endfacet
  facet normal 0 0 1
    outer loop
      vertex 0.736249 1.85955 4
      vertex 1.2 1.56611 4
      vertex 0.851558 1.80965 4
    endloop
  endfacet
  facet normal 0 0 1
    outer loop
      vertex 1.2 1.56611 4
      vertex 0.736249 1.85955 4
      vertex 0.618033 1.90211 4
    endloop
  endfacet
  facet normal 0 0 1
    outer loop
      vertex -0.374763 1.96457 4
      vertex -0.212881 1.9878 4
      vertex -0.250666 1.98423 4
    endloop
  endfacet
  facet normal 0 0 1
    outer loop
      vertex -0.497379 1.93717 4
      vertex -0.212881 1.9878 4
      vertex -0.374763 1.96457 4
    endloop
  endfacet
  facet normal 0 0 1
    outer loop
      vertex -0.618033 1.90211 4
      vertex -0.212881 1.9878 4
      vertex -0.497379 1.93717 4
    endloop
  endfacet
  facet normal 0 0 1
    outer loop
      vertex -0.736249 1.85955 4
      vertex -0.212881 1.9878 4
      vertex -0.618033 1.90211 4
    endloop
  endfacet
  facet normal 0 0 1
    outer loop
      vertex -0.851558 1.80965 4
      vertex -0.212881 1.9878 4
      vertex -0.736249 1.85955 4
    endloop
  endfacet
  facet normal 0 0 1
    outer loop
      vertex -0.996177 1.73329 4
      vertex -0.851558 1.80965 4
      vertex -0.963507 1.75261 4
    endloop
  endfacet
  facet normal -0 0 1
    outer loop
      vertex -0.851558 1.80965 4
      vertex -0.996177 1.73329 4
      vertex -0.212881 1.9878 4
    endloop
  endfacet
  facet normal 0 0 1
    outer loop
      vertex -0.212881 -1.9878 4
      vertex -0.374763 -1.96457 4
      vertex -0.250666 -1.98423 4
    endloop
  endfacet
  facet normal 0 0 1
    outer loop
      vertex -0.212881 -1.9878 4
      vertex -0.497379 -1.93717 4
      vertex -0.374763 -1.96457 4
    endloop
  endfacet
  facet normal 0 0 1
    outer loop
      vertex -0.212881 -1.9878 4
      vertex -0.618033 -1.90211 4
      vertex -0.497379 -1.93717 4
    endloop
  endfacet
  facet normal 0 0 1
    outer loop
      vertex -0.212881 -1.9878 4
      vertex -0.736249 -1.85955 4
      vertex -0.618033 -1.90211 4
    endloop
  endfacet
  facet normal 0 0 1
    outer loop
      vertex -0.212881 -1.9878 4
      vertex -0.851558 -1.80965 4
      vertex -0.736249 -1.85955 4
    endloop
  endfacet
  facet normal 0 0 1
    outer loop
      vertex -0.996176 -1.73329 4
      vertex -0.851558 -1.80965 4
      vertex -0.212881 -1.9878 4
    endloop
  endfacet
  facet normal 0 0 1
    outer loop
      vertex -0.851558 -1.80965 4
      vertex -0.996176 -1.73329 4
      vertex -0.963507 -1.75261 4
    endloop
  endfacet
  facet normal 0 0 1
    outer loop
      vertex -1.2 1.55197 4
      vertex -1.07165 1.68865 4
      vertex -1.17557 1.61803 4
    endloop
  endfacet
  facet normal 0 0 1
    outer loop
      vertex -1.2 1.55197 4
      vertex -1.17557 1.61803 4
      vertex -1.2 1.59908 4
    endloop
  endfacet
  facet normal -0 0 1
    outer loop
      vertex -1.07165 1.68865 4
      vertex -1.2 1.55197 4
      vertex -1.0033 1.72908 4
    endloop
  endfacet
  facet normal 0 0 1
    outer loop
      vertex 1.2 -1.56611 4
      vertex 1.17557 -1.61803 4
      vertex 1.2 -1.59908 4
    endloop
  endfacet
  facet normal 0 0 1
    outer loop
      vertex 1.2 -1.56611 4
      vertex 1.07165 -1.68865 4
      vertex 1.17557 -1.61803 4
    endloop
  endfacet
  facet normal 0 0 1
    outer loop
      vertex 1.2 -1.56611 4
      vertex 0.963507 -1.75261 4
      vertex 1.07165 -1.68865 4
    endloop
  endfacet
  facet normal 0 0 1
    outer loop
      vertex 1.2 -1.56611 4
      vertex 0.851558 -1.80965 4
      vertex 0.963507 -1.75261 4
    endloop
  endfacet
  facet normal 0 0 1
    outer loop
      vertex 1.2 -1.56611 4
      vertex 0.736249 -1.85955 4
      vertex 0.851558 -1.80965 4
    endloop
  endfacet
  facet normal 0 -0 1
    outer loop
      vertex 0.736249 -1.85955 4
      vertex 1.2 -1.56611 4
      vertex 0.618033 -1.90211 4
    endloop
  endfacet
  facet normal 0 0 1
    outer loop
      vertex -1.2 -1.55197 4
      vertex -1.07165 -1.68865 4
      vertex -1.0033 -1.72908 4
    endloop
  endfacet
  facet normal 0 0 1
    outer loop
      vertex -1.07165 -1.68865 4
      vertex -1.2 -1.55197 4
      vertex -1.17557 -1.61803 4
    endloop
  endfacet
  facet normal 0 0 1
    outer loop
      vertex -1.17557 -1.61803 4
      vertex -1.2 -1.55197 4
      vertex -1.2 -1.59908 4
    endloop
  endfacet
  facet normal 0 0 -1
    outer loop
      vertex 1.2 -1.56611 4
      vertex 2 0 4
      vertex 1.82709 -0.813473 4
    endloop
  endfacet
  facet normal 0 0 -1
    outer loop
      vertex 1.2 -1.56611 4
      vertex 1.82709 -0.813473 4
      vertex 1.33826 -1.48629 4
    endloop
  endfacet
  facet normal 0 0 -1
    outer loop
      vertex 1.2 1.56611 4
      vertex 2 0 4
      vertex 1.2 -1.56611 4
    endloop
  endfacet
  facet normal 0 0 -1
    outer loop
      vertex 2 0 4
      vertex 1.2 1.56611 4
      vertex 1.82709 0.813473 4
    endloop
  endfacet
  facet normal 0 0 -1
    outer loop
      vertex 1.82709 0.813473 4
      vertex 1.2 1.56611 4
      vertex 1.33826 1.48629 4
    endloop
  endfacet
  facet normal 0 0 -1
    outer loop
      vertex -1.9563 -0.415823 4
      vertex -1.2 -1.55197 4
      vertex -1.61803 -1.17557 4
    endloop
  endfacet
  facet normal 0 0 -1
    outer loop
      vertex -1.2 -1.55197 4
      vertex -1.9563 -0.415823 4
      vertex -1.2 1.55197 4
    endloop
  endfacet
  facet normal 0 0 -1
    outer loop
      vertex -1.9563 0.415823 4
      vertex -1.2 1.55197 4
      vertex -1.9563 -0.415823 4
    endloop
  endfacet
  facet normal 0 0 -1
    outer loop
      vertex -1.2 1.55197 4
      vertex -1.9563 0.415823 4
      vertex -1.61803 1.17557 4
    endloop
  endfacet
  facet normal 0 -0 -1
    outer loop
      vertex -0.209057 1.98904 4
      vertex -0.204643 1.98858 4
      vertex -0.212881 1.9878 4
    endloop
  endfacet
  facet normal 0 0 -1
    outer loop
      vertex -0.996176 -1.73329 4
      vertex -1 -1.73205 4
      vertex -1.0033 -1.72908 4
    endloop
  endfacet
  facet normal 0 -0 -1
    outer loop
      vertex -0.999999 1.73205 4
      vertex -0.996177 1.73329 4
      vertex -1.0033 1.72908 4
    endloop
  endfacet
  facet normal -0 0 -1
    outer loop
      vertex -0.204643 -1.98858 4
      vertex -0.209057 -1.98904 4
      vertex -0.212881 -1.9878 4
    endloop
  endfacet
  facet normal -0.453986 0.891009 0
    outer loop
      vertex -0.851558 1.80965 0
      vertex -0.963507 1.75261 4
      vertex -0.851558 1.80965 4
    endloop
  endfacet
  facet normal -0.453986 0.891009 0
    outer loop
      vertex -0.963507 1.75261 4
      vertex -0.851558 1.80965 0
      vertex -0.963507 1.75261 0
    endloop
  endfacet
  facet normal -0.397152 0.917753 0
    outer loop
      vertex -0.736249 1.85955 0
      vertex -0.851558 1.80965 4
      vertex -0.736249 1.85955 4
    endloop
  endfacet
  facet normal -0.397152 0.917753 0
    outer loop
      vertex -0.851558 1.80965 4
      vertex -0.736249 1.85955 0
      vertex -0.851558 1.80965 0
    endloop
  endfacet
  facet normal -0.612911 0.790152 0
    outer loop
      vertex -1.17557 1.61803 0
      vertex -1.2 1.59908 4
      vertex -1.17557 1.61803 4
    endloop
  endfacet
  facet normal -0.612911 0.790152 0
    outer loop
      vertex -1.2 1.59908 4
      vertex -1.17557 1.61803 0
      vertex -1.2 1.59908 0
    endloop
  endfacet
  facet normal -0.278991 0.960294 0
    outer loop
      vertex -0.497379 1.93717 0
      vertex -0.618033 1.90211 4
      vertex -0.497379 1.93717 4
    endloop
  endfacet
  facet normal -0.278991 0.960294 0
    outer loop
      vertex -0.618033 1.90211 4
      vertex -0.497379 1.93717 0
      vertex -0.618033 1.90211 0
    endloop
  endfacet
  facet normal -0.0314165 0.999506 0
    outer loop
      vertex 0 2 0
      vertex -0.125581 1.99605 4
      vertex 0 2 4
    endloop
  endfacet
  facet normal -0.0314165 0.999506 0
    outer loop
      vertex -0.125581 1.99605 4
      vertex 0 2 0
      vertex -0.125581 1.99605 0
    endloop
  endfacet
  facet normal 0.0314165 -0.999506 0
    outer loop
      vertex 0 -2 0
      vertex 0.125581 -1.99605 4
      vertex 0 -2 4
    endloop
  endfacet
  facet normal 0.0314165 -0.999506 0
    outer loop
      vertex 0.125581 -1.99605 4
      vertex 0 -2 0
      vertex 0.125581 -1.99605 0
    endloop
  endfacet
  facet normal 0.156436 -0.987688 0
    outer loop
      vertex 0.250666 -1.98423 0
      vertex 0.374763 -1.96457 4
      vertex 0.250666 -1.98423 4
    endloop
  endfacet
  facet normal 0.156436 -0.987688 0
    outer loop
      vertex 0.374763 -1.96457 4
      vertex 0.250666 -1.98423 0
      vertex 0.374763 -1.96457 0
    endloop
  endfacet
  facet normal 0.278991 -0.960294 0
    outer loop
      vertex 0.497379 -1.93717 0
      vertex 0.618033 -1.90211 4
      vertex 0.497379 -1.93717 4
    endloop
  endfacet
  facet normal 0.278991 -0.960294 0
    outer loop
      vertex 0.618033 -1.90211 4
      vertex 0.497379 -1.93717 0
      vertex 0.618033 -1.90211 0
    endloop
  endfacet
  facet normal 0.612911 -0.790152 0
    outer loop
      vertex 1.17557 -1.61803 0
      vertex 1.2 -1.59908 4
      vertex 1.17557 -1.61803 4
    endloop
  endfacet
  facet normal 0.612911 -0.790152 0
    outer loop
      vertex 1.2 -1.59908 4
      vertex 1.17557 -1.61803 0
      vertex 1.2 -1.59908 0
    endloop
  endfacet
  facet normal 0.509044 -0.860741 0
    outer loop
      vertex 0.963507 -1.75261 0
      vertex 1.07165 -1.68865 4
      vertex 0.963507 -1.75261 4
    endloop
  endfacet
  facet normal 0.509044 -0.860741 0
    outer loop
      vertex 1.07165 -1.68865 4
      vertex 0.963507 -1.75261 0
      vertex 1.07165 -1.68865 0
    endloop
  endfacet
  facet normal 0.397152 -0.917753 0
    outer loop
      vertex 0.736249 -1.85955 0
      vertex 0.851558 -1.80965 4
      vertex 0.736249 -1.85955 4
    endloop
  endfacet
  facet normal 0.397152 -0.917753 0
    outer loop
      vertex 0.851558 -1.80965 4
      vertex 0.736249 -1.85955 0
      vertex 0.851558 -1.80965 0
    endloop
  endfacet
  facet normal -0.453986 -0.891009 0
    outer loop
      vertex -0.963507 -1.75261 0
      vertex -0.851558 -1.80965 4
      vertex -0.963507 -1.75261 4
    endloop
  endfacet
  facet normal -0.453986 -0.891009 -0
    outer loop
      vertex -0.851558 -1.80965 4
      vertex -0.963507 -1.75261 0
      vertex -0.851558 -1.80965 0
    endloop
  endfacet
  facet normal -0.562081 -0.827082 0
    outer loop
      vertex -1.17557 -1.61803 0
      vertex -1.07165 -1.68865 4
      vertex -1.17557 -1.61803 4
    endloop
  endfacet
  facet normal -0.562081 -0.827082 -0
    outer loop
      vertex -1.07165 -1.68865 4
      vertex -1.17557 -1.61803 0
      vertex -1.07165 -1.68865 0
    endloop
  endfacet
  facet normal -0.33874 -0.94088 0
    outer loop
      vertex -0.736249 -1.85955 0
      vertex -0.618033 -1.90211 4
      vertex -0.736249 -1.85955 4
    endloop
  endfacet
  facet normal -0.33874 -0.94088 -0
    outer loop
      vertex -0.618033 -1.90211 4
      vertex -0.736249 -1.85955 0
      vertex -0.618033 -1.90211 0
    endloop
  endfacet
  facet normal -0.21814 -0.975918 0
    outer loop
      vertex -0.497379 -1.93717 0
      vertex -0.374763 -1.96457 4
      vertex -0.497379 -1.93717 4
    endloop
  endfacet
  facet normal -0.21814 -0.975918 -0
    outer loop
      vertex -0.374763 -1.96457 4
      vertex -0.497379 -1.93717 0
      vertex -0.374763 -1.96457 0
    endloop
  endfacet
  facet normal -0.0941065 -0.995562 0
    outer loop
      vertex -0.250666 -1.98423 0
      vertex -0.212881 -1.9878 4
      vertex -0.250666 -1.98423 4
    endloop
  endfacet
  facet normal -0.0941057 -0.995562 -7.42951e-009
    outer loop
      vertex -0.212881 -1.9878 4
      vertex -0.250666 -1.98423 0
      vertex -0.204643 -1.98858 4
    endloop
  endfacet
  facet normal -0.0941056 -0.995562 -9.39913e-009
    outer loop
      vertex -0.125581 -1.99605 0
      vertex -0.204643 -1.98858 4
      vertex -0.250666 -1.98423 0
    endloop
  endfacet
  facet normal -0.0941051 -0.995562 0
    outer loop
      vertex -0.204643 -1.98858 4
      vertex -0.125581 -1.99605 0
      vertex -0.125581 -1.99605 4
    endloop
  endfacet
  facet normal 0.0941056 -0.995562 0
    outer loop
      vertex 0.125581 -1.99605 0
      vertex 0.250666 -1.98423 4
      vertex 0.125581 -1.99605 4
    endloop
  endfacet
  facet normal 0.0941056 -0.995562 0
    outer loop
      vertex 0.250666 -1.98423 4
      vertex 0.125581 -1.99605 0
      vertex 0.250666 -1.98423 0
    endloop
  endfacet
  facet normal 0.33874 -0.94088 0
    outer loop
      vertex 0.618033 -1.90211 0
      vertex 0.736249 -1.85955 4
      vertex 0.618033 -1.90211 4
    endloop
  endfacet
  facet normal 0.33874 -0.94088 0
    outer loop
      vertex 0.736249 -1.85955 4
      vertex 0.618033 -1.90211 0
      vertex 0.736249 -1.85955 0
    endloop
  endfacet
  facet normal 0.453986 -0.891009 0
    outer loop
      vertex 0.851558 -1.80965 0
      vertex 0.963507 -1.75261 4
      vertex 0.851558 -1.80965 4
    endloop
  endfacet
  facet normal 0.453986 -0.891009 0
    outer loop
      vertex 0.963507 -1.75261 4
      vertex 0.851558 -1.80965 0
      vertex 0.963507 -1.75261 0
    endloop
  endfacet
  facet normal -0.612911 -0.790152 0
    outer loop
      vertex -1.2 -1.59908 0
      vertex -1.17557 -1.61803 4
      vertex -1.2 -1.59908 4
    endloop
  endfacet
  facet normal -0.612911 -0.790152 -0
    outer loop
      vertex -1.17557 -1.61803 4
      vertex -1.2 -1.59908 0
      vertex -1.17557 -1.61803 0
    endloop
  endfacet
  facet normal -0.397152 -0.917753 0
    outer loop
      vertex -0.851558 -1.80965 0
      vertex -0.736249 -1.85955 4
      vertex -0.851558 -1.80965 4
    endloop
  endfacet
  facet normal -0.397152 -0.917753 -0
    outer loop
      vertex -0.736249 -1.85955 4
      vertex -0.851558 -1.80965 0
      vertex -0.736249 -1.85955 0
    endloop
  endfacet
  facet normal -0.509044 -0.86074 0
    outer loop
      vertex -1.07165 -1.68865 0
      vertex -1.0033 -1.72908 4
      vertex -1.07165 -1.68865 4
    endloop
  endfacet
  facet normal -0.509034 -0.860746 -2.36508e-007
    outer loop
      vertex -1.0033 -1.72908 4
      vertex -1.07165 -1.68865 0
      vertex -0.996176 -1.73329 4
    endloop
  endfacet
  facet normal -0.509044 -0.860741 1.11023e-008
    outer loop
      vertex -0.963507 -1.75261 0
      vertex -0.996176 -1.73329 4
      vertex -1.07165 -1.68865 0
    endloop
  endfacet
  facet normal -0.509045 -0.86074 0
    outer loop
      vertex -0.996176 -1.73329 4
      vertex -0.963507 -1.75261 0
      vertex -0.963507 -1.75261 4
    endloop
  endfacet
  facet normal -0.278991 -0.960294 0
    outer loop
      vertex -0.618033 -1.90211 0
      vertex -0.497379 -1.93717 4
      vertex -0.618033 -1.90211 4
    endloop
  endfacet
  facet normal -0.278991 -0.960294 -0
    outer loop
      vertex -0.497379 -1.93717 4
      vertex -0.618033 -1.90211 0
      vertex -0.497379 -1.93717 0
    endloop
  endfacet
  facet normal 1 -0 0
    outer loop
      vertex 1.2 1.56611 4
      vertex 1.2 1.59908 0
      vertex 1.2 1.59908 4
    endloop
  endfacet
  facet normal 1 -0 0
    outer loop
      vertex 1.2 -1.56611 4
      vertex 1.2 1.59908 0
      vertex 1.2 1.56611 4
    endloop
  endfacet
  facet normal 1 0 0
    outer loop
      vertex 1.2 -1.59908 0
      vertex 1.2 -1.56611 4
      vertex 1.2 -1.59908 4
    endloop
  endfacet
  facet normal 1 0 0
    outer loop
      vertex 1.2 -1.56611 4
      vertex 1.2 -1.59908 0
      vertex 1.2 1.59908 0
    endloop
  endfacet
  facet normal -1 0 0
    outer loop
      vertex -1.2 1.59908 0
      vertex -1.2 1.55197 4
      vertex -1.2 1.59908 4
    endloop
  endfacet
  facet normal -1 0 0
    outer loop
      vertex -1.2 1.59908 0
      vertex -1.2 -1.55197 4
      vertex -1.2 1.55197 4
    endloop
  endfacet
  facet normal -1 0 0
    outer loop
      vertex -1.2 -1.59908 0
      vertex -1.2 -1.55197 4
      vertex -1.2 1.59908 0
    endloop
  endfacet
  facet normal -1 -0 0
    outer loop
      vertex -1.2 -1.55197 4
      vertex -1.2 -1.59908 0
      vertex -1.2 -1.59908 4
    endloop
  endfacet
  facet normal 0.978148 0.207912 0
    outer loop
      vertex 5 0 16
      vertex 4.56773 2.03368 5
      vertex 4.56773 2.03368 16
    endloop
  endfacet
  facet normal 0.978148 0.207912 0
    outer loop
      vertex 4.56773 2.03368 5
      vertex 5 0 16
      vertex 5 0 5
    endloop
  endfacet
  facet normal -1 0 0
    outer loop
      vertex -4.89074 -1.03956 5
      vertex -4.89074 1.03956 16
      vertex -4.89074 1.03956 5
    endloop
  endfacet
  facet normal -1 -0 0
    outer loop
      vertex -4.89074 1.03956 16
      vertex -4.89074 -1.03956 5
      vertex -4.89074 -1.03956 16
    endloop
  endfacet
  facet normal -0.309017 0.951057 0
    outer loop
      vertex -0.522642 4.97261 5
      vertex -2.5 4.33013 16
      vertex -0.522642 4.97261 16
    endloop
  endfacet
  facet normal -0.309017 0.951057 0
    outer loop
      vertex -2.5 4.33013 16
      vertex -0.522642 4.97261 5
      vertex -2.5 4.33013 5
    endloop
  endfacet
  facet normal -0.66913 0.743145 0
    outer loop
      vertex -2.5 4.33013 5
      vertex -4.04508 2.93893 16
      vertex -2.5 4.33013 16
    endloop
  endfacet
  facet normal -0.66913 0.743145 0
    outer loop
      vertex -4.04508 2.93893 16
      vertex -2.5 4.33013 5
      vertex -4.04508 2.93893 5
    endloop
  endfacet
  facet normal 0 0 -1
    outer loop
      vertex 2 0 5
      vertex 5 0 5
      vertex 4.56773 -2.03368 5
    endloop
  endfacet
  facet normal 0 0 -1
    outer loop
      vertex 1.82709 -0.813473 5
      vertex 4.56773 -2.03368 5
      vertex 3.34565 -3.71572 5
    endloop
  endfacet
  facet normal 0 0 -1
    outer loop
      vertex 5 0 5
      vertex 2 0 5
      vertex 4.56773 2.03368 5
    endloop
  endfacet
  facet normal 0 0 -1
    outer loop
      vertex 1.82709 0.813473 5
      vertex 4.56773 2.03368 5
      vertex 2 0 5
    endloop
  endfacet
  facet normal 0 0 -1
    outer loop
      vertex 4.56773 -2.03368 5
      vertex 1.82709 -0.813473 5
      vertex 2 0 5
    endloop
  endfacet
  facet normal 0 0 -1
    outer loop
      vertex 1.33826 -1.48629 5
      vertex 3.34565 -3.71572 5
      vertex 1.54508 -4.75528 5
    endloop
  endfacet
  facet normal 0 0 -1
    outer loop
      vertex 3.34565 -3.71572 5
      vertex 1.33826 -1.48629 5
      vertex 1.82709 -0.813473 5
    endloop
  endfacet
  facet normal 0 0 -1
    outer loop
      vertex 1.54508 -4.75528 5
      vertex 0.618033 -1.90211 5
      vertex 1.33826 -1.48629 5
    endloop
  endfacet
  facet normal 0 0 -1
    outer loop
      vertex 1.54508 -4.75528 5
      vertex -0.209057 -1.98904 5
      vertex 0.618033 -1.90211 5
    endloop
  endfacet
  facet normal 0 0 -1
    outer loop
      vertex -0.522642 -4.97261 5
      vertex -0.209057 -1.98904 5
      vertex 1.54508 -4.75528 5
    endloop
  endfacet
  facet normal 0 0 -1
    outer loop
      vertex -0.522642 -4.97261 5
      vertex -1 -1.73205 5
      vertex -0.209057 -1.98904 5
    endloop
  endfacet
  facet normal 0 0 -1
    outer loop
      vertex -2.5 -4.33013 5
      vertex -1 -1.73205 5
      vertex -0.522642 -4.97261 5
    endloop
  endfacet
  facet normal -0 0 -1
    outer loop
      vertex -1 -1.73205 5
      vertex -2.5 -4.33013 5
      vertex -1.61803 -1.17557 5
    endloop
  endfacet
  facet normal 0 0 -1
    outer loop
      vertex -4.89074 1.03956 5
      vertex -1.9563 0.415823 5
      vertex -1.9563 -0.415823 5
    endloop
  endfacet
  facet normal 0 0 -1
    outer loop
      vertex -4.04508 -2.93893 5
      vertex -1.61803 -1.17557 5
      vertex -2.5 -4.33013 5
    endloop
  endfacet
  facet normal -0 0 -1
    outer loop
      vertex -1.61803 -1.17557 5
      vertex -4.04508 -2.93893 5
      vertex -1.9563 -0.415823 5
    endloop
  endfacet
  facet normal 0 0 -1
    outer loop
      vertex -4.89074 -1.03956 5
      vertex -1.9563 -0.415823 5
      vertex -4.04508 -2.93893 5
    endloop
  endfacet
  facet normal 0 0 -1
    outer loop
      vertex -1.9563 0.415823 5
      vertex -4.04508 2.93893 5
      vertex -2.5 4.33013 5
    endloop
  endfacet
  facet normal 0 0 -1
    outer loop
      vertex -4.89074 1.03956 5
      vertex -1.9563 -0.415823 5
      vertex -4.89074 -1.03956 5
    endloop
  endfacet
  facet normal 0 0 -1
    outer loop
      vertex -1.9563 0.415823 5
      vertex -4.89074 1.03956 5
      vertex -4.04508 2.93893 5
    endloop
  endfacet
  facet normal -0 0 -1
    outer loop
      vertex 4.56773 2.03368 5
      vertex 1.82709 0.813473 5
      vertex 3.34565 3.71572 5
    endloop
  endfacet
  facet normal 0 0 -1
    outer loop
      vertex 1.33826 1.48629 5
      vertex 3.34565 3.71572 5
      vertex 1.82709 0.813473 5
    endloop
  endfacet
  facet normal -0 0 -1
    outer loop
      vertex 3.34565 3.71572 5
      vertex 1.33826 1.48629 5
      vertex 1.54508 4.75528 5
    endloop
  endfacet
  facet normal 0 0 -1
    outer loop
      vertex 0.618033 1.90211 5
      vertex 1.54508 4.75528 5
      vertex 1.33826 1.48629 5
    endloop
  endfacet
  facet normal 0 0 -1
    outer loop
      vertex -0.209057 1.98904 5
      vertex 1.54508 4.75528 5
      vertex 0.618033 1.90211 5
    endloop
  endfacet
  facet normal 0 0 -1
    outer loop
      vertex -0.209057 1.98904 5
      vertex -0.522642 4.97261 5
      vertex 1.54508 4.75528 5
    endloop
  endfacet
  facet normal 0 0 -1
    outer loop
      vertex -0.999999 1.73205 5
      vertex -0.522642 4.97261 5
      vertex -0.209057 1.98904 5
    endloop
  endfacet
  facet normal 0 0 -1
    outer loop
      vertex -2.5 4.33013 5
      vertex -0.999999 1.73205 5
      vertex -1.61803 1.17557 5
    endloop
  endfacet
  facet normal 0 0 -1
    outer loop
      vertex -2.5 4.33013 5
      vertex -1.61803 1.17557 5
      vertex -1.9563 0.415823 5
    endloop
  endfacet
  facet normal 0 0 -1
    outer loop
      vertex -0.999999 1.73205 5
      vertex -2.5 4.33013 5
      vertex -0.522642 4.97261 5
    endloop
  endfacet
  facet normal 0.5 0.866025 -0
    outer loop
      vertex 3.34565 3.71572 5
      vertex 1.54508 4.75528 16
      vertex 3.34565 3.71572 16
    endloop
  endfacet
  facet normal 0.5 0.866025 0
    outer loop
      vertex 1.54508 4.75528 16
      vertex 3.34565 3.71572 5
      vertex 1.54508 4.75528 5
    endloop
  endfacet
  facet normal 0.809017 0.587785 0
    outer loop
      vertex 4.56773 2.03368 16
      vertex 3.34565 3.71572 5
      vertex 3.34565 3.71572 16
    endloop
  endfacet
  facet normal 0.809017 0.587785 0
    outer loop
      vertex 3.34565 3.71572 5
      vertex 4.56773 2.03368 16
      vertex 4.56773 2.03368 5
    endloop
  endfacet
  facet normal 0.104528 0.994522 -0
    outer loop
      vertex 1.54508 4.75528 5
      vertex -0.522642 4.97261 16
      vertex 1.54508 4.75528 16
    endloop
  endfacet
  facet normal 0.104528 0.994522 0
    outer loop
      vertex -0.522642 4.97261 16
      vertex 1.54508 4.75528 5
      vertex -0.522642 4.97261 5
    endloop
  endfacet
  facet normal -0.913546 0.406737 0
    outer loop
      vertex -4.89074 1.03956 5
      vertex -4.04508 2.93893 16
      vertex -4.04508 2.93893 5
    endloop
  endfacet
  facet normal -0.913546 0.406737 0
    outer loop
      vertex -4.04508 2.93893 16
      vertex -4.89074 1.03956 5
      vertex -4.89074 1.03956 16
    endloop
  endfacet
  facet normal 0 0 1
    outer loop
      vertex 4.56773 2.03368 16
      vertex 4.56773 -2.03368 16
      vertex 5 0 16
    endloop
  endfacet
  facet normal 0 0 1
    outer loop
      vertex 3.34565 3.71572 16
      vertex 4.56773 -2.03368 16
      vertex 4.56773 2.03368 16
    endloop
  endfacet
  facet normal 0 0 1
    outer loop
      vertex 3.34565 3.71572 16
      vertex 3.34565 -3.71572 16
      vertex 4.56773 -2.03368 16
    endloop
  endfacet
  facet normal 0 0 1
    outer loop
      vertex 1.54508 4.75528 16
      vertex 3.34565 -3.71572 16
      vertex 3.34565 3.71572 16
    endloop
  endfacet
  facet normal 0 0 1
    outer loop
      vertex 1.54508 4.75528 16
      vertex 1.54508 -4.75528 16
      vertex 3.34565 -3.71572 16
    endloop
  endfacet
  facet normal 0 0 1
    outer loop
      vertex -0.522642 4.97261 16
      vertex 1.54508 -4.75528 16
      vertex 1.54508 4.75528 16
    endloop
  endfacet
  facet normal 0 0 1
    outer loop
      vertex -0.522642 4.97261 16
      vertex -0.522642 -4.97261 16
      vertex 1.54508 -4.75528 16
    endloop
  endfacet
  facet normal -0 0 1
    outer loop
      vertex -2.5 4.33013 16
      vertex -0.522642 -4.97261 16
      vertex -0.522642 4.97261 16
    endloop
  endfacet
  facet normal 0 0 1
    outer loop
      vertex -2.5 4.33013 16
      vertex -2.5 -4.33013 16
      vertex -0.522642 -4.97261 16
    endloop
  endfacet
  facet normal -0 0 1
    outer loop
      vertex -4.04508 2.93893 16
      vertex -2.5 -4.33013 16
      vertex -2.5 4.33013 16
    endloop
  endfacet
  facet normal 0 0 1
    outer loop
      vertex -4.04508 2.93893 16
      vertex -4.04508 -2.93893 16
      vertex -2.5 -4.33013 16
    endloop
  endfacet
  facet normal -0 0 1
    outer loop
      vertex -4.89074 1.03956 16
      vertex -4.04508 -2.93893 16
      vertex -4.04508 2.93893 16
    endloop
  endfacet
  facet normal 0 0 1
    outer loop
      vertex -4.04508 -2.93893 16
      vertex -4.89074 1.03956 16
      vertex -4.89074 -1.03956 16
    endloop
  endfacet
  facet normal 0.978148 -0.207912 0
    outer loop
      vertex 4.56773 -2.03368 16
      vertex 5 0 5
      vertex 5 0 16
    endloop
  endfacet
  facet normal 0.978148 -0.207912 0
    outer loop
      vertex 5 0 5
      vertex 4.56773 -2.03368 16
      vertex 4.56773 -2.03368 5
    endloop
  endfacet
  facet normal -0.309017 -0.951057 0
    outer loop
      vertex -2.5 -4.33013 5
      vertex -0.522642 -4.97261 16
      vertex -2.5 -4.33013 16
    endloop
  endfacet
  facet normal -0.309017 -0.951057 -0
    outer loop
      vertex -0.522642 -4.97261 16
      vertex -2.5 -4.33013 5
      vertex -0.522642 -4.97261 5
    endloop
  endfacet
  facet normal -0.913546 -0.406737 0
    outer loop
      vertex -4.04508 -2.93893 5
      vertex -4.89074 -1.03956 16
      vertex -4.89074 -1.03956 5
    endloop
  endfacet
  facet normal -0.913546 -0.406737 0
    outer loop
      vertex -4.89074 -1.03956 16
      vertex -4.04508 -2.93893 5
      vertex -4.04508 -2.93893 16
    endloop
  endfacet
  facet normal 0.809017 -0.587785 0
    outer loop
      vertex 3.34565 -3.71572 16
      vertex 4.56773 -2.03368 5
      vertex 4.56773 -2.03368 16
    endloop
  endfacet
  facet normal 0.809017 -0.587785 0
    outer loop
      vertex 4.56773 -2.03368 5
      vertex 3.34565 -3.71572 16
      vertex 3.34565 -3.71572 5
    endloop
  endfacet
  facet normal 0.5 -0.866025 0
    outer loop
      vertex 1.54508 -4.75528 5
      vertex 3.34565 -3.71572 16
      vertex 1.54508 -4.75528 16
    endloop
  endfacet
  facet normal 0.5 -0.866025 0
    outer loop
      vertex 3.34565 -3.71572 16
      vertex 1.54508 -4.75528 5
      vertex 3.34565 -3.71572 5
    endloop
  endfacet
  facet normal 0.104528 -0.994522 0
    outer loop
      vertex -0.522642 -4.97261 5
      vertex 1.54508 -4.75528 16
      vertex -0.522642 -4.97261 16
    endloop
  endfacet
  facet normal 0.104528 -0.994522 0
    outer loop
      vertex 1.54508 -4.75528 16
      vertex -0.522642 -4.97261 5
      vertex 1.54508 -4.75528 5
    endloop
  endfacet
  facet normal -0.669131 -0.743145 0
    outer loop
      vertex -4.04508 -2.93893 5
      vertex -2.5 -4.33013 16
      vertex -4.04508 -2.93893 16
    endloop
  endfacet
  facet normal -0.669131 -0.743145 -0
    outer loop
      vertex -2.5 -4.33013 16
      vertex -4.04508 -2.93893 5
      vertex -2.5 -4.33013 5
    endloop
  endfacet
  facet normal 0.978147 0.207913 0
    outer loop
      vertex 2 0 5
      vertex 1.82709 0.813473 4
      vertex 1.82709 0.813473 5
    endloop
  endfacet
  facet normal 0.978147 0.207913 0
    outer loop
      vertex 1.82709 0.813473 4
      vertex 2 0 5
      vertex 2 0 4
    endloop
  endfacet
  facet normal -1 0 0
    outer loop
      vertex -1.9563 -0.415823 4
      vertex -1.9563 0.415823 5
      vertex -1.9563 0.415823 4
    endloop
  endfacet
  facet normal -1 -0 0
    outer loop
      vertex -1.9563 0.415823 5
      vertex -1.9563 -0.415823 4
      vertex -1.9563 -0.415823 5
    endloop
  endfacet
  facet normal 0.104528 0.994522 -0
    outer loop
      vertex 0.618033 1.90211 4
      vertex -0.209057 1.98904 5
      vertex 0.618033 1.90211 5
    endloop
  endfacet
  facet normal 0.104528 0.994522 3.82882e-008
    outer loop
      vertex -0.204643 1.98858 4
      vertex -0.209057 1.98904 5
      vertex 0.618033 1.90211 4
    endloop
  endfacet
  facet normal 0.104519 0.994523 0
    outer loop
      vertex -0.209057 1.98904 5
      vertex -0.204643 1.98858 4
      vertex -0.209057 1.98904 4
    endloop
  endfacet
  facet normal 0.104519 -0.994523 0
    outer loop
      vertex -0.204643 -1.98858 4
      vertex -0.209057 -1.98904 5
      vertex -0.209057 -1.98904 4
    endloop
  endfacet
  facet normal 0.104528 -0.994522 3.80839e-008
    outer loop
      vertex -0.209057 -1.98904 5
      vertex -0.204643 -1.98858 4
      vertex 0.618033 -1.90211 5
    endloop
  endfacet
  facet normal 0.104528 -0.994522 0
    outer loop
      vertex 0.618033 -1.90211 5
      vertex -0.204643 -1.98858 4
      vertex 0.618033 -1.90211 4
    endloop
  endfacet
  facet normal 0.500001 0.866025 0
    outer loop
      vertex 1.2 1.56611 4
      vertex 1.33826 1.48629 5
      vertex 1.33826 1.48629 4
    endloop
  endfacet
  facet normal 0.5 0.866025 4.44346e-009
    outer loop
      vertex 1.33826 1.48629 5
      vertex 1.2 1.56611 4
      vertex 0.618033 1.90211 5
    endloop
  endfacet
  facet normal 0.5 0.866025 0
    outer loop
      vertex 0.618033 1.90211 5
      vertex 1.2 1.56611 4
      vertex 0.618033 1.90211 4
    endloop
  endfacet
  facet normal 0.809017 0.587785 0
    outer loop
      vertex 1.82709 0.813473 5
      vertex 1.33826 1.48629 4
      vertex 1.33826 1.48629 5
    endloop
  endfacet
  facet normal 0.809017 0.587785 0
    outer loop
      vertex 1.33826 1.48629 4
      vertex 1.82709 0.813473 5
      vertex 1.82709 0.813473 4
    endloop
  endfacet
  facet normal -0.66913 0.743146 0
    outer loop
      vertex -1.0033 1.72908 4
      vertex -0.999999 1.73205 5
      vertex -0.999999 1.73205 4
    endloop
  endfacet
  facet normal -0.66913 0.743145 1.9389e-009
    outer loop
      vertex -1.2 1.55197 4
      vertex -0.999999 1.73205 5
      vertex -1.0033 1.72908 4
    endloop
  endfacet
  facet normal -0.66913 0.743146 -1.26137e-008
    outer loop
      vertex -0.999999 1.73205 5
      vertex -1.2 1.55197 4
      vertex -1.61803 1.17557 5
    endloop
  endfacet
  facet normal -0.66913 0.743146 0
    outer loop
      vertex -1.61803 1.17557 5
      vertex -1.2 1.55197 4
      vertex -1.61803 1.17557 4
    endloop
  endfacet
  facet normal -0.913545 0.406737 0
    outer loop
      vertex -1.9563 0.415823 4
      vertex -1.61803 1.17557 5
      vertex -1.61803 1.17557 4
    endloop
  endfacet
  facet normal -0.913545 0.406737 0
    outer loop
      vertex -1.61803 1.17557 5
      vertex -1.9563 0.415823 4
      vertex -1.9563 0.415823 5
    endloop
  endfacet
  facet normal -0.30901 0.951059 0
    outer loop
      vertex -0.212881 1.9878 4
      vertex -0.209057 1.98904 5
      vertex -0.209057 1.98904 4
    endloop
  endfacet
  facet normal -0.309018 0.951056 3.23807e-008
    outer loop
      vertex -0.209057 1.98904 5
      vertex -0.212881 1.9878 4
      vertex -0.999999 1.73205 5
    endloop
  endfacet
  facet normal -0.309018 0.951056 2.69614e-008
    outer loop
      vertex -0.996177 1.73329 4
      vertex -0.999999 1.73205 5
      vertex -0.212881 1.9878 4
    endloop
  endfacet
  facet normal -0.309024 0.951054 0
    outer loop
      vertex -0.999999 1.73205 5
      vertex -0.996177 1.73329 4
      vertex -0.999999 1.73205 4
    endloop
  endfacet
  facet normal 0.978147 -0.207913 0
    outer loop
      vertex 1.82709 -0.813473 5
      vertex 2 0 4
      vertex 2 0 5
    endloop
  endfacet
  facet normal 0.978147 -0.207913 0
    outer loop
      vertex 2 0 4
      vertex 1.82709 -0.813473 5
      vertex 1.82709 -0.813473 4
    endloop
  endfacet
  facet normal -0.309006 -0.95106 0
    outer loop
      vertex -0.996176 -1.73329 4
      vertex -1 -1.73205 5
      vertex -1 -1.73205 4
    endloop
  endfacet
  facet normal -0.309017 -0.951056 -4.93747e-008
    outer loop
      vertex -1 -1.73205 5
      vertex -0.996176 -1.73329 4
      vertex -0.209057 -1.98904 5
    endloop
  endfacet
  facet normal -0.309017 -0.951056 3.59752e-008
    outer loop
      vertex -0.212881 -1.9878 4
      vertex -0.209057 -1.98904 5
      vertex -0.996176 -1.73329 4
    endloop
  endfacet
  facet normal -0.309009 -0.951059 -0
    outer loop
      vertex -0.209057 -1.98904 5
      vertex -0.212881 -1.9878 4
      vertex -0.209057 -1.98904 4
    endloop
  endfacet
  facet normal -0.913545 -0.406737 0
    outer loop
      vertex -1.61803 -1.17557 4
      vertex -1.9563 -0.415823 5
      vertex -1.9563 -0.415823 4
    endloop
  endfacet
  facet normal -0.913545 -0.406737 0
    outer loop
      vertex -1.9563 -0.415823 5
      vertex -1.61803 -1.17557 4
      vertex -1.61803 -1.17557 5
    endloop
  endfacet
  facet normal 0.809017 -0.587785 0
    outer loop
      vertex 1.33826 -1.48629 5
      vertex 1.82709 -0.813473 4
      vertex 1.82709 -0.813473 5
    endloop
  endfacet
  facet normal 0.809017 -0.587785 0
    outer loop
      vertex 1.82709 -0.813473 4
      vertex 1.33826 -1.48629 5
      vertex 1.33826 -1.48629 4
    endloop
  endfacet
  facet normal 0.5 -0.866025 0
    outer loop
      vertex 1.2 -1.56611 4
      vertex 0.618033 -1.90211 5
      vertex 0.618033 -1.90211 4
    endloop
  endfacet
  facet normal 0.5 -0.866025 4.44346e-009
    outer loop
      vertex 0.618033 -1.90211 5
      vertex 1.2 -1.56611 4
      vertex 1.33826 -1.48629 5
    endloop
  endfacet
  facet normal 0.500001 -0.866025 0
    outer loop
      vertex 1.33826 -1.48629 5
      vertex 1.2 -1.56611 4
      vertex 1.33826 -1.48629 4
    endloop
  endfacet
  facet normal -0.66913 -0.743145 0
    outer loop
      vertex -1.2 -1.55197 4
      vertex -1.61803 -1.17557 5
      vertex -1.61803 -1.17557 4
    endloop
  endfacet
  facet normal -0.66913 -0.743145 -1.29251e-009
    outer loop
      vertex -1.61803 -1.17557 5
      vertex -1.2 -1.55197 4
      vertex -1 -1.73205 5
    endloop
  endfacet
  facet normal -0.669131 -0.743145 5.07925e-008
    outer loop
      vertex -1.0033 -1.72908 4
      vertex -1 -1.73205 5
      vertex -1.2 -1.55197 4
    endloop
  endfacet
  facet normal -0.669122 -0.743153 -0
    outer loop
      vertex -1 -1.73205 5
      vertex -1.0033 -1.72908 4
      vertex -1 -1.73205 4
    endloop
  endfacet
endsolid OpenSCAD_Model
