solid OpenSCAD_Model
  facet normal -1 0 0
    outer loop
      vertex 0 0 0
      vertex 0 20 6.52704
      vertex 0 20 0
    endloop
  endfacet
  facet normal -1 -0 0
    outer loop
      vertex 0 20 6.52704
      vertex 0 0 0
      vertex 0 0 6.52704
    endloop
  endfacet
  facet normal -0 0 1
    outer loop
      vertex 14.501 20 18.5
      vertex 25.499 0 18.5
      vertex 25.499 20 18.5
    endloop
  endfacet
  facet normal 0 0 1
    outer loop
      vertex 25.499 0 18.5
      vertex 14.501 20 18.5
      vertex 14.501 0 18.5
    endloop
  endfacet
  facet normal 1 -0 0
    outer loop
      vertex 40 0 6.52704
      vertex 40 20 0
      vertex 40 20 6.52704
    endloop
  endfacet
  facet normal 1 0 0
    outer loop
      vertex 40 20 0
      vertex 40 0 6.52704
      vertex 40 0 0
    endloop
  endfacet
  facet normal 0 1 0
    outer loop
      vertex 22.6289 20 4.94526
      vertex 25.499 20 18.5
      vertex 40 20 6.52704
    endloop
  endfacet
  facet normal 0 1 0
    outer loop
      vertex 40 20 6.52704
      vertex 25.499 20 18.5
      vertex 25.5949 20 18.6143
    endloop
  endfacet
  facet normal 0 1 0
    outer loop
      vertex 14.501 20 18.5
      vertex 0 20 6.52704
      vertex 14.4051 20 18.6143
    endloop
  endfacet
  facet normal -0 1 0
    outer loop
      vertex 21.2773 20 6.21448
      vertex 25.499 20 18.5
      vertex 21.6075 20 6.03298
    endloop
  endfacet
  facet normal 0 1 -0
    outer loop
      vertex 19.8116 20 6.49408
      vertex 14.501 20 18.5
      vertex 20.1884 20 6.49408
    endloop
  endfacet
  facet normal 0 1 0
    outer loop
      vertex 25.499 20 18.5
      vertex 20.1884 20 6.49408
      vertex 14.501 20 18.5
    endloop
  endfacet
  facet normal -0 1 0
    outer loop
      vertex 20.1884 20 6.49408
      vertex 25.499 20 18.5
      vertex 20.5621 20 6.44686
    endloop
  endfacet
  facet normal -0 1 0
    outer loop
      vertex 20.5621 20 6.44686
      vertex 25.499 20 18.5
      vertex 20.9271 20 6.35317
    endloop
  endfacet
  facet normal -0 1 0
    outer loop
      vertex 20.9271 20 6.35317
      vertex 25.499 20 18.5
      vertex 21.2773 20 6.21448
    endloop
  endfacet
  facet normal 0 1 0
    outer loop
      vertex 25.499 20 18.5
      vertex 21.9123 20 5.81154
      vertex 21.6075 20 6.03298
    endloop
  endfacet
  facet normal 0 1 0
    outer loop
      vertex 25.499 20 18.5
      vertex 22.1869 20 5.55364
      vertex 21.9123 20 5.81154
    endloop
  endfacet
  facet normal 0 1 0
    outer loop
      vertex 25.499 20 18.5
      vertex 22.4271 20 5.26336
      vertex 22.1869 20 5.55364
    endloop
  endfacet
  facet normal 0 1 0
    outer loop
      vertex 25.499 20 18.5
      vertex 22.6289 20 4.94526
      vertex 22.4271 20 5.26336
    endloop
  endfacet
  facet normal 0 1 0
    outer loop
      vertex 40 20 6.52704
      vertex 22.7893 20 4.60437
      vertex 22.6289 20 4.94526
    endloop
  endfacet
  facet normal 0 1 0
    outer loop
      vertex 40 20 6.52704
      vertex 22.9058 20 4.24607
      vertex 22.7893 20 4.60437
    endloop
  endfacet
  facet normal 0 1 0
    outer loop
      vertex 40 20 6.52704
      vertex 22.9763 20 3.876
      vertex 22.9058 20 4.24607
    endloop
  endfacet
  facet normal 0 1 0
    outer loop
      vertex 40 20 6.52704
      vertex 22.9872 20 3.70284
      vertex 22.9763 20 3.876
    endloop
  endfacet
  facet normal 0 1 0
    outer loop
      vertex 40 20 6.52704
      vertex 23 20 3.5
      vertex 22.9872 20 3.70284
    endloop
  endfacet
  facet normal 0 1 -0
    outer loop
      vertex 40 20 0
      vertex 23 20 3.5
      vertex 40 20 6.52704
    endloop
  endfacet
  facet normal 0 1 0
    outer loop
      vertex 23 20 3.5
      vertex 40 20 0
      vertex 22.9891 20 3.32684
    endloop
  endfacet
  facet normal 0 1 0
    outer loop
      vertex 22.9891 20 3.32684
      vertex 40 20 0
      vertex 22.9763 20 3.124
    endloop
  endfacet
  facet normal 0 1 0
    outer loop
      vertex 22.9763 20 3.124
      vertex 40 20 0
      vertex 22.9058 20 2.75393
    endloop
  endfacet
  facet normal 0 1 0
    outer loop
      vertex 22.9058 20 2.75393
      vertex 40 20 0
      vertex 22.7893 20 2.39563
    endloop
  endfacet
  facet normal 0 1 0
    outer loop
      vertex 22.7893 20 2.39563
      vertex 40 20 0
      vertex 22.6289 20 2.05474
    endloop
  endfacet
  facet normal 0 1 0
    outer loop
      vertex 22 20 0
      vertex 22.6289 20 2.05474
      vertex 40 20 0
    endloop
  endfacet
  facet normal 0 1 0
    outer loop
      vertex 22.6289 20 2.05474
      vertex 22 20 0
      vertex 22.4271 20 1.73664
    endloop
  endfacet
  facet normal -0 1 0
    outer loop
      vertex 21.9842 20 0.250666
      vertex 22.4271 20 1.73664
      vertex 22 20 0
    endloop
  endfacet
  facet normal 0 1 0
    outer loop
      vertex 21.9123 20 1.18846
      vertex 21.7526 20 0.963507
      vertex 21.7053 20 1.03808
    endloop
  endfacet
  facet normal 0 1 0
    outer loop
      vertex 21.9123 20 1.18846
      vertex 21.8596 20 0.736249
      vertex 21.7526 20 0.963507
    endloop
  endfacet
  facet normal 0 1 0
    outer loop
      vertex 22.1869 20 1.44636
      vertex 21.8596 20 0.736249
      vertex 21.9123 20 1.18846
    endloop
  endfacet
  facet normal -0 1 0
    outer loop
      vertex 21.9372 20 0.497379
      vertex 22.1869 20 1.44636
      vertex 21.9842 20 0.250666
    endloop
  endfacet
  facet normal -0 1 0
    outer loop
      vertex 21.8596 20 0.736249
      vertex 22.1869 20 1.44636
      vertex 21.9372 20 0.497379
    endloop
  endfacet
  facet normal 0 1 0
    outer loop
      vertex 22.4271 20 1.73664
      vertex 21.9842 20 0.250666
      vertex 22.1869 20 1.44636
    endloop
  endfacet
  facet normal 0 1 -0
    outer loop
      vertex 19.4379 20 6.44686
      vertex 14.501 20 18.5
      vertex 19.8116 20 6.49408
    endloop
  endfacet
  facet normal 0 1 -0
    outer loop
      vertex 19.0729 20 6.35317
      vertex 14.501 20 18.5
      vertex 19.4379 20 6.44686
    endloop
  endfacet
  facet normal 0 1 -0
    outer loop
      vertex 18.7227 20 6.21448
      vertex 14.501 20 18.5
      vertex 19.0729 20 6.35317
    endloop
  endfacet
  facet normal 0 1 -0
    outer loop
      vertex 18.3925 20 6.03298
      vertex 14.501 20 18.5
      vertex 18.7227 20 6.21448
    endloop
  endfacet
  facet normal 0 1 -0
    outer loop
      vertex 18.0877 20 5.81154
      vertex 14.501 20 18.5
      vertex 18.3925 20 6.03298
    endloop
  endfacet
  facet normal 0 1 -0
    outer loop
      vertex 17.8131 20 5.55364
      vertex 14.501 20 18.5
      vertex 18.0877 20 5.81154
    endloop
  endfacet
  facet normal 0 1 -0
    outer loop
      vertex 17.5729 20 5.26336
      vertex 14.501 20 18.5
      vertex 17.8131 20 5.55364
    endloop
  endfacet
  facet normal 0 1 -0
    outer loop
      vertex 17.3711 20 4.94526
      vertex 14.501 20 18.5
      vertex 17.5729 20 5.26336
    endloop
  endfacet
  facet normal 0 1 0
    outer loop
      vertex 14.501 20 18.5
      vertex 17.3711 20 4.94526
      vertex 0 20 6.52704
    endloop
  endfacet
  facet normal 0 1 -0
    outer loop
      vertex 17.2107 20 4.60437
      vertex 0 20 6.52704
      vertex 17.3711 20 4.94526
    endloop
  endfacet
  facet normal 0 1 -0
    outer loop
      vertex 17.0942 20 4.24607
      vertex 0 20 6.52704
      vertex 17.2107 20 4.60437
    endloop
  endfacet
  facet normal 0 1 -0
    outer loop
      vertex 17.0237 20 3.876
      vertex 0 20 6.52704
      vertex 17.0942 20 4.24607
    endloop
  endfacet
  facet normal 0 1 -0
    outer loop
      vertex 17 20 3.5
      vertex 0 20 6.52704
      vertex 17.0237 20 3.876
    endloop
  endfacet
  facet normal 0 1 0
    outer loop
      vertex 0 20 0
      vertex 17 20 3.5
      vertex 17.0237 20 3.124
    endloop
  endfacet
  facet normal 0 1 0
    outer loop
      vertex 0 20 0
      vertex 17.0237 20 3.124
      vertex 17.0942 20 2.75393
    endloop
  endfacet
  facet normal 0 1 0
    outer loop
      vertex 0 20 0
      vertex 17.0942 20 2.75393
      vertex 17.2107 20 2.39563
    endloop
  endfacet
  facet normal 0 1 0
    outer loop
      vertex 0 20 0
      vertex 17.2107 20 2.39563
      vertex 17.3711 20 2.05474
    endloop
  endfacet
  facet normal 0 1 0
    outer loop
      vertex 18 20 0
      vertex 17.3711 20 2.05474
      vertex 17.5729 20 1.73664
    endloop
  endfacet
  facet normal 0 1 0
    outer loop
      vertex 18.0158 20 0.250666
      vertex 17.5729 20 1.73664
      vertex 17.8131 20 1.44636
    endloop
  endfacet
  facet normal 0 1 0
    outer loop
      vertex 18.1404 20 0.736249
      vertex 17.8131 20 1.44636
      vertex 18.0877 20 1.18846
    endloop
  endfacet
  facet normal 0 1 -0
    outer loop
      vertex 18.2474 20 0.963507
      vertex 18.0877 20 1.18846
      vertex 18.2947 20 1.03808
    endloop
  endfacet
  facet normal 0 1 -0
    outer loop
      vertex 18.1404 20 0.736249
      vertex 18.0877 20 1.18846
      vertex 18.2474 20 0.963507
    endloop
  endfacet
  facet normal 0 1 0
    outer loop
      vertex 17.8131 20 1.44636
      vertex 18.1404 20 0.736249
      vertex 18.0628 20 0.497379
    endloop
  endfacet
  facet normal 0 1 0
    outer loop
      vertex 17.8131 20 1.44636
      vertex 18.0628 20 0.497379
      vertex 18.0158 20 0.250666
    endloop
  endfacet
  facet normal 0 1 0
    outer loop
      vertex 17.5729 20 1.73664
      vertex 18.0158 20 0.250666
      vertex 18 20 0
    endloop
  endfacet
  facet normal 0 1 0
    outer loop
      vertex 17.3711 20 2.05474
      vertex 18 20 0
      vertex 0 20 0
    endloop
  endfacet
  facet normal 0 1 0
    outer loop
      vertex 17 20 3.5
      vertex 0 20 0
      vertex 0 20 6.52704
    endloop
  endfacet
  facet normal 0 0 -1
    outer loop
      vertex 40 0 0
      vertex 39 1 0
      vertex 40 20 0
    endloop
  endfacet
  facet normal 0 0 -1
    outer loop
      vertex 40 0 0
      vertex 1 1 0
      vertex 39 1 0
    endloop
  endfacet
  facet normal -0 0 -1
    outer loop
      vertex 1 1 0
      vertex 0 0 0
      vertex 1 19 0
    endloop
  endfacet
  facet normal 0 0 -1
    outer loop
      vertex 0 0 0
      vertex 1 1 0
      vertex 40 0 0
    endloop
  endfacet
  facet normal 0 0 -1
    outer loop
      vertex 39 19 0
      vertex 40 20 0
      vertex 39 1 0
    endloop
  endfacet
  facet normal 0 0 -1
    outer loop
      vertex 22 20 0
      vertex 39 19 0
      vertex 22 19 0
    endloop
  endfacet
  facet normal 0 0 -1
    outer loop
      vertex 39 19 0
      vertex 22 20 0
      vertex 40 20 0
    endloop
  endfacet
  facet normal 0 0 -1
    outer loop
      vertex 1 19 0
      vertex 18 20 0
      vertex 18 19 0
    endloop
  endfacet
  facet normal 0 0 -1
    outer loop
      vertex 1 19 0
      vertex 0 20 0
      vertex 18 20 0
    endloop
  endfacet
  facet normal 0 0 -1
    outer loop
      vertex 0 20 0
      vertex 1 19 0
      vertex 0 0 0
    endloop
  endfacet
  facet normal 0 -1 0
    outer loop
      vertex 17.3711 0 4.94526
      vertex 14.501 0 18.5
      vertex 0 0 6.52704
    endloop
  endfacet
  facet normal 0 -1 0
    outer loop
      vertex 0 0 6.52704
      vertex 14.501 0 18.5
      vertex 14.4051 0 18.6143
    endloop
  endfacet
  facet normal 0 -1 0
    outer loop
      vertex 25.499 0 18.5
      vertex 40 0 6.52704
      vertex 25.5949 0 18.6143
    endloop
  endfacet
  facet normal -0 -1 0
    outer loop
      vertex 18.7227 0 6.21448
      vertex 14.501 0 18.5
      vertex 18.3925 0 6.03298
    endloop
  endfacet
  facet normal 0 -1 0
    outer loop
      vertex 20.1884 0 6.49408
      vertex 25.499 0 18.5
      vertex 19.8116 0 6.49408
    endloop
  endfacet
  facet normal 0 -1 0
    outer loop
      vertex 14.501 0 18.5
      vertex 19.8116 0 6.49408
      vertex 25.499 0 18.5
    endloop
  endfacet
  facet normal -0 -1 0
    outer loop
      vertex 19.8116 0 6.49408
      vertex 14.501 0 18.5
      vertex 19.4379 0 6.44686
    endloop
  endfacet
  facet normal -0 -1 0
    outer loop
      vertex 19.4379 0 6.44686
      vertex 14.501 0 18.5
      vertex 19.0729 0 6.35317
    endloop
  endfacet
  facet normal -0 -1 0
    outer loop
      vertex 19.0729 0 6.35317
      vertex 14.501 0 18.5
      vertex 18.7227 0 6.21448
    endloop
  endfacet
  facet normal 0 -1 0
    outer loop
      vertex 14.501 0 18.5
      vertex 18.0877 0 5.81154
      vertex 18.3925 0 6.03298
    endloop
  endfacet
  facet normal 0 -1 0
    outer loop
      vertex 14.501 0 18.5
      vertex 17.8131 0 5.55364
      vertex 18.0877 0 5.81154
    endloop
  endfacet
  facet normal 0 -1 0
    outer loop
      vertex 14.501 0 18.5
      vertex 17.5729 0 5.26336
      vertex 17.8131 0 5.55364
    endloop
  endfacet
  facet normal 0 -1 0
    outer loop
      vertex 14.501 0 18.5
      vertex 17.3711 0 4.94526
      vertex 17.5729 0 5.26336
    endloop
  endfacet
  facet normal 0 -1 0
    outer loop
      vertex 0 0 6.52704
      vertex 17.2107 0 4.60437
      vertex 17.3711 0 4.94526
    endloop
  endfacet
  facet normal 0 -1 0
    outer loop
      vertex 0 0 6.52704
      vertex 17.0942 0 4.24607
      vertex 17.2107 0 4.60437
    endloop
  endfacet
  facet normal 0 -1 0
    outer loop
      vertex 0 0 6.52704
      vertex 17.0237 0 3.876
      vertex 17.0942 0 4.24607
    endloop
  endfacet
  facet normal 0 -1 0
    outer loop
      vertex 0 0 6.52704
      vertex 17 0 3.5
      vertex 17.0237 0 3.876
    endloop
  endfacet
  facet normal 0 -1 0
    outer loop
      vertex 0 0 0
      vertex 17 0 3.5
      vertex 0 0 6.52704
    endloop
  endfacet
  facet normal 0 -1 -0
    outer loop
      vertex 17 0 3.5
      vertex 0 0 0
      vertex 17.0237 0 3.124
    endloop
  endfacet
  facet normal 0 -1 -0
    outer loop
      vertex 17.0237 0 3.124
      vertex 0 0 0
      vertex 17.0942 0 2.75393
    endloop
  endfacet
  facet normal 0 -1 -0
    outer loop
      vertex 17.0942 0 2.75393
      vertex 0 0 0
      vertex 17.2107 0 2.39563
    endloop
  endfacet
  facet normal 0 -1 -0
    outer loop
      vertex 17.2107 0 2.39563
      vertex 0 0 0
      vertex 17.3711 0 2.05474
    endloop
  endfacet
  facet normal 0 -1 -0
    outer loop
      vertex 17.3711 0 2.05474
      vertex 0 0 0
      vertex 17.5729 0 1.73664
    endloop
  endfacet
  facet normal 0 -1 -0
    outer loop
      vertex 17.5729 0 1.73664
      vertex 0 0 0
      vertex 17.8131 0 1.44636
    endloop
  endfacet
  facet normal 0 -1 -0
    outer loop
      vertex 17.8131 0 1.44636
      vertex 0 0 0
      vertex 18.0877 0 1.18846
    endloop
  endfacet
  facet normal 0 -1 -0
    outer loop
      vertex 18.0877 0 1.18846
      vertex 0 0 0
      vertex 18.3925 0 0.967016
    endloop
  endfacet
  facet normal 0 -1 -0
    outer loop
      vertex 18.3925 0 0.967016
      vertex 0 0 0
      vertex 18.7227 0 0.785519
    endloop
  endfacet
  facet normal 0 -1 -0
    outer loop
      vertex 19.8116 0 0.505919
      vertex 0 0 0
      vertex 20.1884 0 0.505919
    endloop
  endfacet
  facet normal 0 -1 -0
    outer loop
      vertex 19.4379 0 0.553138
      vertex 0 0 0
      vertex 19.8116 0 0.505919
    endloop
  endfacet
  facet normal 0 -1 -0
    outer loop
      vertex 19.0729 0 0.64683
      vertex 0 0 0
      vertex 19.4379 0 0.553138
    endloop
  endfacet
  facet normal 0 -1 -0
    outer loop
      vertex 18.7227 0 0.785519
      vertex 0 0 0
      vertex 19.0729 0 0.64683
    endloop
  endfacet
  facet normal 0 -1 0
    outer loop
      vertex 20.5621 0 6.44686
      vertex 25.499 0 18.5
      vertex 20.1884 0 6.49408
    endloop
  endfacet
  facet normal 0 -1 0
    outer loop
      vertex 20.9271 0 6.35317
      vertex 25.499 0 18.5
      vertex 20.5621 0 6.44686
    endloop
  endfacet
  facet normal 0 -1 0
    outer loop
      vertex 21.2773 0 6.21448
      vertex 25.499 0 18.5
      vertex 20.9271 0 6.35317
    endloop
  endfacet
  facet normal 0 -1 0
    outer loop
      vertex 21.6075 0 6.03298
      vertex 25.499 0 18.5
      vertex 21.2773 0 6.21448
    endloop
  endfacet
  facet normal 0 -1 0
    outer loop
      vertex 21.9123 0 5.81154
      vertex 25.499 0 18.5
      vertex 21.6075 0 6.03298
    endloop
  endfacet
  facet normal 0 -1 0
    outer loop
      vertex 22.1869 0 5.55364
      vertex 25.499 0 18.5
      vertex 21.9123 0 5.81154
    endloop
  endfacet
  facet normal 0 -1 0
    outer loop
      vertex 22.4271 0 5.26336
      vertex 25.499 0 18.5
      vertex 22.1869 0 5.55364
    endloop
  endfacet
  facet normal 0 -1 0
    outer loop
      vertex 22.6289 0 4.94526
      vertex 25.499 0 18.5
      vertex 22.4271 0 5.26336
    endloop
  endfacet
  facet normal 0 -1 -0
    outer loop
      vertex 25.499 0 18.5
      vertex 22.6289 0 4.94526
      vertex 40 0 6.52704
    endloop
  endfacet
  facet normal 0 -1 0
    outer loop
      vertex 22.7893 0 4.60437
      vertex 40 0 6.52704
      vertex 22.6289 0 4.94526
    endloop
  endfacet
  facet normal 0 -1 0
    outer loop
      vertex 22.9058 0 4.24607
      vertex 40 0 6.52704
      vertex 22.7893 0 4.60437
    endloop
  endfacet
  facet normal 0 -1 0
    outer loop
      vertex 22.9763 0 3.876
      vertex 40 0 6.52704
      vertex 22.9058 0 4.24607
    endloop
  endfacet
  facet normal 0 -1 0
    outer loop
      vertex 22.9997 0 3.50495
      vertex 40 0 6.52704
      vertex 22.9763 0 3.876
    endloop
  endfacet
  facet normal 0 -1 0
    outer loop
      vertex 23 0 3.5
      vertex 40 0 6.52704
      vertex 22.9997 0 3.50495
    endloop
  endfacet
  facet normal 0 -1 0
    outer loop
      vertex 40 0 0
      vertex 23 0 3.5
      vertex 22.9767 0 3.12895
    endloop
  endfacet
  facet normal 0 -1 0
    outer loop
      vertex 40 0 0
      vertex 22.9767 0 3.12895
      vertex 22.9763 0 3.124
    endloop
  endfacet
  facet normal 0 -1 0
    outer loop
      vertex 40 0 0
      vertex 22.9763 0 3.124
      vertex 22.9058 0 2.75393
    endloop
  endfacet
  facet normal 0 -1 0
    outer loop
      vertex 40 0 0
      vertex 22.9058 0 2.75393
      vertex 22.7893 0 2.39563
    endloop
  endfacet
  facet normal 0 -1 0
    outer loop
      vertex 40 0 0
      vertex 22.7893 0 2.39563
      vertex 22.6289 0 2.05474
    endloop
  endfacet
  facet normal 0 -1 0
    outer loop
      vertex 40 0 0
      vertex 22.6289 0 2.05474
      vertex 22.4271 0 1.73664
    endloop
  endfacet
  facet normal 0 -1 0
    outer loop
      vertex 40 0 0
      vertex 22.4271 0 1.73664
      vertex 22.1869 0 1.44636
    endloop
  endfacet
  facet normal 0 -1 0
    outer loop
      vertex 40 0 0
      vertex 22.1869 0 1.44636
      vertex 21.9123 0 1.18846
    endloop
  endfacet
  facet normal 0 -1 0
    outer loop
      vertex 40 0 0
      vertex 21.9123 0 1.18846
      vertex 21.6075 0 0.967016
    endloop
  endfacet
  facet normal 0 -1 0
    outer loop
      vertex 40 0 0
      vertex 21.6075 0 0.967016
      vertex 21.2773 0 0.785519
    endloop
  endfacet
  facet normal 0 -1 0
    outer loop
      vertex 40 0 0
      vertex 21.2773 0 0.785519
      vertex 20.9271 0 0.64683
    endloop
  endfacet
  facet normal 0 -1 0
    outer loop
      vertex 23 0 3.5
      vertex 40 0 0
      vertex 40 0 6.52704
    endloop
  endfacet
  facet normal 0 -1 0
    outer loop
      vertex 20.5621 0 0.553138
      vertex 40 0 0
      vertex 20.9271 0 0.64683
    endloop
  endfacet
  facet normal 0 -1 0
    outer loop
      vertex 20.1884 0 0.505919
      vertex 40 0 0
      vertex 20.5621 0 0.553138
    endloop
  endfacet
  facet normal 0 -1 0
    outer loop
      vertex 40 0 0
      vertex 20.1884 0 0.505919
      vertex 0 0 0
    endloop
  endfacet
  facet normal -0.998023 0 0.0628454
    outer loop
      vertex 22.9763 0 3.124
      vertex 22.9773 1 3.13884
      vertex 22.9763 1 3.124
    endloop
  endfacet
  facet normal -0.998031 1.91855e-006 0.0627166
    outer loop
      vertex 22.9773 1 3.13884
      vertex 22.9763 0 3.124
      vertex 22.9767 0 3.12895
    endloop
  endfacet
  facet normal -0.998027 0 0.0627922
    outer loop
      vertex 22.9763 19 3.124
      vertex 22.9891 20 3.32684
      vertex 22.9763 20 3.124
    endloop
  endfacet
  facet normal -0.998026 -7.73664e-007 0.062796
    outer loop
      vertex 22.9891 20 3.32684
      vertex 22.9763 19 3.124
      vertex 22.9885 19 3.31695
    endloop
  endfacet
  facet normal -0.998027 1.18226e-006 0.0627908
    outer loop
      vertex 22.9767 0 3.12895
      vertex 23 1 3.5
      vertex 22.9773 1 3.13884
    endloop
  endfacet
  facet normal -0.998027 0 0.0627939
    outer loop
      vertex 23 1 3.5
      vertex 22.9767 0 3.12895
      vertex 23 0 3.5
    endloop
  endfacet
  facet normal -0.998027 -7.52451e-007 0.0627939
    outer loop
      vertex 22.9885 19 3.31695
      vertex 23 20 3.5
      vertex 22.9891 20 3.32684
    endloop
  endfacet
  facet normal -0.998027 0 0.0627898
    outer loop
      vertex 23 20 3.5
      vertex 22.9885 19 3.31695
      vertex 23 19 3.5
    endloop
  endfacet
  facet normal 0.125333 0 0.992115
    outer loop
      vertex 19.4379 1 0.553138
      vertex 19.8116 0 0.505919
      vertex 19.8116 1 0.505919
    endloop
  endfacet
  facet normal 0.125333 0 0.992115
    outer loop
      vertex 19.8116 0 0.505919
      vertex 19.4379 1 0.553138
      vertex 19.4379 0 0.553138
    endloop
  endfacet
  facet normal -0.125333 0 -0.992115
    outer loop
      vertex 20.1884 0 6.49408
      vertex 20.5621 1 6.44686
      vertex 20.5621 0 6.44686
    endloop
  endfacet
  facet normal -0.125333 0 -0.992115
    outer loop
      vertex 20.5621 1 6.44686
      vertex 20.1884 0 6.49408
      vertex 20.1884 1 6.49408
    endloop
  endfacet
  facet normal -0.125333 0 -0.992115
    outer loop
      vertex 20.1884 19 6.49408
      vertex 20.5621 20 6.44686
      vertex 20.5621 19 6.44686
    endloop
  endfacet
  facet normal -0.125333 0 -0.992115
    outer loop
      vertex 20.5621 20 6.44686
      vertex 20.1884 19 6.49408
      vertex 20.1884 20 6.49408
    endloop
  endfacet
  facet normal -0.770511 0 -0.637427
    outer loop
      vertex 22.4271 0 5.26336
      vertex 22.1869 1 5.55364
      vertex 22.4271 1 5.26336
    endloop
  endfacet
  facet normal -0.770511 -0 -0.637427
    outer loop
      vertex 22.1869 1 5.55364
      vertex 22.4271 0 5.26336
      vertex 22.1869 0 5.55364
    endloop
  endfacet
  facet normal -0.770511 0 -0.637427
    outer loop
      vertex 22.4271 19 5.26336
      vertex 22.1869 20 5.55364
      vertex 22.4271 20 5.26336
    endloop
  endfacet
  facet normal -0.770511 -0 -0.637427
    outer loop
      vertex 22.1869 20 5.55364
      vertex 22.4271 19 5.26336
      vertex 22.1869 19 5.55364
    endloop
  endfacet
  facet normal -0.684549 0 0.728967
    outer loop
      vertex 21.9123 1 1.18846
      vertex 22.1869 0 1.44636
      vertex 22.1869 1 1.44636
    endloop
  endfacet
  facet normal -0.684549 0 0.728967
    outer loop
      vertex 22.1869 0 1.44636
      vertex 21.9123 1 1.18846
      vertex 21.9123 0 1.18846
    endloop
  endfacet
  facet normal -0.684549 0 0.728967
    outer loop
      vertex 21.9123 20 1.18846
      vertex 22.1869 19 1.44636
      vertex 22.1869 20 1.44636
    endloop
  endfacet
  facet normal -0.684549 0 0.728967
    outer loop
      vertex 22.1869 19 1.44636
      vertex 21.9123 20 1.18846
      vertex 21.9123 19 1.18846
    endloop
  endfacet
  facet normal -0.951056 0 -0.309019
    outer loop
      vertex 22.9058 0 4.24607
      vertex 22.7893 1 4.60437
      vertex 22.9058 1 4.24607
    endloop
  endfacet
  facet normal -0.951056 -0 -0.309019
    outer loop
      vertex 22.7893 1 4.60437
      vertex 22.9058 0 4.24607
      vertex 22.7893 0 4.60437
    endloop
  endfacet
  facet normal -0.951056 0 -0.309019
    outer loop
      vertex 22.9058 19 4.24607
      vertex 22.7893 20 4.60437
      vertex 22.9058 20 4.24607
    endloop
  endfacet
  facet normal -0.951056 -0 -0.309019
    outer loop
      vertex 22.7893 20 4.60437
      vertex 22.9058 19 4.24607
      vertex 22.7893 19 4.60437
    endloop
  endfacet
  facet normal -0.904827 0 0.42578
    outer loop
      vertex 22.6289 0 2.05474
      vertex 22.7893 1 2.39563
      vertex 22.6289 1 2.05474
    endloop
  endfacet
  facet normal -0.904827 0 0.42578
    outer loop
      vertex 22.7893 1 2.39563
      vertex 22.6289 0 2.05474
      vertex 22.7893 0 2.39563
    endloop
  endfacet
  facet normal -0.904827 0 0.42578
    outer loop
      vertex 22.6289 19 2.05474
      vertex 22.7893 20 2.39563
      vertex 22.6289 20 2.05474
    endloop
  endfacet
  facet normal -0.904827 0 0.42578
    outer loop
      vertex 22.7893 20 2.39563
      vertex 22.6289 19 2.05474
      vertex 22.7893 19 2.39563
    endloop
  endfacet
  facet normal -0.982288 0 0.187377
    outer loop
      vertex 22.9058 0 2.75393
      vertex 22.9763 1 3.124
      vertex 22.9058 1 2.75393
    endloop
  endfacet
  facet normal -0.982288 0 0.187377
    outer loop
      vertex 22.9763 1 3.124
      vertex 22.9058 0 2.75393
      vertex 22.9763 0 3.124
    endloop
  endfacet
  facet normal -0.982288 0 0.187377
    outer loop
      vertex 22.9058 19 2.75393
      vertex 22.9763 20 3.124
      vertex 22.9058 20 2.75393
    endloop
  endfacet
  facet normal -0.982288 0 0.187377
    outer loop
      vertex 22.9763 20 3.124
      vertex 22.9058 19 2.75393
      vertex 22.9763 19 3.124
    endloop
  endfacet
  facet normal -0.368128 0 0.929775
    outer loop
      vertex 20.9271 1 0.64683
      vertex 21.2773 0 0.785519
      vertex 21.2773 1 0.785519
    endloop
  endfacet
  facet normal -0.368128 0 0.929775
    outer loop
      vertex 21.2773 0 0.785519
      vertex 20.9271 1 0.64683
      vertex 20.9271 0 0.64683
    endloop
  endfacet
  facet normal -0.587783 0 0.809019
    outer loop
      vertex 21.6075 1 0.967016
      vertex 21.9123 0 1.18846
      vertex 21.9123 1 1.18846
    endloop
  endfacet
  facet normal -0.587783 0 0.809019
    outer loop
      vertex 21.9123 0 1.18846
      vertex 21.6075 1 0.967016
      vertex 21.6075 0 0.967016
    endloop
  endfacet
  facet normal -0.587783 0 0.809019
    outer loop
      vertex 21.7053 20 1.03808
      vertex 21.9123 19 1.18846
      vertex 21.9123 20 1.18846
    endloop
  endfacet
  facet normal -0.587783 0 0.809019
    outer loop
      vertex 21.9123 19 1.18846
      vertex 21.7053 20 1.03808
      vertex 21.7053 19 1.03808
    endloop
  endfacet
  facet normal 0.998027 -0 0.062788
    outer loop
      vertex 17 0 3.5
      vertex 17.0237 1 3.124
      vertex 17 1 3.5
    endloop
  endfacet
  facet normal 0.998027 0 0.062788
    outer loop
      vertex 17.0237 1 3.124
      vertex 17 0 3.5
      vertex 17.0237 0 3.124
    endloop
  endfacet
  facet normal 0.998027 -0 0.062788
    outer loop
      vertex 17 19 3.5
      vertex 17.0237 20 3.124
      vertex 17 20 3.5
    endloop
  endfacet
  facet normal 0.998027 0 0.062788
    outer loop
      vertex 17.0237 20 3.124
      vertex 17 19 3.5
      vertex 17.0237 19 3.124
    endloop
  endfacet
  facet normal 0.125333 0 -0.992115
    outer loop
      vertex 19.4379 0 6.44686
      vertex 19.8116 1 6.49408
      vertex 19.8116 0 6.49408
    endloop
  endfacet
  facet normal 0.125333 0 -0.992115
    outer loop
      vertex 19.8116 1 6.49408
      vertex 19.4379 0 6.44686
      vertex 19.4379 1 6.44686
    endloop
  endfacet
  facet normal 0.125333 0 -0.992115
    outer loop
      vertex 19.4379 19 6.44686
      vertex 19.8116 20 6.49408
      vertex 19.8116 19 6.49408
    endloop
  endfacet
  facet normal 0.125333 0 -0.992115
    outer loop
      vertex 19.8116 20 6.49408
      vertex 19.4379 19 6.44686
      vertex 19.4379 20 6.44686
    endloop
  endfacet
  facet normal -0.248688 0 -0.968584
    outer loop
      vertex 20.5621 0 6.44686
      vertex 20.9271 1 6.35317
      vertex 20.9271 0 6.35317
    endloop
  endfacet
  facet normal -0.248688 0 -0.968584
    outer loop
      vertex 20.9271 1 6.35317
      vertex 20.5621 0 6.44686
      vertex 20.5621 1 6.44686
    endloop
  endfacet
  facet normal -0.248688 0 -0.968584
    outer loop
      vertex 20.5621 19 6.44686
      vertex 20.9271 20 6.35317
      vertex 20.9271 19 6.35317
    endloop
  endfacet
  facet normal -0.248688 0 -0.968584
    outer loop
      vertex 20.9271 20 6.35317
      vertex 20.5621 19 6.44686
      vertex 20.5621 20 6.44686
    endloop
  endfacet
  facet normal -0.951056 0 0.309019
    outer loop
      vertex 22.7893 0 2.39563
      vertex 22.9058 1 2.75393
      vertex 22.7893 1 2.39563
    endloop
  endfacet
  facet normal -0.951056 0 0.309019
    outer loop
      vertex 22.9058 1 2.75393
      vertex 22.7893 0 2.39563
      vertex 22.9058 0 2.75393
    endloop
  endfacet
  facet normal -0.951056 0 0.309019
    outer loop
      vertex 22.7893 19 2.39563
      vertex 22.9058 20 2.75393
      vertex 22.7893 20 2.39563
    endloop
  endfacet
  facet normal -0.951056 0 0.309019
    outer loop
      vertex 22.9058 20 2.75393
      vertex 22.7893 19 2.39563
      vertex 22.9058 19 2.75393
    endloop
  endfacet
  facet normal -0.770511 0 0.637427
    outer loop
      vertex 22.1869 0 1.44636
      vertex 22.4271 1 1.73664
      vertex 22.1869 1 1.44636
    endloop
  endfacet
  facet normal -0.770511 0 0.637427
    outer loop
      vertex 22.4271 1 1.73664
      vertex 22.1869 0 1.44636
      vertex 22.4271 0 1.73664
    endloop
  endfacet
  facet normal -0.770511 0 0.637427
    outer loop
      vertex 22.1869 19 1.44636
      vertex 22.4271 20 1.73664
      vertex 22.1869 20 1.44636
    endloop
  endfacet
  facet normal -0.770511 0 0.637427
    outer loop
      vertex 22.4271 20 1.73664
      vertex 22.1869 19 1.44636
      vertex 22.4271 19 1.73664
    endloop
  endfacet
  facet normal -0.844329 0 0.535825
    outer loop
      vertex 22.4271 0 1.73664
      vertex 22.6289 1 2.05474
      vertex 22.4271 1 1.73664
    endloop
  endfacet
  facet normal -0.844329 0 0.535825
    outer loop
      vertex 22.6289 1 2.05474
      vertex 22.4271 0 1.73664
      vertex 22.6289 0 2.05474
    endloop
  endfacet
  facet normal -0.844329 0 0.535825
    outer loop
      vertex 22.4271 19 1.73664
      vertex 22.6289 20 2.05474
      vertex 22.4271 20 1.73664
    endloop
  endfacet
  facet normal -0.844329 0 0.535825
    outer loop
      vertex 22.6289 20 2.05474
      vertex 22.4271 19 1.73664
      vertex 22.6289 19 2.05474
    endloop
  endfacet
  facet normal -0.125333 0 0.992115
    outer loop
      vertex 20.1884 1 0.505919
      vertex 20.5621 0 0.553138
      vertex 20.5621 1 0.553138
    endloop
  endfacet
  facet normal -0.125333 0 0.992115
    outer loop
      vertex 20.5621 0 0.553138
      vertex 20.1884 1 0.505919
      vertex 20.1884 0 0.505919
    endloop
  endfacet
  facet normal -0.248688 0 0.968584
    outer loop
      vertex 20.5621 1 0.553138
      vertex 20.9271 0 0.64683
      vertex 20.9271 1 0.64683
    endloop
  endfacet
  facet normal -0.248688 0 0.968584
    outer loop
      vertex 20.9271 0 0.64683
      vertex 20.5621 1 0.553138
      vertex 20.5621 0 0.553138
    endloop
  endfacet
  facet normal -0 0 1
    outer loop
      vertex 19.8116 1 0.505919
      vertex 20.1884 0 0.505919
      vertex 20.1884 1 0.505919
    endloop
  endfacet
  facet normal 0 0 1
    outer loop
      vertex 20.1884 0 0.505919
      vertex 19.8116 1 0.505919
      vertex 19.8116 0 0.505919
    endloop
  endfacet
  facet normal -0.481754 0 0.876307
    outer loop
      vertex 21.2773 1 0.785519
      vertex 21.6075 0 0.967016
      vertex 21.6075 1 0.967016
    endloop
  endfacet
  facet normal -0.481754 0 0.876307
    outer loop
      vertex 21.6075 0 0.967016
      vertex 21.2773 1 0.785519
      vertex 21.2773 0 0.785519
    endloop
  endfacet
  facet normal 0.998027 0 -0.0627879
    outer loop
      vertex 17.0237 0 3.876
      vertex 17 1 3.5
      vertex 17.0237 1 3.876
    endloop
  endfacet
  facet normal 0.998027 0 -0.0627879
    outer loop
      vertex 17 1 3.5
      vertex 17.0237 0 3.876
      vertex 17 0 3.5
    endloop
  endfacet
  facet normal 0.998027 0 -0.0627879
    outer loop
      vertex 17.0237 19 3.876
      vertex 17 20 3.5
      vertex 17.0237 20 3.876
    endloop
  endfacet
  facet normal 0.998027 0 -0.0627879
    outer loop
      vertex 17 20 3.5
      vertex 17.0237 19 3.876
      vertex 17 19 3.5
    endloop
  endfacet
  facet normal 0.684549 0 0.728967
    outer loop
      vertex 17.8131 1 1.44636
      vertex 18.0877 0 1.18846
      vertex 18.0877 1 1.18846
    endloop
  endfacet
  facet normal 0.684549 0 0.728967
    outer loop
      vertex 18.0877 0 1.18846
      vertex 17.8131 1 1.44636
      vertex 17.8131 0 1.44636
    endloop
  endfacet
  facet normal 0.684549 0 0.728967
    outer loop
      vertex 17.8131 20 1.44636
      vertex 18.0877 19 1.18846
      vertex 18.0877 20 1.18846
    endloop
  endfacet
  facet normal 0.684549 0 0.728967
    outer loop
      vertex 18.0877 19 1.18846
      vertex 17.8131 20 1.44636
      vertex 17.8131 19 1.44636
    endloop
  endfacet
  facet normal -0.587783 0 -0.809019
    outer loop
      vertex 21.6075 0 6.03298
      vertex 21.9123 1 5.81154
      vertex 21.9123 0 5.81154
    endloop
  endfacet
  facet normal -0.587783 0 -0.809019
    outer loop
      vertex 21.9123 1 5.81154
      vertex 21.6075 0 6.03298
      vertex 21.6075 1 6.03298
    endloop
  endfacet
  facet normal -0.587783 0 -0.809019
    outer loop
      vertex 21.6075 19 6.03298
      vertex 21.9123 20 5.81154
      vertex 21.9123 19 5.81154
    endloop
  endfacet
  facet normal -0.587783 0 -0.809019
    outer loop
      vertex 21.9123 20 5.81154
      vertex 21.6075 19 6.03298
      vertex 21.6075 20 6.03298
    endloop
  endfacet
  facet normal -0.844329 0 -0.535825
    outer loop
      vertex 22.6289 0 4.94526
      vertex 22.4271 1 5.26336
      vertex 22.6289 1 4.94526
    endloop
  endfacet
  facet normal -0.844329 -0 -0.535825
    outer loop
      vertex 22.4271 1 5.26336
      vertex 22.6289 0 4.94526
      vertex 22.4271 0 5.26336
    endloop
  endfacet
  facet normal -0.844329 0 -0.535825
    outer loop
      vertex 22.6289 19 4.94526
      vertex 22.4271 20 5.26336
      vertex 22.6289 20 4.94526
    endloop
  endfacet
  facet normal -0.844329 -0 -0.535825
    outer loop
      vertex 22.4271 20 5.26336
      vertex 22.6289 19 4.94526
      vertex 22.4271 19 5.26336
    endloop
  endfacet
  facet normal -0.982288 0 -0.187377
    outer loop
      vertex 22.9763 0 3.876
      vertex 22.9058 1 4.24607
      vertex 22.9763 1 3.876
    endloop
  endfacet
  facet normal -0.982288 -0 -0.187377
    outer loop
      vertex 22.9058 1 4.24607
      vertex 22.9763 0 3.876
      vertex 22.9058 0 4.24607
    endloop
  endfacet
  facet normal -0.982288 0 -0.187377
    outer loop
      vertex 22.9763 19 3.876
      vertex 22.9058 20 4.24607
      vertex 22.9763 20 3.876
    endloop
  endfacet
  facet normal -0.982288 -0 -0.187377
    outer loop
      vertex 22.9058 20 4.24607
      vertex 22.9763 19 3.876
      vertex 22.9058 19 4.24607
    endloop
  endfacet
  facet normal 0.844326 0 -0.535829
    outer loop
      vertex 17.5729 0 5.26336
      vertex 17.3711 1 4.94526
      vertex 17.5729 1 5.26336
    endloop
  endfacet
  facet normal 0.844326 0 -0.535829
    outer loop
      vertex 17.3711 1 4.94526
      vertex 17.5729 0 5.26336
      vertex 17.3711 0 4.94526
    endloop
  endfacet
  facet normal 0.844326 0 -0.535829
    outer loop
      vertex 17.5729 19 5.26336
      vertex 17.3711 20 4.94526
      vertex 17.5729 20 5.26336
    endloop
  endfacet
  facet normal 0.844326 0 -0.535829
    outer loop
      vertex 17.3711 20 4.94526
      vertex 17.5729 19 5.26336
      vertex 17.3711 19 4.94526
    endloop
  endfacet
  facet normal 0.684549 0 -0.728967
    outer loop
      vertex 17.8131 0 5.55364
      vertex 18.0877 1 5.81154
      vertex 18.0877 0 5.81154
    endloop
  endfacet
  facet normal 0.684549 0 -0.728967
    outer loop
      vertex 18.0877 1 5.81154
      vertex 17.8131 0 5.55364
      vertex 17.8131 1 5.55364
    endloop
  endfacet
  facet normal 0.684549 0 -0.728967
    outer loop
      vertex 17.8131 19 5.55364
      vertex 18.0877 20 5.81154
      vertex 18.0877 19 5.81154
    endloop
  endfacet
  facet normal 0.684549 0 -0.728967
    outer loop
      vertex 18.0877 20 5.81154
      vertex 17.8131 19 5.55364
      vertex 17.8131 20 5.55364
    endloop
  endfacet
  facet normal 0.982287 0 -0.187382
    outer loop
      vertex 17.0942 0 4.24607
      vertex 17.0237 1 3.876
      vertex 17.0942 1 4.24607
    endloop
  endfacet
  facet normal 0.982287 0 -0.187382
    outer loop
      vertex 17.0237 1 3.876
      vertex 17.0942 0 4.24607
      vertex 17.0237 0 3.876
    endloop
  endfacet
  facet normal 0.982287 0 -0.187382
    outer loop
      vertex 17.0942 19 4.24607
      vertex 17.0237 20 3.876
      vertex 17.0942 20 4.24607
    endloop
  endfacet
  facet normal 0.982287 0 -0.187382
    outer loop
      vertex 17.0237 20 3.876
      vertex 17.0942 19 4.24607
      vertex 17.0237 19 3.876
    endloop
  endfacet
  facet normal -0.368128 0 -0.929775
    outer loop
      vertex 20.9271 0 6.35317
      vertex 21.2773 1 6.21448
      vertex 21.2773 0 6.21448
    endloop
  endfacet
  facet normal -0.368128 0 -0.929775
    outer loop
      vertex 21.2773 1 6.21448
      vertex 20.9271 0 6.35317
      vertex 20.9271 1 6.35317
    endloop
  endfacet
  facet normal -0.368128 0 -0.929775
    outer loop
      vertex 20.9271 19 6.35317
      vertex 21.2773 20 6.21448
      vertex 21.2773 19 6.21448
    endloop
  endfacet
  facet normal -0.368128 0 -0.929775
    outer loop
      vertex 21.2773 20 6.21448
      vertex 20.9271 19 6.35317
      vertex 20.9271 20 6.35317
    endloop
  endfacet
  facet normal -0.684549 0 -0.728967
    outer loop
      vertex 21.9123 0 5.81154
      vertex 22.1869 1 5.55364
      vertex 22.1869 0 5.55364
    endloop
  endfacet
  facet normal -0.684549 0 -0.728967
    outer loop
      vertex 22.1869 1 5.55364
      vertex 21.9123 0 5.81154
      vertex 21.9123 1 5.81154
    endloop
  endfacet
  facet normal -0.684549 0 -0.728967
    outer loop
      vertex 21.9123 19 5.81154
      vertex 22.1869 20 5.55364
      vertex 22.1869 19 5.55364
    endloop
  endfacet
  facet normal -0.684549 0 -0.728967
    outer loop
      vertex 22.1869 20 5.55364
      vertex 21.9123 19 5.81154
      vertex 21.9123 20 5.81154
    endloop
  endfacet
  facet normal -0.481754 0 -0.876307
    outer loop
      vertex 21.2773 0 6.21448
      vertex 21.6075 1 6.03298
      vertex 21.6075 0 6.03298
    endloop
  endfacet
  facet normal -0.481754 0 -0.876307
    outer loop
      vertex 21.6075 1 6.03298
      vertex 21.2773 0 6.21448
      vertex 21.2773 1 6.21448
    endloop
  endfacet
  facet normal -0.481754 0 -0.876307
    outer loop
      vertex 21.2773 19 6.21448
      vertex 21.6075 20 6.03298
      vertex 21.6075 19 6.03298
    endloop
  endfacet
  facet normal -0.481754 0 -0.876307
    outer loop
      vertex 21.6075 20 6.03298
      vertex 21.2773 19 6.21448
      vertex 21.2773 20 6.21448
    endloop
  endfacet
  facet normal 0.982287 -0 0.187382
    outer loop
      vertex 17.0237 0 3.124
      vertex 17.0942 1 2.75393
      vertex 17.0237 1 3.124
    endloop
  endfacet
  facet normal 0.982287 0 0.187382
    outer loop
      vertex 17.0942 1 2.75393
      vertex 17.0237 0 3.124
      vertex 17.0942 0 2.75393
    endloop
  endfacet
  facet normal 0.982287 -0 0.187382
    outer loop
      vertex 17.0237 19 3.124
      vertex 17.0942 20 2.75393
      vertex 17.0237 20 3.124
    endloop
  endfacet
  facet normal 0.982287 0 0.187382
    outer loop
      vertex 17.0942 20 2.75393
      vertex 17.0237 19 3.124
      vertex 17.0942 19 2.75393
    endloop
  endfacet
  facet normal 0.951056 -0 0.309019
    outer loop
      vertex 17.0942 0 2.75393
      vertex 17.2107 1 2.39563
      vertex 17.0942 1 2.75393
    endloop
  endfacet
  facet normal 0.951056 0 0.309019
    outer loop
      vertex 17.2107 1 2.39563
      vertex 17.0942 0 2.75393
      vertex 17.2107 0 2.39563
    endloop
  endfacet
  facet normal 0.951056 -0 0.309019
    outer loop
      vertex 17.0942 19 2.75393
      vertex 17.2107 20 2.39563
      vertex 17.0942 20 2.75393
    endloop
  endfacet
  facet normal 0.951056 0 0.309019
    outer loop
      vertex 17.2107 20 2.39563
      vertex 17.0942 19 2.75393
      vertex 17.2107 19 2.39563
    endloop
  endfacet
  facet normal 0.587783 0 0.809019
    outer loop
      vertex 18.0877 1 1.18846
      vertex 18.3925 0 0.967016
      vertex 18.3925 1 0.967016
    endloop
  endfacet
  facet normal 0.587783 0 0.809019
    outer loop
      vertex 18.3925 0 0.967016
      vertex 18.0877 1 1.18846
      vertex 18.0877 0 1.18846
    endloop
  endfacet
  facet normal 0.587783 0 0.809019
    outer loop
      vertex 18.0877 20 1.18846
      vertex 18.2947 19 1.03808
      vertex 18.2947 20 1.03808
    endloop
  endfacet
  facet normal 0.587783 0 0.809019
    outer loop
      vertex 18.2947 19 1.03808
      vertex 18.0877 20 1.18846
      vertex 18.0877 19 1.18846
    endloop
  endfacet
  facet normal 0.248689 0 0.968583
    outer loop
      vertex 19.0729 1 0.64683
      vertex 19.4379 0 0.553138
      vertex 19.4379 1 0.553138
    endloop
  endfacet
  facet normal 0.248689 0 0.968583
    outer loop
      vertex 19.4379 0 0.553138
      vertex 19.0729 1 0.64683
      vertex 19.0729 0 0.64683
    endloop
  endfacet
  facet normal 0.481754 0 0.876307
    outer loop
      vertex 18.3925 1 0.967016
      vertex 18.7227 0 0.785519
      vertex 18.7227 1 0.785519
    endloop
  endfacet
  facet normal 0.481754 0 0.876307
    outer loop
      vertex 18.7227 0 0.785519
      vertex 18.3925 1 0.967016
      vertex 18.3925 0 0.967016
    endloop
  endfacet
  facet normal -0.904827 0 -0.42578
    outer loop
      vertex 22.7893 0 4.60437
      vertex 22.6289 1 4.94526
      vertex 22.7893 1 4.60437
    endloop
  endfacet
  facet normal -0.904827 -0 -0.42578
    outer loop
      vertex 22.6289 1 4.94526
      vertex 22.7893 0 4.60437
      vertex 22.6289 0 4.94526
    endloop
  endfacet
  facet normal -0.904827 0 -0.42578
    outer loop
      vertex 22.7893 19 4.60437
      vertex 22.6289 20 4.94526
      vertex 22.7893 20 4.60437
    endloop
  endfacet
  facet normal -0.904827 -0 -0.42578
    outer loop
      vertex 22.6289 20 4.94526
      vertex 22.7893 19 4.60437
      vertex 22.6289 19 4.94526
    endloop
  endfacet
  facet normal -0.998027 -1.18062e-006 -0.0627909
    outer loop
      vertex 22.9997 0 3.50495
      vertex 22.9763 1 3.876
      vertex 22.9991 1 3.51484
    endloop
  endfacet
  facet normal -0.998027 -0 -0.0627941
    outer loop
      vertex 22.9763 1 3.876
      vertex 22.9997 0 3.50495
      vertex 22.9763 0 3.876
    endloop
  endfacet
  facet normal -0.998027 7.54162e-007 -0.0627941
    outer loop
      vertex 22.9879 19 3.69295
      vertex 22.9763 20 3.876
      vertex 22.9872 20 3.70284
    endloop
  endfacet
  facet normal -0.998027 -0 -0.06279
    outer loop
      vertex 22.9763 20 3.876
      vertex 22.9879 19 3.69295
      vertex 22.9763 19 3.876
    endloop
  endfacet
  facet normal -0.998023 0 -0.0628454
    outer loop
      vertex 23 0 3.5
      vertex 22.9991 1 3.51484
      vertex 23 1 3.5
    endloop
  endfacet
  facet normal -0.998031 -1.91855e-006 -0.0627166
    outer loop
      vertex 22.9991 1 3.51484
      vertex 23 0 3.5
      vertex 22.9997 0 3.50495
    endloop
  endfacet
  facet normal -0.998027 0 -0.0627921
    outer loop
      vertex 23 19 3.5
      vertex 22.9872 20 3.70284
      vertex 23 20 3.5
    endloop
  endfacet
  facet normal -0.998026 7.72128e-007 -0.0627959
    outer loop
      vertex 22.9872 20 3.70284
      vertex 23 19 3.5
      vertex 22.9879 19 3.69295
    endloop
  endfacet
  facet normal 0.951056 0 -0.309019
    outer loop
      vertex 17.2107 0 4.60437
      vertex 17.0942 1 4.24607
      vertex 17.2107 1 4.60437
    endloop
  endfacet
  facet normal 0.951056 0 -0.309019
    outer loop
      vertex 17.0942 1 4.24607
      vertex 17.2107 0 4.60437
      vertex 17.0942 0 4.24607
    endloop
  endfacet
  facet normal 0.951056 0 -0.309019
    outer loop
      vertex 17.2107 19 4.60437
      vertex 17.0942 20 4.24607
      vertex 17.2107 20 4.60437
    endloop
  endfacet
  facet normal 0.951056 0 -0.309019
    outer loop
      vertex 17.0942 20 4.24607
      vertex 17.2107 19 4.60437
      vertex 17.0942 19 4.24607
    endloop
  endfacet
  facet normal 0.770513 0 -0.637424
    outer loop
      vertex 17.8131 0 5.55364
      vertex 17.5729 1 5.26336
      vertex 17.8131 1 5.55364
    endloop
  endfacet
  facet normal 0.770513 0 -0.637424
    outer loop
      vertex 17.5729 1 5.26336
      vertex 17.8131 0 5.55364
      vertex 17.5729 0 5.26336
    endloop
  endfacet
  facet normal 0.770513 0 -0.637424
    outer loop
      vertex 17.8131 19 5.55364
      vertex 17.5729 20 5.26336
      vertex 17.8131 20 5.55364
    endloop
  endfacet
  facet normal 0.770513 0 -0.637424
    outer loop
      vertex 17.5729 20 5.26336
      vertex 17.8131 19 5.55364
      vertex 17.5729 19 5.26336
    endloop
  endfacet
  facet normal 0.248689 0 -0.968583
    outer loop
      vertex 19.0729 0 6.35317
      vertex 19.4379 1 6.44686
      vertex 19.4379 0 6.44686
    endloop
  endfacet
  facet normal 0.248689 0 -0.968583
    outer loop
      vertex 19.4379 1 6.44686
      vertex 19.0729 0 6.35317
      vertex 19.0729 1 6.35317
    endloop
  endfacet
  facet normal 0.248689 0 -0.968583
    outer loop
      vertex 19.0729 19 6.35317
      vertex 19.4379 20 6.44686
      vertex 19.4379 19 6.44686
    endloop
  endfacet
  facet normal 0.248689 0 -0.968583
    outer loop
      vertex 19.4379 20 6.44686
      vertex 19.0729 19 6.35317
      vertex 19.0729 20 6.35317
    endloop
  endfacet
  facet normal 0.587783 0 -0.809019
    outer loop
      vertex 18.0877 0 5.81154
      vertex 18.3925 1 6.03298
      vertex 18.3925 0 6.03298
    endloop
  endfacet
  facet normal 0.587783 0 -0.809019
    outer loop
      vertex 18.3925 1 6.03298
      vertex 18.0877 0 5.81154
      vertex 18.0877 1 5.81154
    endloop
  endfacet
  facet normal 0.587783 0 -0.809019
    outer loop
      vertex 18.0877 19 5.81154
      vertex 18.3925 20 6.03298
      vertex 18.3925 19 6.03298
    endloop
  endfacet
  facet normal 0.587783 0 -0.809019
    outer loop
      vertex 18.3925 20 6.03298
      vertex 18.0877 19 5.81154
      vertex 18.0877 20 5.81154
    endloop
  endfacet
  facet normal 0.904829 0 -0.425776
    outer loop
      vertex 17.3711 0 4.94526
      vertex 17.2107 1 4.60437
      vertex 17.3711 1 4.94526
    endloop
  endfacet
  facet normal 0.904829 0 -0.425776
    outer loop
      vertex 17.2107 1 4.60437
      vertex 17.3711 0 4.94526
      vertex 17.2107 0 4.60437
    endloop
  endfacet
  facet normal 0.904829 0 -0.425776
    outer loop
      vertex 17.3711 19 4.94526
      vertex 17.2107 20 4.60437
      vertex 17.3711 20 4.94526
    endloop
  endfacet
  facet normal 0.904829 0 -0.425776
    outer loop
      vertex 17.2107 20 4.60437
      vertex 17.3711 19 4.94526
      vertex 17.2107 19 4.60437
    endloop
  endfacet
  facet normal 0.904829 -0 0.425776
    outer loop
      vertex 17.2107 0 2.39563
      vertex 17.3711 1 2.05474
      vertex 17.2107 1 2.39563
    endloop
  endfacet
  facet normal 0.904829 0 0.425776
    outer loop
      vertex 17.3711 1 2.05474
      vertex 17.2107 0 2.39563
      vertex 17.3711 0 2.05474
    endloop
  endfacet
  facet normal 0.904829 -0 0.425776
    outer loop
      vertex 17.2107 19 2.39563
      vertex 17.3711 20 2.05474
      vertex 17.2107 20 2.39563
    endloop
  endfacet
  facet normal 0.904829 0 0.425776
    outer loop
      vertex 17.3711 20 2.05474
      vertex 17.2107 19 2.39563
      vertex 17.3711 19 2.05474
    endloop
  endfacet
  facet normal 0.844326 -0 0.535829
    outer loop
      vertex 17.3711 0 2.05474
      vertex 17.5729 1 1.73664
      vertex 17.3711 1 2.05474
    endloop
  endfacet
  facet normal 0.844326 0 0.535829
    outer loop
      vertex 17.5729 1 1.73664
      vertex 17.3711 0 2.05474
      vertex 17.5729 0 1.73664
    endloop
  endfacet
  facet normal 0.844326 -0 0.535829
    outer loop
      vertex 17.3711 19 2.05474
      vertex 17.5729 20 1.73664
      vertex 17.3711 20 2.05474
    endloop
  endfacet
  facet normal 0.844326 0 0.535829
    outer loop
      vertex 17.5729 20 1.73664
      vertex 17.3711 19 2.05474
      vertex 17.5729 19 1.73664
    endloop
  endfacet
  facet normal 0.770513 -0 0.637424
    outer loop
      vertex 17.5729 0 1.73664
      vertex 17.8131 1 1.44636
      vertex 17.5729 1 1.73664
    endloop
  endfacet
  facet normal 0.770513 0 0.637424
    outer loop
      vertex 17.8131 1 1.44636
      vertex 17.5729 0 1.73664
      vertex 17.8131 0 1.44636
    endloop
  endfacet
  facet normal 0.770513 -0 0.637424
    outer loop
      vertex 17.5729 19 1.73664
      vertex 17.8131 20 1.44636
      vertex 17.5729 20 1.73664
    endloop
  endfacet
  facet normal 0.770513 0 0.637424
    outer loop
      vertex 17.8131 20 1.44636
      vertex 17.5729 19 1.73664
      vertex 17.8131 19 1.44636
    endloop
  endfacet
  facet normal 0.368126 0 0.929776
    outer loop
      vertex 18.7227 1 0.785519
      vertex 19.0729 0 0.64683
      vertex 19.0729 1 0.64683
    endloop
  endfacet
  facet normal 0.368126 0 0.929776
    outer loop
      vertex 19.0729 0 0.64683
      vertex 18.7227 1 0.785519
      vertex 18.7227 0 0.785519
    endloop
  endfacet
  facet normal 0.481754 0 -0.876307
    outer loop
      vertex 18.3925 0 6.03298
      vertex 18.7227 1 6.21448
      vertex 18.7227 0 6.21448
    endloop
  endfacet
  facet normal 0.481754 0 -0.876307
    outer loop
      vertex 18.7227 1 6.21448
      vertex 18.3925 0 6.03298
      vertex 18.3925 1 6.03298
    endloop
  endfacet
  facet normal 0.481754 0 -0.876307
    outer loop
      vertex 18.3925 19 6.03298
      vertex 18.7227 20 6.21448
      vertex 18.7227 19 6.21448
    endloop
  endfacet
  facet normal 0.481754 0 -0.876307
    outer loop
      vertex 18.7227 20 6.21448
      vertex 18.3925 19 6.03298
      vertex 18.3925 20 6.03298
    endloop
  endfacet
  facet normal 0 0 -1
    outer loop
      vertex 19.8116 0 6.49408
      vertex 20.1884 1 6.49408
      vertex 20.1884 0 6.49408
    endloop
  endfacet
  facet normal -0 0 -1
    outer loop
      vertex 20.1884 1 6.49408
      vertex 19.8116 0 6.49408
      vertex 19.8116 1 6.49408
    endloop
  endfacet
  facet normal 0 0 -1
    outer loop
      vertex 19.8116 19 6.49408
      vertex 20.1884 20 6.49408
      vertex 20.1884 19 6.49408
    endloop
  endfacet
  facet normal -0 0 -1
    outer loop
      vertex 20.1884 20 6.49408
      vertex 19.8116 19 6.49408
      vertex 19.8116 20 6.49408
    endloop
  endfacet
  facet normal 0.368126 0 -0.929776
    outer loop
      vertex 18.7227 0 6.21448
      vertex 19.0729 1 6.35317
      vertex 19.0729 0 6.35317
    endloop
  endfacet
  facet normal 0.368126 0 -0.929776
    outer loop
      vertex 19.0729 1 6.35317
      vertex 18.7227 0 6.21448
      vertex 18.7227 1 6.21448
    endloop
  endfacet
  facet normal 0.368126 0 -0.929776
    outer loop
      vertex 18.7227 19 6.21448
      vertex 19.0729 20 6.35317
      vertex 19.0729 19 6.35317
    endloop
  endfacet
  facet normal 0.368126 0 -0.929776
    outer loop
      vertex 19.0729 20 6.35317
      vertex 18.7227 19 6.21448
      vertex 18.7227 20 6.21448
    endloop
  endfacet
  facet normal 1 -0 0
    outer loop
      vertex 1 1 6.06073
      vertex 1 19 0
      vertex 1 19 6.06073
    endloop
  endfacet
  facet normal 1 0 0
    outer loop
      vertex 1 19 0
      vertex 1 1 6.06073
      vertex 1 1 0
    endloop
  endfacet
  facet normal 0 0 -1
    outer loop
      vertex 14.6328 1 17.5
      vertex 25.3672 19 17.5
      vertex 25.3672 1 17.5
    endloop
  endfacet
  facet normal -0 0 -1
    outer loop
      vertex 25.3672 19 17.5
      vertex 14.6328 1 17.5
      vertex 14.6328 19 17.5
    endloop
  endfacet
  facet normal -1 0 0
    outer loop
      vertex 39 1 0
      vertex 39 19 6.06073
      vertex 39 19 0
    endloop
  endfacet
  facet normal -1 -0 0
    outer loop
      vertex 39 19 6.06073
      vertex 39 1 0
      vertex 39 1 6.06073
    endloop
  endfacet
  facet normal 0 1 0
    outer loop
      vertex 25.3672 1 17.5
      vertex 20.1884 1 6.49408
      vertex 14.6328 1 17.5
    endloop
  endfacet
  facet normal 0 1 0
    outer loop
      vertex 25.3672 1 17.5
      vertex 20.5621 1 6.44686
      vertex 20.1884 1 6.49408
    endloop
  endfacet
  facet normal 0 1 0
    outer loop
      vertex 25.3672 1 17.5
      vertex 20.9271 1 6.35317
      vertex 20.5621 1 6.44686
    endloop
  endfacet
  facet normal 0 1 0
    outer loop
      vertex 25.3672 1 17.5
      vertex 21.2773 1 6.21448
      vertex 20.9271 1 6.35317
    endloop
  endfacet
  facet normal 0 1 0
    outer loop
      vertex 22.6289 1 4.94526
      vertex 25.3672 1 17.5
      vertex 39 1 6.06073
    endloop
  endfacet
  facet normal 0 1 0
    outer loop
      vertex 25.3672 1 17.5
      vertex 21.6075 1 6.03298
      vertex 21.2773 1 6.21448
    endloop
  endfacet
  facet normal 0 1 0
    outer loop
      vertex 25.3672 1 17.5
      vertex 21.9123 1 5.81154
      vertex 21.6075 1 6.03298
    endloop
  endfacet
  facet normal 0 1 0
    outer loop
      vertex 25.3672 1 17.5
      vertex 22.1869 1 5.55364
      vertex 21.9123 1 5.81154
    endloop
  endfacet
  facet normal 0 1 0
    outer loop
      vertex 25.3672 1 17.5
      vertex 22.4271 1 5.26336
      vertex 22.1869 1 5.55364
    endloop
  endfacet
  facet normal 0 1 0
    outer loop
      vertex 25.3672 1 17.5
      vertex 22.6289 1 4.94526
      vertex 22.4271 1 5.26336
    endloop
  endfacet
  facet normal 0 1 0
    outer loop
      vertex 39 1 6.06073
      vertex 22.7893 1 4.60437
      vertex 22.6289 1 4.94526
    endloop
  endfacet
  facet normal 0 1 0
    outer loop
      vertex 39 1 6.06073
      vertex 22.9058 1 4.24607
      vertex 22.7893 1 4.60437
    endloop
  endfacet
  facet normal 0 1 0
    outer loop
      vertex 39 1 6.06073
      vertex 22.9763 1 3.876
      vertex 22.9058 1 4.24607
    endloop
  endfacet
  facet normal 0 1 0
    outer loop
      vertex 39 1 6.06073
      vertex 22.9991 1 3.51484
      vertex 22.9763 1 3.876
    endloop
  endfacet
  facet normal 0 1 0
    outer loop
      vertex 39 1 6.06073
      vertex 23 1 3.5
      vertex 22.9991 1 3.51484
    endloop
  endfacet
  facet normal 0 1 -0
    outer loop
      vertex 39 1 0
      vertex 23 1 3.5
      vertex 39 1 6.06073
    endloop
  endfacet
  facet normal 0 1 0
    outer loop
      vertex 23 1 3.5
      vertex 39 1 0
      vertex 22.9773 1 3.13884
    endloop
  endfacet
  facet normal 0 1 0
    outer loop
      vertex 22.9773 1 3.13884
      vertex 39 1 0
      vertex 22.9763 1 3.124
    endloop
  endfacet
  facet normal 0 1 0
    outer loop
      vertex 22.9763 1 3.124
      vertex 39 1 0
      vertex 22.9058 1 2.75393
    endloop
  endfacet
  facet normal 0 1 0
    outer loop
      vertex 22.9058 1 2.75393
      vertex 39 1 0
      vertex 22.7893 1 2.39563
    endloop
  endfacet
  facet normal 0 1 0
    outer loop
      vertex 22.7893 1 2.39563
      vertex 39 1 0
      vertex 22.6289 1 2.05474
    endloop
  endfacet
  facet normal 0 1 0
    outer loop
      vertex 22.6289 1 2.05474
      vertex 39 1 0
      vertex 22.4271 1 1.73664
    endloop
  endfacet
  facet normal 0 1 0
    outer loop
      vertex 22.4271 1 1.73664
      vertex 39 1 0
      vertex 22.1869 1 1.44636
    endloop
  endfacet
  facet normal 0 1 0
    outer loop
      vertex 22.1869 1 1.44636
      vertex 39 1 0
      vertex 21.9123 1 1.18846
    endloop
  endfacet
  facet normal 0 1 0
    outer loop
      vertex 21.9123 1 1.18846
      vertex 39 1 0
      vertex 21.6075 1 0.967016
    endloop
  endfacet
  facet normal 0 1 0
    outer loop
      vertex 21.6075 1 0.967016
      vertex 39 1 0
      vertex 21.2773 1 0.785519
    endloop
  endfacet
  facet normal 0 1 0
    outer loop
      vertex 20.1884 1 0.505919
      vertex 39 1 0
      vertex 19.8116 1 0.505919
    endloop
  endfacet
  facet normal 0 1 0
    outer loop
      vertex 20.5621 1 0.553138
      vertex 39 1 0
      vertex 20.1884 1 0.505919
    endloop
  endfacet
  facet normal 0 1 0
    outer loop
      vertex 20.9271 1 0.64683
      vertex 39 1 0
      vertex 20.5621 1 0.553138
    endloop
  endfacet
  facet normal 0 1 0
    outer loop
      vertex 21.2773 1 0.785519
      vertex 39 1 0
      vertex 20.9271 1 0.64683
    endloop
  endfacet
  facet normal 0 1 -0
    outer loop
      vertex 19.8116 1 6.49408
      vertex 14.6328 1 17.5
      vertex 20.1884 1 6.49408
    endloop
  endfacet
  facet normal 0 1 -0
    outer loop
      vertex 19.4379 1 6.44686
      vertex 14.6328 1 17.5
      vertex 19.8116 1 6.49408
    endloop
  endfacet
  facet normal 0 1 -0
    outer loop
      vertex 19.0729 1 6.35317
      vertex 14.6328 1 17.5
      vertex 19.4379 1 6.44686
    endloop
  endfacet
  facet normal 0 1 -0
    outer loop
      vertex 18.7227 1 6.21448
      vertex 14.6328 1 17.5
      vertex 19.0729 1 6.35317
    endloop
  endfacet
  facet normal 0 1 -0
    outer loop
      vertex 18.3925 1 6.03298
      vertex 14.6328 1 17.5
      vertex 18.7227 1 6.21448
    endloop
  endfacet
  facet normal 0 1 -0
    outer loop
      vertex 18.0877 1 5.81154
      vertex 14.6328 1 17.5
      vertex 18.3925 1 6.03298
    endloop
  endfacet
  facet normal 0 1 -0
    outer loop
      vertex 17.8131 1 5.55364
      vertex 14.6328 1 17.5
      vertex 18.0877 1 5.81154
    endloop
  endfacet
  facet normal 0 1 -0
    outer loop
      vertex 17.5729 1 5.26336
      vertex 14.6328 1 17.5
      vertex 17.8131 1 5.55364
    endloop
  endfacet
  facet normal 0 1 -0
    outer loop
      vertex 17.3711 1 4.94526
      vertex 14.6328 1 17.5
      vertex 17.5729 1 5.26336
    endloop
  endfacet
  facet normal 0 1 0
    outer loop
      vertex 14.6328 1 17.5
      vertex 17.3711 1 4.94526
      vertex 1 1 6.06073
    endloop
  endfacet
  facet normal 0 1 -0
    outer loop
      vertex 17.2107 1 4.60437
      vertex 1 1 6.06073
      vertex 17.3711 1 4.94526
    endloop
  endfacet
  facet normal 0 1 -0
    outer loop
      vertex 17.0942 1 4.24607
      vertex 1 1 6.06073
      vertex 17.2107 1 4.60437
    endloop
  endfacet
  facet normal 0 1 -0
    outer loop
      vertex 17.0237 1 3.876
      vertex 1 1 6.06073
      vertex 17.0942 1 4.24607
    endloop
  endfacet
  facet normal 0 1 -0
    outer loop
      vertex 17 1 3.5
      vertex 1 1 6.06073
      vertex 17.0237 1 3.876
    endloop
  endfacet
  facet normal 0 1 0
    outer loop
      vertex 1 1 0
      vertex 17 1 3.5
      vertex 17.0237 1 3.124
    endloop
  endfacet
  facet normal 0 1 0
    outer loop
      vertex 1 1 0
      vertex 17.0237 1 3.124
      vertex 17.0942 1 2.75393
    endloop
  endfacet
  facet normal 0 1 0
    outer loop
      vertex 1 1 0
      vertex 17.0942 1 2.75393
      vertex 17.2107 1 2.39563
    endloop
  endfacet
  facet normal 0 1 0
    outer loop
      vertex 1 1 0
      vertex 17.2107 1 2.39563
      vertex 17.3711 1 2.05474
    endloop
  endfacet
  facet normal 0 1 0
    outer loop
      vertex 1 1 0
      vertex 17.3711 1 2.05474
      vertex 17.5729 1 1.73664
    endloop
  endfacet
  facet normal 0 1 0
    outer loop
      vertex 1 1 0
      vertex 17.5729 1 1.73664
      vertex 17.8131 1 1.44636
    endloop
  endfacet
  facet normal 0 1 0
    outer loop
      vertex 1 1 0
      vertex 17.8131 1 1.44636
      vertex 18.0877 1 1.18846
    endloop
  endfacet
  facet normal 0 1 0
    outer loop
      vertex 1 1 0
      vertex 18.0877 1 1.18846
      vertex 18.3925 1 0.967016
    endloop
  endfacet
  facet normal 0 1 0
    outer loop
      vertex 1 1 0
      vertex 18.3925 1 0.967016
      vertex 18.7227 1 0.785519
    endloop
  endfacet
  facet normal 0 1 0
    outer loop
      vertex 1 1 0
      vertex 18.7227 1 0.785519
      vertex 19.0729 1 0.64683
    endloop
  endfacet
  facet normal 0 1 0
    outer loop
      vertex 17 1 3.5
      vertex 1 1 0
      vertex 1 1 6.06073
    endloop
  endfacet
  facet normal 0 1 0
    outer loop
      vertex 19.4379 1 0.553138
      vertex 1 1 0
      vertex 19.0729 1 0.64683
    endloop
  endfacet
  facet normal 0 1 0
    outer loop
      vertex 19.8116 1 0.505919
      vertex 1 1 0
      vertex 19.4379 1 0.553138
    endloop
  endfacet
  facet normal 0 1 0
    outer loop
      vertex 1 1 0
      vertex 19.8116 1 0.505919
      vertex 39 1 0
    endloop
  endfacet
  facet normal 0 -1 0
    outer loop
      vertex 14.6328 19 17.5
      vertex 19.8116 19 6.49408
      vertex 25.3672 19 17.5
    endloop
  endfacet
  facet normal 0 -1 0
    outer loop
      vertex 14.6328 19 17.5
      vertex 19.4379 19 6.44686
      vertex 19.8116 19 6.49408
    endloop
  endfacet
  facet normal 0 -1 0
    outer loop
      vertex 14.6328 19 17.5
      vertex 19.0729 19 6.35317
      vertex 19.4379 19 6.44686
    endloop
  endfacet
  facet normal 0 -1 0
    outer loop
      vertex 14.6328 19 17.5
      vertex 18.7227 19 6.21448
      vertex 19.0729 19 6.35317
    endloop
  endfacet
  facet normal 0 -1 0
    outer loop
      vertex 17.3711 19 4.94526
      vertex 14.6328 19 17.5
      vertex 1 19 6.06073
    endloop
  endfacet
  facet normal 0 -1 0
    outer loop
      vertex 14.6328 19 17.5
      vertex 18.3925 19 6.03298
      vertex 18.7227 19 6.21448
    endloop
  endfacet
  facet normal 0 -1 0
    outer loop
      vertex 14.6328 19 17.5
      vertex 18.0877 19 5.81154
      vertex 18.3925 19 6.03298
    endloop
  endfacet
  facet normal 0 -1 0
    outer loop
      vertex 14.6328 19 17.5
      vertex 17.8131 19 5.55364
      vertex 18.0877 19 5.81154
    endloop
  endfacet
  facet normal 0 -1 0
    outer loop
      vertex 14.6328 19 17.5
      vertex 17.5729 19 5.26336
      vertex 17.8131 19 5.55364
    endloop
  endfacet
  facet normal 0 -1 0
    outer loop
      vertex 14.6328 19 17.5
      vertex 17.3711 19 4.94526
      vertex 17.5729 19 5.26336
    endloop
  endfacet
  facet normal 0 -1 0
    outer loop
      vertex 1 19 6.06073
      vertex 17.2107 19 4.60437
      vertex 17.3711 19 4.94526
    endloop
  endfacet
  facet normal 0 -1 0
    outer loop
      vertex 1 19 6.06073
      vertex 17.0942 19 4.24607
      vertex 17.2107 19 4.60437
    endloop
  endfacet
  facet normal 0 -1 0
    outer loop
      vertex 1 19 6.06073
      vertex 17.0237 19 3.876
      vertex 17.0942 19 4.24607
    endloop
  endfacet
  facet normal 0 -1 0
    outer loop
      vertex 1 19 6.06073
      vertex 17 19 3.5
      vertex 17.0237 19 3.876
    endloop
  endfacet
  facet normal 0 -1 0
    outer loop
      vertex 1 19 0
      vertex 17 19 3.5
      vertex 1 19 6.06073
    endloop
  endfacet
  facet normal 0 -1 -0
    outer loop
      vertex 17 19 3.5
      vertex 1 19 0
      vertex 17.0237 19 3.124
    endloop
  endfacet
  facet normal 0 -1 -0
    outer loop
      vertex 17.0237 19 3.124
      vertex 1 19 0
      vertex 17.0942 19 2.75393
    endloop
  endfacet
  facet normal 0 -1 -0
    outer loop
      vertex 17.0942 19 2.75393
      vertex 1 19 0
      vertex 17.2107 19 2.39563
    endloop
  endfacet
  facet normal 0 -1 -0
    outer loop
      vertex 17.2107 19 2.39563
      vertex 1 19 0
      vertex 17.3711 19 2.05474
    endloop
  endfacet
  facet normal 0 -1 0
    outer loop
      vertex 18 19 0
      vertex 17.3711 19 2.05474
      vertex 1 19 0
    endloop
  endfacet
  facet normal 0 -1 0
    outer loop
      vertex 17.3711 19 2.05474
      vertex 18 19 0
      vertex 17.5729 19 1.73664
    endloop
  endfacet
  facet normal -0 -1 0
    outer loop
      vertex 18.0158 19 0.250666
      vertex 17.5729 19 1.73664
      vertex 18 19 0
    endloop
  endfacet
  facet normal 0 -1 0
    outer loop
      vertex 18.0877 19 1.18846
      vertex 18.2474 19 0.963507
      vertex 18.2947 19 1.03808
    endloop
  endfacet
  facet normal 0 -1 0
    outer loop
      vertex 18.0877 19 1.18846
      vertex 18.1404 19 0.736249
      vertex 18.2474 19 0.963507
    endloop
  endfacet
  facet normal 0 -1 0
    outer loop
      vertex 17.8131 19 1.44636
      vertex 18.1404 19 0.736249
      vertex 18.0877 19 1.18846
    endloop
  endfacet
  facet normal -0 -1 0
    outer loop
      vertex 18.0628 19 0.497379
      vertex 17.8131 19 1.44636
      vertex 18.0158 19 0.250666
    endloop
  endfacet
  facet normal -0 -1 0
    outer loop
      vertex 18.1404 19 0.736249
      vertex 17.8131 19 1.44636
      vertex 18.0628 19 0.497379
    endloop
  endfacet
  facet normal 0 -1 0
    outer loop
      vertex 17.5729 19 1.73664
      vertex 18.0158 19 0.250666
      vertex 17.8131 19 1.44636
    endloop
  endfacet
  facet normal 0 -1 0
    outer loop
      vertex 20.1884 19 6.49408
      vertex 25.3672 19 17.5
      vertex 19.8116 19 6.49408
    endloop
  endfacet
  facet normal 0 -1 0
    outer loop
      vertex 20.5621 19 6.44686
      vertex 25.3672 19 17.5
      vertex 20.1884 19 6.49408
    endloop
  endfacet
  facet normal 0 -1 0
    outer loop
      vertex 20.9271 19 6.35317
      vertex 25.3672 19 17.5
      vertex 20.5621 19 6.44686
    endloop
  endfacet
  facet normal 0 -1 0
    outer loop
      vertex 21.2773 19 6.21448
      vertex 25.3672 19 17.5
      vertex 20.9271 19 6.35317
    endloop
  endfacet
  facet normal 0 -1 0
    outer loop
      vertex 21.6075 19 6.03298
      vertex 25.3672 19 17.5
      vertex 21.2773 19 6.21448
    endloop
  endfacet
  facet normal 0 -1 0
    outer loop
      vertex 21.9123 19 5.81154
      vertex 25.3672 19 17.5
      vertex 21.6075 19 6.03298
    endloop
  endfacet
  facet normal 0 -1 0
    outer loop
      vertex 22.1869 19 5.55364
      vertex 25.3672 19 17.5
      vertex 21.9123 19 5.81154
    endloop
  endfacet
  facet normal 0 -1 0
    outer loop
      vertex 22.4271 19 5.26336
      vertex 25.3672 19 17.5
      vertex 22.1869 19 5.55364
    endloop
  endfacet
  facet normal 0 -1 0
    outer loop
      vertex 22.6289 19 4.94526
      vertex 25.3672 19 17.5
      vertex 22.4271 19 5.26336
    endloop
  endfacet
  facet normal 0 -1 -0
    outer loop
      vertex 25.3672 19 17.5
      vertex 22.6289 19 4.94526
      vertex 39 19 6.06073
    endloop
  endfacet
  facet normal 0 -1 0
    outer loop
      vertex 22.7893 19 4.60437
      vertex 39 19 6.06073
      vertex 22.6289 19 4.94526
    endloop
  endfacet
  facet normal 0 -1 0
    outer loop
      vertex 22.9058 19 4.24607
      vertex 39 19 6.06073
      vertex 22.7893 19 4.60437
    endloop
  endfacet
  facet normal 0 -1 0
    outer loop
      vertex 22.9763 19 3.876
      vertex 39 19 6.06073
      vertex 22.9058 19 4.24607
    endloop
  endfacet
  facet normal 0 -1 0
    outer loop
      vertex 22.9879 19 3.69295
      vertex 39 19 6.06073
      vertex 22.9763 19 3.876
    endloop
  endfacet
  facet normal 0 -1 0
    outer loop
      vertex 23 19 3.5
      vertex 39 19 6.06073
      vertex 22.9879 19 3.69295
    endloop
  endfacet
  facet normal 0 -1 0
    outer loop
      vertex 39 19 0
      vertex 23 19 3.5
      vertex 22.9885 19 3.31695
    endloop
  endfacet
  facet normal 0 -1 0
    outer loop
      vertex 39 19 0
      vertex 22.9885 19 3.31695
      vertex 22.9763 19 3.124
    endloop
  endfacet
  facet normal 0 -1 0
    outer loop
      vertex 39 19 0
      vertex 22.9763 19 3.124
      vertex 22.9058 19 2.75393
    endloop
  endfacet
  facet normal 0 -1 0
    outer loop
      vertex 39 19 0
      vertex 22.9058 19 2.75393
      vertex 22.7893 19 2.39563
    endloop
  endfacet
  facet normal 0 -1 0
    outer loop
      vertex 39 19 0
      vertex 22.7893 19 2.39563
      vertex 22.6289 19 2.05474
    endloop
  endfacet
  facet normal 0 -1 0
    outer loop
      vertex 22 19 0
      vertex 22.6289 19 2.05474
      vertex 22.4271 19 1.73664
    endloop
  endfacet
  facet normal 0 -1 0
    outer loop
      vertex 21.9842 19 0.250666
      vertex 22.4271 19 1.73664
      vertex 22.1869 19 1.44636
    endloop
  endfacet
  facet normal 0 -1 0
    outer loop
      vertex 21.8596 19 0.736249
      vertex 22.1869 19 1.44636
      vertex 21.9123 19 1.18846
    endloop
  endfacet
  facet normal 0 -1 0
    outer loop
      vertex 21.7526 19 0.963507
      vertex 21.9123 19 1.18846
      vertex 21.7053 19 1.03808
    endloop
  endfacet
  facet normal 0 -1 0
    outer loop
      vertex 21.8596 19 0.736249
      vertex 21.9123 19 1.18846
      vertex 21.7526 19 0.963507
    endloop
  endfacet
  facet normal 0 -1 0
    outer loop
      vertex 22.1869 19 1.44636
      vertex 21.8596 19 0.736249
      vertex 21.9372 19 0.497379
    endloop
  endfacet
  facet normal 0 -1 0
    outer loop
      vertex 22.1869 19 1.44636
      vertex 21.9372 19 0.497379
      vertex 21.9842 19 0.250666
    endloop
  endfacet
  facet normal 0 -1 0
    outer loop
      vertex 22.4271 19 1.73664
      vertex 21.9842 19 0.250666
      vertex 22 19 0
    endloop
  endfacet
  facet normal 0 -1 -0
    outer loop
      vertex 22.6289 19 2.05474
      vertex 22 19 0
      vertex 39 19 0
    endloop
  endfacet
  facet normal 0 -1 0
    outer loop
      vertex 23 19 3.5
      vertex 39 19 0
      vertex 39 19 6.06073
    endloop
  endfacet
  facet normal 0.904824 0 -0.425785
    outer loop
      vertex 18.2474 19 0.963507
      vertex 18.1404 20 0.736249
      vertex 18.2474 20 0.963507
    endloop
  endfacet
  facet normal 0.904824 0 -0.425785
    outer loop
      vertex 18.1404 20 0.736249
      vertex 18.2474 19 0.963507
      vertex 18.1404 19 0.736249
    endloop
  endfacet
  facet normal -0.951056 0 -0.309018
    outer loop
      vertex 21.9372 19 0.497379
      vertex 21.8596 20 0.736249
      vertex 21.9372 20 0.497379
    endloop
  endfacet
  facet normal -0.951056 -0 -0.309018
    outer loop
      vertex 21.8596 20 0.736249
      vertex 21.9372 19 0.497379
      vertex 21.8596 19 0.736249
    endloop
  endfacet
  facet normal -0.982287 0 -0.187384
    outer loop
      vertex 21.9842 19 0.250666
      vertex 21.9372 20 0.497379
      vertex 21.9842 20 0.250666
    endloop
  endfacet
  facet normal -0.982287 -0 -0.187384
    outer loop
      vertex 21.9372 20 0.497379
      vertex 21.9842 19 0.250666
      vertex 21.9372 19 0.497379
    endloop
  endfacet
  facet normal 0.982288 0 -0.187377
    outer loop
      vertex 18.0628 19 0.497379
      vertex 18.0158 20 0.250666
      vertex 18.0628 20 0.497379
    endloop
  endfacet
  facet normal 0.982288 0 -0.187377
    outer loop
      vertex 18.0158 20 0.250666
      vertex 18.0628 19 0.497379
      vertex 18.0158 19 0.250666
    endloop
  endfacet
  facet normal -0.904827 0 -0.425779
    outer loop
      vertex 21.8596 19 0.736249
      vertex 21.7526 20 0.963507
      vertex 21.8596 20 0.736249
    endloop
  endfacet
  facet normal -0.904827 -0 -0.425779
    outer loop
      vertex 21.7526 20 0.963507
      vertex 21.8596 19 0.736249
      vertex 21.7526 19 0.963507
    endloop
  endfacet
  facet normal 0.844334 0 -0.535817
    outer loop
      vertex 18.2947 19 1.03808
      vertex 18.2474 20 0.963507
      vertex 18.2947 20 1.03808
    endloop
  endfacet
  facet normal 0.844334 0 -0.535817
    outer loop
      vertex 18.2474 20 0.963507
      vertex 18.2947 19 1.03808
      vertex 18.2474 19 0.963507
    endloop
  endfacet
  facet normal 0.951056 0 -0.309018
    outer loop
      vertex 18.1404 19 0.736249
      vertex 18.0628 20 0.497379
      vertex 18.1404 20 0.736249
    endloop
  endfacet
  facet normal 0.951056 0 -0.309018
    outer loop
      vertex 18.0628 20 0.497379
      vertex 18.1404 19 0.736249
      vertex 18.0628 19 0.497379
    endloop
  endfacet
  facet normal 0.998027 0 -0.0627882
    outer loop
      vertex 18.0158 19 0.250666
      vertex 18 20 0
      vertex 18.0158 20 0.250666
    endloop
  endfacet
  facet normal 0.998027 0 -0.0627882
    outer loop
      vertex 18 20 0
      vertex 18.0158 19 0.250666
      vertex 18 19 0
    endloop
  endfacet
  facet normal -0.998027 0 -0.0627882
    outer loop
      vertex 22 19 0
      vertex 21.9842 20 0.250666
      vertex 22 20 0
    endloop
  endfacet
  facet normal -0.998027 -0 -0.0627882
    outer loop
      vertex 21.9842 20 0.250666
      vertex 22 19 0
      vertex 21.9842 19 0.250666
    endloop
  endfacet
  facet normal -0.844324 0 -0.535832
    outer loop
      vertex 21.7526 19 0.963507
      vertex 21.7053 20 1.03808
      vertex 21.7526 20 0.963507
    endloop
  endfacet
  facet normal -0.844324 -0 -0.535832
    outer loop
      vertex 21.7053 20 1.03808
      vertex 21.7526 19 0.963507
      vertex 21.7053 19 1.03808
    endloop
  endfacet
  facet normal -0.642788 0 0.766044
    outer loop
      vertex 0 20 6.52704
      vertex 14.4051 0 18.6143
      vertex 14.4051 20 18.6143
    endloop
  endfacet
  facet normal -0.642788 0 0.766044
    outer loop
      vertex 14.4051 0 18.6143
      vertex 0 20 6.52704
      vertex 0 0 6.52704
    endloop
  endfacet
  facet normal 0.766045 -0 0.642786
    outer loop
      vertex 14.4051 0 18.6143
      vertex 14.501 20 18.5
      vertex 14.4051 20 18.6143
    endloop
  endfacet
  facet normal 0.766045 0 0.642786
    outer loop
      vertex 14.501 20 18.5
      vertex 14.4051 0 18.6143
      vertex 14.501 0 18.5
    endloop
  endfacet
  facet normal 0.642788 0 -0.766044
    outer loop
      vertex 1 1 6.06073
      vertex 14.6328 19 17.5
      vertex 14.6328 1 17.5
    endloop
  endfacet
  facet normal 0.642788 0 -0.766044
    outer loop
      vertex 14.6328 19 17.5
      vertex 1 1 6.06073
      vertex 1 19 6.06073
    endloop
  endfacet
  facet normal 0.642788 0 0.766044
    outer loop
      vertex 25.5949 20 18.6143
      vertex 40 0 6.52704
      vertex 40 20 6.52704
    endloop
  endfacet
  facet normal 0.642788 0 0.766044
    outer loop
      vertex 40 0 6.52704
      vertex 25.5949 20 18.6143
      vertex 25.5949 0 18.6143
    endloop
  endfacet
  facet normal -0.766042 0 0.64279
    outer loop
      vertex 25.499 0 18.5
      vertex 25.5949 20 18.6143
      vertex 25.499 20 18.5
    endloop
  endfacet
  facet normal -0.766042 0 0.64279
    outer loop
      vertex 25.5949 20 18.6143
      vertex 25.499 0 18.5
      vertex 25.5949 0 18.6143
    endloop
  endfacet
  facet normal -0.642788 0 -0.766044
    outer loop
      vertex 25.3672 1 17.5
      vertex 39 19 6.06073
      vertex 39 1 6.06073
    endloop
  endfacet
  facet normal -0.642788 0 -0.766044
    outer loop
      vertex 39 19 6.06073
      vertex 25.3672 1 17.5
      vertex 25.3672 19 17.5
    endloop
  endfacet
endsolid OpenSCAD_Model
