solid OpenSCAD_Model
  facet normal -1 0 0
    outer loop
      vertex 0 0 0
      vertex 0 20 12.5
      vertex 0 20 0
    endloop
  endfacet
  facet normal -1 -0 0
    outer loop
      vertex 0 20 12.5
      vertex 0 0 0
      vertex 0 0 12.5
    endloop
  endfacet
  facet normal -0 0 1
    outer loop
      vertex 0 20 12.5
      vertex 18.5 0 12.5
      vertex 18.5 20 12.5
    endloop
  endfacet
  facet normal 0 0 1
    outer loop
      vertex 18.5 0 12.5
      vertex 0 20 12.5
      vertex 0 0 12.5
    endloop
  endfacet
  facet normal 1 -0 0
    outer loop
      vertex 18.5 0 12.5
      vertex 18.5 20 0
      vertex 18.5 20 12.5
    endloop
  endfacet
  facet normal 1 0 0
    outer loop
      vertex 18.5 20 0
      vertex 18.5 0 12.5
      vertex 18.5 0 0
    endloop
  endfacet
  facet normal 0 1 0
    outer loop
      vertex 18.5 20 12.5
      vertex 15.3 20 3.5
      vertex 0 20 12.5
    endloop
  endfacet
  facet normal 0 1 -0
    outer loop
      vertex 18.5 20 0
      vertex 15.3 20 3.5
      vertex 18.5 20 12.5
    endloop
  endfacet
  facet normal 0 1 0
    outer loop
      vertex 15.3 20 0.5
      vertex 18.5 20 0
      vertex 3.2 20 0.5
    endloop
  endfacet
  facet normal 0 1 0
    outer loop
      vertex 15.3 20 3.5
      vertex 18.5 20 0
      vertex 15.3 20 0.5
    endloop
  endfacet
  facet normal 0 1 -0
    outer loop
      vertex 3.2 20 3.5
      vertex 0 20 12.5
      vertex 15.3 20 3.5
    endloop
  endfacet
  facet normal 0 1 0
    outer loop
      vertex 0 20 0
      vertex 3.2 20 3.5
      vertex 3.2 20 0.5
    endloop
  endfacet
  facet normal 0 1 0
    outer loop
      vertex 3.2 20 3.5
      vertex 0 20 0
      vertex 0 20 12.5
    endloop
  endfacet
  facet normal 0 1 0
    outer loop
      vertex 0 20 0
      vertex 3.2 20 0.5
      vertex 18.5 20 0
    endloop
  endfacet
  facet normal 0 0 -1
    outer loop
      vertex 0 0 0
      vertex 18.5 20 0
      vertex 18.5 0 0
    endloop
  endfacet
  facet normal -0 0 -1
    outer loop
      vertex 18.5 20 0
      vertex 0 0 0
      vertex 0 20 0
    endloop
  endfacet
  facet normal 0 -1 0
    outer loop
      vertex 18 0 12.05
      vertex 0 0 12.5
      vertex 0.25 0 12.05
    endloop
  endfacet
  facet normal 0 -1 0
    outer loop
      vertex 0 0 0
      vertex 0.25 0 12.05
      vertex 0 0 12.5
    endloop
  endfacet
  facet normal 0 -1 -0
    outer loop
      vertex 0.25 0 0.2
      vertex 0 0 0
      vertex 18 0 0.2
    endloop
  endfacet
  facet normal 0 -1 -0
    outer loop
      vertex 0.25 0 12.05
      vertex 0 0 0
      vertex 0.25 0 0.2
    endloop
  endfacet
  facet normal 0 -1 0
    outer loop
      vertex 0 0 12.5
      vertex 18 0 12.05
      vertex 18.5 0 12.5
    endloop
  endfacet
  facet normal 0 -1 0
    outer loop
      vertex 18.5 0 0
      vertex 18 0 12.05
      vertex 18 0 0.2
    endloop
  endfacet
  facet normal 0 -1 0
    outer loop
      vertex 18 0 12.05
      vertex 18.5 0 0
      vertex 18.5 0 12.5
    endloop
  endfacet
  facet normal 0 -1 0
    outer loop
      vertex 18.5 0 0
      vertex 18 0 0.2
      vertex 0 0 0
    endloop
  endfacet
  facet normal 1 -0 0
    outer loop
      vertex 0.25 0 12.05
      vertex 0.25 19.5 0.2
      vertex 0.25 19.5 12.05
    endloop
  endfacet
  facet normal 1 0 0
    outer loop
      vertex 0.25 19.5 0.2
      vertex 0.25 0 12.05
      vertex 0.25 0 0.2
    endloop
  endfacet
  facet normal 0 0 -1
    outer loop
      vertex 0.25 0 12.05
      vertex 18 19.5 12.05
      vertex 18 0 12.05
    endloop
  endfacet
  facet normal -0 0 -1
    outer loop
      vertex 18 19.5 12.05
      vertex 0.25 0 12.05
      vertex 0.25 19.5 12.05
    endloop
  endfacet
  facet normal -1 0 0
    outer loop
      vertex 18 0 0.2
      vertex 18 19.5 12.05
      vertex 18 19.5 0.2
    endloop
  endfacet
  facet normal -1 -0 0
    outer loop
      vertex 18 19.5 12.05
      vertex 18 0 0.2
      vertex 18 0 12.05
    endloop
  endfacet
  facet normal 0 -1 0
    outer loop
      vertex 0.25 19.5 12.05
      vertex 3.2 19.5 3.5
      vertex 18 19.5 12.05
    endloop
  endfacet
  facet normal 0 -1 0
    outer loop
      vertex 0.25 19.5 0.2
      vertex 3.2 19.5 3.5
      vertex 0.25 19.5 12.05
    endloop
  endfacet
  facet normal 0 -1 -0
    outer loop
      vertex 3.2 19.5 0.5
      vertex 0.25 19.5 0.2
      vertex 15.3 19.5 0.5
    endloop
  endfacet
  facet normal 0 -1 -0
    outer loop
      vertex 3.2 19.5 3.5
      vertex 0.25 19.5 0.2
      vertex 3.2 19.5 0.5
    endloop
  endfacet
  facet normal 0 -1 0
    outer loop
      vertex 15.3 19.5 3.5
      vertex 18 19.5 12.05
      vertex 3.2 19.5 3.5
    endloop
  endfacet
  facet normal 0 -1 0
    outer loop
      vertex 18 19.5 0.2
      vertex 15.3 19.5 3.5
      vertex 15.3 19.5 0.5
    endloop
  endfacet
  facet normal 0 -1 0
    outer loop
      vertex 15.3 19.5 3.5
      vertex 18 19.5 0.2
      vertex 18 19.5 12.05
    endloop
  endfacet
  facet normal 0 -1 0
    outer loop
      vertex 18 19.5 0.2
      vertex 15.3 19.5 0.5
      vertex 0.25 19.5 0.2
    endloop
  endfacet
  facet normal -0 0 1
    outer loop
      vertex 0.25 19.5 0.2
      vertex 18 0 0.2
      vertex 18 19.5 0.2
    endloop
  endfacet
  facet normal 0 0 1
    outer loop
      vertex 18 0 0.2
      vertex 0.25 19.5 0.2
      vertex 0.25 0 0.2
    endloop
  endfacet
  facet normal 1 -0 0
    outer loop
      vertex 3.2 19.5 3.5
      vertex 3.2 20 0.5
      vertex 3.2 20 3.5
    endloop
  endfacet
  facet normal 1 0 0
    outer loop
      vertex 3.2 20 0.5
      vertex 3.2 19.5 3.5
      vertex 3.2 19.5 0.5
    endloop
  endfacet
  facet normal 0 0 -1
    outer loop
      vertex 3.2 19.5 3.5
      vertex 15.3 20 3.5
      vertex 15.3 19.5 3.5
    endloop
  endfacet
  facet normal -0 0 -1
    outer loop
      vertex 15.3 20 3.5
      vertex 3.2 19.5 3.5
      vertex 3.2 20 3.5
    endloop
  endfacet
  facet normal -1 0 0
    outer loop
      vertex 15.3 19.5 0.5
      vertex 15.3 20 3.5
      vertex 15.3 20 0.5
    endloop
  endfacet
  facet normal -1 -0 0
    outer loop
      vertex 15.3 20 3.5
      vertex 15.3 19.5 0.5
      vertex 15.3 19.5 3.5
    endloop
  endfacet
  facet normal -0 0 1
    outer loop
      vertex 3.2 20 0.5
      vertex 15.3 19.5 0.5
      vertex 15.3 20 0.5
    endloop
  endfacet
  facet normal 0 0 1
    outer loop
      vertex 15.3 19.5 0.5
      vertex 3.2 20 0.5
      vertex 3.2 19.5 0.5
    endloop
  endfacet
  facet normal -1 0 0
    outer loop
      vertex 0.25 -4 0.2
      vertex 0.25 -3 12.05
      vertex 0.25 -3 0.2
    endloop
  endfacet
  facet normal -1 -0 0
    outer loop
      vertex 0.25 -3 12.05
      vertex 0.25 -4 0.2
      vertex 0.25 -4 12.05
    endloop
  endfacet
  facet normal -0 0 1
    outer loop
      vertex 0.25 -3 12.05
      vertex 18 -4 12.05
      vertex 18 -3 12.05
    endloop
  endfacet
  facet normal 0 0 1
    outer loop
      vertex 18 -4 12.05
      vertex 0.25 -3 12.05
      vertex 0.25 -4 12.05
    endloop
  endfacet
  facet normal 1 -0 0
    outer loop
      vertex 18 -4 12.05
      vertex 18 -3 0.2
      vertex 18 -3 12.05
    endloop
  endfacet
  facet normal 1 0 0
    outer loop
      vertex 18 -3 0.2
      vertex 18 -4 12.05
      vertex 18 -4 0.2
    endloop
  endfacet
  facet normal 0 0 -1
    outer loop
      vertex 0.25 -4 0.2
      vertex 18 -3 0.2
      vertex 18 -4 0.2
    endloop
  endfacet
  facet normal -0 0 -1
    outer loop
      vertex 18 -3 0.2
      vertex 0.25 -4 0.2
      vertex 0.25 -3 0.2
    endloop
  endfacet
  facet normal 0 1 0
    outer loop
      vertex 18.5 -4 12.5
      vertex 18 -4 12.05
      vertex 0 -4 12.5
    endloop
  endfacet
  facet normal 0 1 -0
    outer loop
      vertex 18.5 -4 0
      vertex 18 -4 12.05
      vertex 18.5 -4 12.5
    endloop
  endfacet
  facet normal 0 1 0
    outer loop
      vertex 0 -4 0
      vertex 18 -4 0.2
      vertex 18.5 -4 0
    endloop
  endfacet
  facet normal 0 1 0
    outer loop
      vertex 18 -4 12.05
      vertex 18.5 -4 0
      vertex 18 -4 0.2
    endloop
  endfacet
  facet normal 0 1 -0
    outer loop
      vertex 0.25 -4 12.05
      vertex 0 -4 12.5
      vertex 18 -4 12.05
    endloop
  endfacet
  facet normal 0 1 0
    outer loop
      vertex 0 -4 0
      vertex 0.25 -4 12.05
      vertex 0.25 -4 0.2
    endloop
  endfacet
  facet normal 0 1 0
    outer loop
      vertex 0.25 -4 12.05
      vertex 0 -4 0
      vertex 0 -4 12.5
    endloop
  endfacet
  facet normal 0 1 0
    outer loop
      vertex 18 -4 0.2
      vertex 0 -4 0
      vertex 0.25 -4 0.2
    endloop
  endfacet
  facet normal 0 1 -0
    outer loop
      vertex 18 -3 0.2
      vertex 0.25 -3 12.05
      vertex 18 -3 12.05
    endloop
  endfacet
  facet normal 0 1 0
    outer loop
      vertex 0.25 -3 12.05
      vertex 18 -3 0.2
      vertex 0.25 -3 0.2
    endloop
  endfacet
  facet normal -1 0 0
    outer loop
      vertex 0 -6 0
      vertex 0 -4 12.5
      vertex 0 -4 0
    endloop
  endfacet
  facet normal -1 -0 0
    outer loop
      vertex 0 -4 12.5
      vertex 0 -6 0
      vertex 0 -6 12.5
    endloop
  endfacet
  facet normal -0 0 1
    outer loop
      vertex 0 -4 12.5
      vertex 18.5 -6 12.5
      vertex 18.5 -4 12.5
    endloop
  endfacet
  facet normal 0 0 1
    outer loop
      vertex 18.5 -6 12.5
      vertex 0 -4 12.5
      vertex 0 -6 12.5
    endloop
  endfacet
  facet normal 1 -0 0
    outer loop
      vertex 18.5 -6 12.5
      vertex 18.5 -4 0
      vertex 18.5 -4 12.5
    endloop
  endfacet
  facet normal 1 0 0
    outer loop
      vertex 18.5 -4 0
      vertex 18.5 -6 12.5
      vertex 18.5 -6 0
    endloop
  endfacet
  facet normal 0 0 -1
    outer loop
      vertex 0 -6 0
      vertex 18.5 -4 0
      vertex 18.5 -6 0
    endloop
  endfacet
  facet normal -0 0 -1
    outer loop
      vertex 18.5 -4 0
      vertex 0 -6 0
      vertex 0 -4 0
    endloop
  endfacet
  facet normal 0 -1 0
    outer loop
      vertex 0 -6 0
      vertex 18.5 -6 12.5
      vertex 0 -6 12.5
    endloop
  endfacet
  facet normal 0 -1 -0
    outer loop
      vertex 18.5 -6 12.5
      vertex 0 -6 0
      vertex 18.5 -6 0
    endloop
  endfacet
endsolid OpenSCAD_Model
