solid OpenSCAD_Model
  facet normal -1 0 0
    outer loop
      vertex 1 -4 1
      vertex 1 -2 14.75
      vertex 1 -2 1
    endloop
  endfacet
  facet normal -1 -0 0
    outer loop
      vertex 1 -2 14.75
      vertex 1 -4 1
      vertex 1 -4 14.75
    endloop
  endfacet
  facet normal -0 0 1
    outer loop
      vertex 1 -2 14.75
      vertex 21.75 -4 14.75
      vertex 21.75 -2 14.75
    endloop
  endfacet
  facet normal 0 0 1
    outer loop
      vertex 21.75 -4 14.75
      vertex 1 -2 14.75
      vertex 1 -4 14.75
    endloop
  endfacet
  facet normal 1 -0 0
    outer loop
      vertex 21.75 -4 14.75
      vertex 21.75 -2 1
      vertex 21.75 -2 14.75
    endloop
  endfacet
  facet normal 1 0 0
    outer loop
      vertex 21.75 -2 1
      vertex 21.75 -4 14.75
      vertex 21.75 -4 1
    endloop
  endfacet
  facet normal 0 1 -0
    outer loop
      vertex 21.75 -2 1
      vertex 1 -2 14.75
      vertex 21.75 -2 14.75
    endloop
  endfacet
  facet normal 0 1 0
    outer loop
      vertex 1 -2 14.75
      vertex 21.75 -2 1
      vertex 1 -2 1
    endloop
  endfacet
  facet normal 0 0 -1
    outer loop
      vertex 1 -4 1
      vertex 21.75 -2 1
      vertex 21.75 -4 1
    endloop
  endfacet
  facet normal -0 0 -1
    outer loop
      vertex 21.75 -2 1
      vertex 1 -4 1
      vertex 1 -2 1
    endloop
  endfacet
  facet normal 0 1 0
    outer loop
      vertex 23 -4 16
      vertex 21.75 -4 14.75
      vertex 0 -4 16
    endloop
  endfacet
  facet normal 0 1 -0
    outer loop
      vertex 23 -4 0
      vertex 21.75 -4 14.75
      vertex 23 -4 16
    endloop
  endfacet
  facet normal 0 1 0
    outer loop
      vertex 0 -4 0
      vertex 21.75 -4 1
      vertex 23 -4 0
    endloop
  endfacet
  facet normal 0 1 0
    outer loop
      vertex 21.75 -4 14.75
      vertex 23 -4 0
      vertex 21.75 -4 1
    endloop
  endfacet
  facet normal 0 1 -0
    outer loop
      vertex 1 -4 14.75
      vertex 0 -4 16
      vertex 21.75 -4 14.75
    endloop
  endfacet
  facet normal 0 1 0
    outer loop
      vertex 0 -4 0
      vertex 1 -4 14.75
      vertex 1 -4 1
    endloop
  endfacet
  facet normal 0 1 0
    outer loop
      vertex 1 -4 14.75
      vertex 0 -4 0
      vertex 0 -4 16
    endloop
  endfacet
  facet normal 0 1 0
    outer loop
      vertex 21.75 -4 1
      vertex 0 -4 0
      vertex 1 -4 1
    endloop
  endfacet
  facet normal -1 0 0
    outer loop
      vertex 0 -6 0
      vertex 0 -4 16
      vertex 0 -4 0
    endloop
  endfacet
  facet normal -1 -0 0
    outer loop
      vertex 0 -4 16
      vertex 0 -6 0
      vertex 0 -6 16
    endloop
  endfacet
  facet normal -0 0 1
    outer loop
      vertex 0 -4 16
      vertex 23 -6 16
      vertex 23 -4 16
    endloop
  endfacet
  facet normal 0 0 1
    outer loop
      vertex 23 -6 16
      vertex 0 -4 16
      vertex 0 -6 16
    endloop
  endfacet
  facet normal 1 -0 0
    outer loop
      vertex 23 -6 16
      vertex 23 -4 0
      vertex 23 -4 16
    endloop
  endfacet
  facet normal 1 0 0
    outer loop
      vertex 23 -4 0
      vertex 23 -6 16
      vertex 23 -6 0
    endloop
  endfacet
  facet normal 0 0 -1
    outer loop
      vertex 0 -6 0
      vertex 23 -4 0
      vertex 23 -6 0
    endloop
  endfacet
  facet normal -0 0 -1
    outer loop
      vertex 23 -4 0
      vertex 0 -6 0
      vertex 0 -4 0
    endloop
  endfacet
  facet normal 0 -1 0
    outer loop
      vertex 0 -6 0
      vertex 23 -6 16
      vertex 0 -6 16
    endloop
  endfacet
  facet normal 0 -1 -0
    outer loop
      vertex 23 -6 16
      vertex 0 -6 0
      vertex 23 -6 0
    endloop
  endfacet
endsolid OpenSCAD_Model
